<?xml version="1.0" encoding="utf-8" standalone="no"?>
<!DOCTYPE svg PUBLIC "-//W3C//DTD SVG 1.1//EN"
  "http://www.w3.org/Graphics/SVG/1.1/DTD/svg11.dtd">
<svg xmlns:xlink="http://www.w3.org/1999/xlink" width="460.8pt" height="345.6pt" viewBox="0 0 460.8 345.6" xmlns="http://www.w3.org/2000/svg" version="1.1">
 <metadata>
  <rdf:RDF xmlns:dc="http://purl.org/dc/elements/1.1/" xmlns:cc="http://creativecommons.org/ns#" xmlns:rdf="http://www.w3.org/1999/02/22-rdf-syntax-ns#">
   <cc:Work>
    <dc:type rdf:resource="http://purl.org/dc/dcmitype/StillImage"/>
    <dc:date>2024-10-10T19:30:37.586116</dc:date>
    <dc:format>image/svg+xml</dc:format>
    <dc:creator>
     <cc:Agent>
      <dc:title>Matplotlib v3.9.2, https://matplotlib.org/</dc:title>
     </cc:Agent>
    </dc:creator>
   </cc:Work>
  </rdf:RDF>
 </metadata>
 <defs>
  <style type="text/css">*{stroke-linejoin: round; stroke-linecap: butt}</style>
 </defs>
 <g id="figure_1">
  <g id="patch_1">
   <path d="M 0 345.6 
L 460.8 345.6 
L 460.8 0 
L 0 0 
L 0 345.6 
z
" style="fill: none"/>
  </g>
  <g id="axes_1">
   <g id="patch_2">
    <path d="M 75.31 291.08 
L 434.88 291.08 
L 434.88 25.92 
L 75.31 25.92 
L 75.31 291.08 
z
" style="fill: none"/>
   </g>
   <g id="matplotlib.axis_1">
    <g id="xtick_1">
     <g id="line2d_1">
      <defs>
       <path id="m0c737c313e" d="M 0 0 
L 0 3.5 
" style="stroke: #9700ff; stroke-width: 0.8"/>
      </defs>
      <g>
       <use xlink:href="#m0c737c313e" x="88.352254" y="291.08" style="fill: #9700ff; stroke: #9700ff; stroke-width: 0.8"/>
      </g>
     </g>
     <g id="text_1">
      <!-- 0 -->
      <g style="fill: #9700ff" transform="translate(81.272254 315.12) scale(0.24 -0.24)">
       <defs>
        <path id="LabGrotesqueK-Regular-30" d="M 1888 4627 
Q 2336 4627 2675 4409 
Q 3014 4192 3213 3795 
Q 3520 3174 3520 2259 
Q 3520 1350 3213 730 
Q 3014 333 2678 115 
Q 2342 -102 1888 -102 
Q 1434 -102 1098 115 
Q 762 333 563 730 
Q 256 1350 256 2259 
Q 256 3174 563 3795 
Q 762 4192 1101 4409 
Q 1440 4627 1888 4627 
z
M 1888 4141 
Q 1331 4141 1062 3546 
Q 832 3059 832 2259 
Q 832 1472 1062 973 
Q 1190 685 1401 531 
Q 1613 378 1888 378 
Q 2163 378 2374 531 
Q 2586 685 2714 973 
Q 2944 1472 2944 2259 
Q 2944 3059 2714 3546 
Q 2445 4141 1888 4141 
z
" transform="scale(0.015625)"/>
       </defs>
       <use xlink:href="#LabGrotesqueK-Regular-30"/>
      </g>
     </g>
    </g>
    <g id="xtick_2">
     <g id="line2d_2">
      <g>
       <use xlink:href="#m0c737c313e" x="198.413473" y="291.08" style="fill: #9700ff; stroke: #9700ff; stroke-width: 0.8"/>
      </g>
     </g>
     <g id="text_2">
      <!-- 2 -->
      <g style="fill: #9700ff" transform="translate(191.549098 315.12) scale(0.24 -0.24)">
       <defs>
        <path id="LabGrotesqueK-Regular-32" d="M 3373 480 
L 3373 0 
L 262 0 
L 262 211 
Q 262 678 428 1001 
Q 595 1325 851 1539 
Q 1107 1754 1562 2042 
Q 1747 2163 1875 2234 
Q 2189 2419 2371 2553 
Q 2554 2688 2672 2880 
Q 2790 3072 2790 3334 
Q 2790 3712 2547 3926 
Q 2304 4141 1946 4141 
Q 1574 4141 1299 3955 
Q 1024 3770 685 3328 
L 269 3622 
Q 602 4115 1002 4371 
Q 1402 4627 1933 4627 
Q 2362 4627 2685 4460 
Q 3008 4294 3184 4003 
Q 3360 3712 3360 3354 
Q 3360 2970 3209 2701 
Q 3059 2432 2828 2253 
Q 2598 2074 2182 1818 
Q 2035 1741 1894 1645 
L 1779 1568 
Q 1466 1370 1293 1235 
Q 1120 1101 995 915 
Q 870 730 838 480 
L 3373 480 
z
" transform="scale(0.015625)"/>
       </defs>
       <use xlink:href="#LabGrotesqueK-Regular-32"/>
      </g>
     </g>
    </g>
    <g id="xtick_3">
     <g id="line2d_3">
      <g>
       <use xlink:href="#m0c737c313e" x="308.474691" y="291.08" style="fill: #9700ff; stroke: #9700ff; stroke-width: 0.8"/>
      </g>
     </g>
     <g id="text_3">
      <!-- 4 -->
      <g style="fill: #9700ff" transform="translate(301.514691 315.12) scale(0.24 -0.24)">
       <defs>
        <path id="LabGrotesqueK-Regular-34" d="M 2944 2566 
L 2944 1530 
L 3597 1530 
L 3597 1062 
L 2944 1062 
L 2944 0 
L 2394 0 
L 2394 1062 
L 186 1062 
L 186 1574 
L 1990 4525 
L 2618 4525 
L 781 1530 
L 2394 1530 
L 2394 2566 
L 2944 2566 
z
" transform="scale(0.015625)"/>
       </defs>
       <use xlink:href="#LabGrotesqueK-Regular-34"/>
      </g>
     </g>
    </g>
    <g id="xtick_4">
     <g id="line2d_4">
      <g>
       <use xlink:href="#m0c737c313e" x="418.535909" y="291.08" style="fill: #9700ff; stroke: #9700ff; stroke-width: 0.8"/>
      </g>
     </g>
     <g id="text_4">
      <!-- 6 -->
      <g style="fill: #9700ff" transform="translate(411.467159 315.12) scale(0.24 -0.24)">
       <defs>
        <path id="LabGrotesqueK-Regular-36" d="M 2061 2957 
Q 2496 2957 2825 2749 
Q 3155 2541 3334 2195 
Q 3514 1850 3514 1440 
Q 3514 1037 3325 681 
Q 3136 326 2781 112 
Q 2426 -102 1939 -102 
Q 1440 -102 1078 128 
Q 717 358 525 758 
Q 333 1158 333 1658 
Q 333 2387 681 2988 
Q 1030 3590 1670 4218 
L 1984 4525 
L 2739 4525 
L 2739 4512 
L 2048 3859 
Q 1306 3168 1037 2541 
Q 1216 2739 1475 2848 
Q 1734 2957 2061 2957 
z
M 1939 378 
Q 2400 378 2672 678 
Q 2944 979 2944 1434 
Q 2944 1888 2681 2185 
Q 2419 2483 1965 2483 
Q 1485 2483 1200 2185 
Q 915 1888 915 1434 
Q 915 1139 1040 899 
Q 1165 659 1398 518 
Q 1632 378 1939 378 
z
" transform="scale(0.015625)"/>
       </defs>
       <use xlink:href="#LabGrotesqueK-Regular-36"/>
      </g>
     </g>
    </g>
   </g>
   <g id="matplotlib.axis_2">
    <g id="ytick_1">
     <g id="line2d_5">
      <defs>
       <path id="mef5dc91f50" d="M 0 0 
L -3.5 0 
" style="stroke: #9700ff; stroke-width: 0.8"/>
      </defs>
      <g>
       <use xlink:href="#mef5dc91f50" x="75.31" y="253.771283" style="fill: #9700ff; stroke: #9700ff; stroke-width: 0.8"/>
      </g>
     </g>
     <g id="text_5">
      <!-- 0 -->
      <g style="fill: #9700ff" transform="translate(54.15 262.291283) scale(0.24 -0.24)">
       <use xlink:href="#LabGrotesqueK-Regular-30"/>
      </g>
     </g>
    </g>
    <g id="ytick_2">
     <g id="line2d_6">
      <g>
       <use xlink:href="#mef5dc91f50" x="75.31" y="148.098735" style="fill: #9700ff; stroke: #9700ff; stroke-width: 0.8"/>
      </g>
     </g>
     <g id="text_6">
      <!-- 200 -->
      <g style="fill: #9700ff" transform="translate(26.26125 156.618735) scale(0.24 -0.24)">
       <use xlink:href="#LabGrotesqueK-Regular-32"/>
       <use xlink:href="#LabGrotesqueK-Regular-30" x="57.199997"/>
       <use xlink:href="#LabGrotesqueK-Regular-30" x="116.199982"/>
      </g>
     </g>
    </g>
    <g id="ytick_3">
     <g id="line2d_7">
      <g>
       <use xlink:href="#mef5dc91f50" x="75.31" y="42.426188" style="fill: #9700ff; stroke: #9700ff; stroke-width: 0.8"/>
      </g>
     </g>
     <g id="text_7">
      <!-- 400 -->
      <g style="fill: #9700ff" transform="translate(26.07 50.946188) scale(0.24 -0.24)">
       <use xlink:href="#LabGrotesqueK-Regular-34"/>
       <use xlink:href="#LabGrotesqueK-Regular-30" x="57.999985"/>
       <use xlink:href="#LabGrotesqueK-Regular-30" x="116.999969"/>
      </g>
     </g>
    </g>
   </g>
   <g id="line2d_8">
    <path d="M 91.654091 253.706909 
L 94.955927 253.640515 
L 98.257764 253.571976 
L 101.559601 253.501158 
L 104.861437 253.427922 
L 108.163274 253.352118 
L 111.46511 253.273586 
L 114.766947 253.192158 
L 118.068783 253.107656 
L 121.37062 253.019889 
L 124.672456 252.928654 
L 127.974293 252.833739 
L 131.276129 252.734914 
L 134.577966 252.631939 
L 137.879803 252.524557 
L 141.181639 252.412495 
L 144.483476 252.295463 
L 147.785312 252.173155 
L 151.087149 252.045245 
L 154.388985 251.911385 
L 157.690822 251.771208 
L 160.992658 251.624323 
L 164.294495 251.470316 
L 167.596331 251.308745 
L 170.898168 251.139144 
L 174.200005 250.961016 
L 177.501841 250.773834 
L 180.803678 250.577037 
L 184.105514 250.370031 
L 187.407351 250.152185 
L 190.709187 249.922828 
L 194.011024 249.681249 
L 197.31286 249.426692 
L 200.614697 249.158355 
L 203.916534 248.875384 
L 207.21837 248.576876 
L 210.520207 248.26187 
L 213.822043 247.929345 
L 217.12388 247.578219 
L 220.425716 247.20734 
L 223.727553 246.815487 
L 227.029389 246.401365 
L 230.331226 245.963594 
L 233.633062 245.500714 
L 236.934899 245.011171 
L 240.236736 244.493317 
L 243.538572 243.9454 
L 246.840409 243.365563 
L 250.142245 242.751831 
L 253.444082 242.102109 
L 256.745918 241.41417 
L 260.047755 240.685651 
L 263.349591 239.914044 
L 266.651428 239.096684 
L 269.953264 238.230741 
L 273.255101 237.313211 
L 276.556938 236.340906 
L 279.858774 235.310436 
L 283.160611 234.218206 
L 286.462447 233.060397 
L 289.764284 231.832953 
L 293.06612 230.531568 
L 296.367957 229.151671 
L 299.669793 227.688406 
L 302.97163 226.136618 
L 306.273466 224.490833 
L 309.575303 222.745239 
L 312.87714 220.893664 
L 316.178976 218.929554 
L 319.480813 216.84595 
L 322.782649 214.635464 
L 326.084486 212.290249 
L 329.386322 209.801975 
L 332.688159 207.161795 
L 335.989995 204.360316 
L 339.291832 201.387563 
L 342.593669 198.232945 
L 345.895505 194.885218 
L 349.197342 191.332438 
L 352.499178 187.561928 
L 355.801015 183.560222 
L 359.102851 179.313025 
L 362.404688 174.805157 
L 365.706524 170.020498 
L 369.008361 164.941932 
L 372.310197 159.551286 
L 375.612034 153.829261 
L 378.913871 147.755366 
L 382.215707 141.307842 
L 385.517544 134.463587 
L 388.81938 127.198066 
L 392.121217 119.485232 
L 395.423053 111.297422 
L 398.72489 102.605267 
L 402.026726 93.37758 
L 405.328563 83.581244 
L 408.630399 73.181098 
L 411.932236 62.139802 
L 415.234073 50.417711 
L 418.535909 37.972727 
" clip-path="url(#paad59d4354)" style="fill: none; stroke-dasharray: 32,8,5,8; stroke-dashoffset: 0; stroke: #02fe00; stroke-width: 5"/>
   </g>
   <g id="line2d_9">
    <path d="M 289.764284 279.027273 
L 293.06612 274.290612 
L 296.367957 269.553951 
L 299.669793 264.81729 
L 302.97163 260.08063 
L 306.273466 255.343969 
L 309.575303 250.607308 
L 312.87714 245.870647 
L 316.178976 241.133987 
L 319.480813 236.397326 
L 322.782649 231.660665 
L 326.084486 226.924004 
L 329.386322 222.187344 
L 332.688159 217.450683 
L 335.989995 212.714022 
L 339.291832 207.977361 
L 342.593669 203.240701 
L 345.895505 198.50404 
L 349.197342 193.767379 
L 352.499178 189.030718 
L 355.801015 184.294058 
L 359.102851 179.557397 
L 362.404688 174.820736 
L 365.706524 170.084075 
L 369.008361 165.347414 
L 372.310197 160.610754 
L 375.612034 155.874093 
L 378.913871 151.137432 
L 382.215707 146.400771 
L 385.517544 141.664111 
L 388.81938 136.92745 
L 392.121217 132.190789 
L 395.423053 127.454128 
L 398.72489 122.717468 
L 402.026726 117.980807 
L 405.328563 113.244146 
L 408.630399 108.507485 
L 411.932236 103.770825 
L 415.234073 99.034164 
L 418.535909 94.297503 
" clip-path="url(#paad59d4354)" style="fill: none; stroke: #0082ff; stroke-width: 4; stroke-linecap: square"/>
   </g>
   <g id="PathCollection_1">
    <defs>
     <path id="m4169927492" d="M 0 5 
C 1.326016 5 2.597899 4.473168 3.535534 3.535534 
C 4.473168 2.597899 5 1.326016 5 0 
C 5 -1.326016 4.473168 -2.597899 3.535534 -3.535534 
C 2.597899 -4.473168 1.326016 -5 0 -5 
C -1.326016 -5 -2.597899 -4.473168 -3.535534 -3.535534 
C -4.473168 -2.597899 -5 -1.326016 -5 0 
C -5 1.326016 -4.473168 2.597899 -3.535534 3.535534 
C -2.597899 4.473168 -1.326016 5 0 5 
z
" style="stroke: #ff007f"/>
    </defs>
    <g clip-path="url(#paad59d4354)">
     <use xlink:href="#m4169927492" x="363.5053" y="173.241849" style="fill: #ff007f; stroke: #ff007f"/>
    </g>
   </g>
   <g id="patch_3">
    <path d="M 75.31 291.08 
L 75.31 25.92 
" style="fill: none; stroke: #9700ff; stroke-width: 5; stroke-linejoin: miter; stroke-linecap: square"/>
   </g>
   <g id="patch_4">
    <path d="M 434.88 291.08 
L 434.88 25.92 
" style="fill: none; stroke: #9700ff; stroke-width: 5; stroke-linejoin: miter; stroke-linecap: square"/>
   </g>
   <g id="patch_5">
    <path d="M 75.31 291.08 
L 434.88 291.08 
" style="fill: none; stroke: #9700ff; stroke-width: 5; stroke-linejoin: miter; stroke-linecap: square"/>
   </g>
   <g id="patch_6">
    <path d="M 75.31 25.92 
L 434.88 25.92 
" style="fill: none; stroke: #9700ff; stroke-width: 5; stroke-linejoin: miter; stroke-linecap: square"/>
   </g>
   <g id="legend_1">
    <g id="patch_7">
     <path d="M 92.11 112.99125 
L 310.51375 112.99125 
Q 315.31375 112.99125 315.31375 108.19125 
L 315.31375 42.72 
Q 315.31375 37.92 310.51375 37.92 
L 92.11 37.92 
Q 87.31 37.92 87.31 42.72 
L 87.31 108.19125 
Q 87.31 112.99125 92.11 112.99125 
L 92.11 112.99125 
z
" style="fill: none; opacity: 0"/>
    </g>
    <g id="line2d_10">
     <path d="M 96.91 57 
L 120.91 57 
L 144.91 57 
" style="fill: none; stroke-dasharray: 32,8,5,8; stroke-dashoffset: 0; stroke: #02fe00; stroke-width: 5"/>
    </g>
    <g id="text_8">
     <!-- Функция -->
     <g style="fill: #9700ff" transform="translate(164.11 65.4) scale(0.24 -0.24)">
      <defs>
       <path id="LabGrotesqueK-Regular-424" d="M 3245 4256 
Q 3936 4256 4432 4003 
Q 4928 3750 5184 3308 
Q 5440 2867 5440 2304 
Q 5440 1741 5184 1299 
Q 4928 858 4432 605 
Q 3936 352 3245 352 
L 3142 352 
L 3142 -224 
L 2566 -224 
L 2566 352 
L 2464 352 
Q 1773 352 1277 605 
Q 781 858 525 1299 
Q 269 1741 269 2304 
Q 269 2867 525 3308 
Q 781 3750 1277 4003 
Q 1773 4256 2464 4256 
L 2566 4256 
L 2566 4768 
L 3142 4768 
L 3142 4256 
L 3245 4256 
z
M 2573 845 
L 2573 3763 
L 2464 3763 
Q 1946 3763 1587 3574 
Q 1229 3386 1046 3056 
Q 864 2726 864 2304 
Q 864 1882 1046 1552 
Q 1229 1222 1587 1033 
Q 1946 845 2464 845 
L 2573 845 
z
M 3245 845 
Q 3763 845 4121 1033 
Q 4480 1222 4662 1552 
Q 4845 1882 4845 2304 
Q 4845 2726 4662 3056 
Q 4480 3386 4121 3574 
Q 3763 3763 3245 3763 
L 3136 3763 
L 3136 845 
L 3245 845 
z
" transform="scale(0.015625)"/>
       <path id="LabGrotesqueK-Regular-443" d="M 2426 3149 
L 2982 3149 
L 1722 -435 
Q 1568 -870 1369 -1052 
Q 1171 -1235 774 -1235 
Q 512 -1235 288 -1171 
L 384 -749 
Q 557 -787 723 -787 
Q 915 -787 1036 -681 
Q 1158 -576 1254 -288 
L 1293 -166 
L 109 3149 
L 691 3149 
L 1043 2106 
Q 1203 1638 1510 710 
L 1562 550 
L 1754 1133 
Q 1798 1274 2074 2118 
L 2426 3149 
z
" transform="scale(0.015625)"/>
       <path id="LabGrotesqueK-Regular-43d" d="M 3072 3149 
L 3072 0 
L 2522 0 
L 2522 1402 
L 992 1402 
L 992 0 
L 442 0 
L 442 3149 
L 992 3149 
L 992 1856 
L 2522 1856 
L 2522 3149 
L 3072 3149 
z
" transform="scale(0.015625)"/>
       <path id="LabGrotesqueK-Regular-43a" d="M 3213 0 
L 2592 0 
L 1574 1402 
L 992 1402 
L 992 0 
L 442 0 
L 442 3149 
L 992 3149 
L 992 1856 
L 1574 1856 
L 2522 3149 
L 3117 3149 
L 2010 1651 
L 3213 0 
z
" transform="scale(0.015625)"/>
       <path id="LabGrotesqueK-Regular-446" d="M 3533 -800 
L 2995 -800 
L 2995 0 
L 442 0 
L 442 3149 
L 992 3149 
L 992 448 
L 2509 448 
L 2509 3149 
L 3059 3149 
L 3059 448 
L 3533 448 
L 3533 -800 
z
" transform="scale(0.015625)"/>
       <path id="LabGrotesqueK-Regular-438" d="M 2598 3149 
L 3194 3149 
L 3194 0 
L 2675 0 
L 2675 1293 
Q 2675 2074 2694 2598 
Q 2317 1971 1965 1434 
L 1030 0 
L 442 0 
L 442 3149 
L 960 3149 
L 960 1754 
Q 960 1133 941 576 
Q 1389 1306 1664 1715 
L 2598 3149 
z
" transform="scale(0.015625)"/>
       <path id="LabGrotesqueK-Regular-44f" d="M 2893 3149 
L 2893 0 
L 2368 0 
L 2368 1133 
L 1779 1133 
L 813 0 
L 173 0 
L 1184 1158 
Q 774 1229 534 1491 
Q 294 1754 294 2144 
Q 294 2598 617 2873 
Q 941 3149 1466 3149 
L 2893 3149 
z
M 2368 1581 
L 2368 2701 
L 1536 2701 
Q 1197 2701 1014 2553 
Q 832 2406 832 2144 
Q 832 1875 1014 1728 
Q 1197 1581 1530 1581 
L 2368 1581 
z
" transform="scale(0.015625)"/>
      </defs>
      <use xlink:href="#LabGrotesqueK-Regular-424"/>
      <use xlink:href="#LabGrotesqueK-Regular-443" x="89.199982"/>
      <use xlink:href="#LabGrotesqueK-Regular-43d" x="137.599976"/>
      <use xlink:href="#LabGrotesqueK-Regular-43a" x="192.59996"/>
      <use xlink:href="#LabGrotesqueK-Regular-446" x="244.099945"/>
      <use xlink:href="#LabGrotesqueK-Regular-438" x="301.999939"/>
      <use xlink:href="#LabGrotesqueK-Regular-44f" x="358.799927"/>
     </g>
    </g>
    <g id="line2d_11">
     <path d="M 96.91 90.67125 
L 120.91 90.67125 
L 144.91 90.67125 
" style="fill: none; stroke: #0082ff; stroke-width: 4; stroke-linecap: square"/>
    </g>
    <g id="text_9">
     <!-- Касательная -->
     <g style="fill: #9700ff" transform="translate(164.11 99.07125) scale(0.24 -0.24)">
      <defs>
       <path id="LabGrotesqueK-Regular-41a" d="M 4166 0 
L 3482 0 
L 1939 2112 
L 1114 2112 
L 1114 0 
L 525 0 
L 525 4544 
L 1114 4544 
L 1114 2605 
L 1926 2605 
L 3405 4544 
L 4077 4544 
L 2413 2387 
L 4166 0 
z
" transform="scale(0.015625)"/>
       <path id="LabGrotesqueK-Regular-430" d="M 1702 3238 
Q 2310 3238 2646 2950 
Q 2982 2662 2982 2189 
L 2982 0 
L 2483 0 
L 2483 390 
Q 2323 154 2048 26 
Q 1773 -102 1414 -102 
Q 915 -102 601 115 
Q 288 333 288 781 
Q 288 1286 669 1516 
Q 1050 1747 1754 1875 
L 2458 2003 
L 2458 2163 
Q 2458 2458 2256 2621 
Q 2054 2784 1722 2784 
Q 1427 2784 1200 2662 
Q 973 2541 685 2253 
L 333 2566 
Q 627 2912 960 3075 
Q 1293 3238 1702 3238 
z
M 1472 352 
Q 1894 352 2176 576 
Q 2458 800 2458 1178 
L 2458 1594 
L 1882 1478 
Q 1510 1402 1296 1331 
Q 1082 1261 954 1133 
Q 826 1005 826 800 
Q 826 582 995 467 
Q 1165 352 1472 352 
z
" transform="scale(0.015625)"/>
       <path id="LabGrotesqueK-Regular-441" d="M 2669 2304 
Q 2419 2573 2211 2675 
Q 2003 2778 1760 2778 
Q 1453 2778 1235 2611 
Q 1018 2445 909 2169 
Q 800 1894 800 1574 
Q 800 1075 1053 726 
Q 1306 378 1766 378 
Q 2022 378 2227 490 
Q 2432 602 2707 902 
L 3072 595 
Q 2765 218 2464 64 
Q 2163 -90 1766 -90 
Q 1306 -90 960 115 
Q 614 320 425 697 
Q 237 1075 237 1574 
Q 237 2074 429 2448 
Q 621 2822 969 3030 
Q 1318 3238 1766 3238 
Q 2157 3238 2448 3104 
Q 2739 2970 3027 2643 
L 2669 2304 
z
" transform="scale(0.015625)"/>
       <path id="LabGrotesqueK-Regular-442" d="M 2784 3149 
L 2784 2701 
L 1734 2701 
L 1734 0 
L 1184 0 
L 1184 2701 
L 128 2701 
L 128 3149 
L 2784 3149 
z
" transform="scale(0.015625)"/>
       <path id="LabGrotesqueK-Regular-435" d="M 3168 563 
Q 2829 205 2512 57 
Q 2195 -90 1798 -90 
Q 1325 -90 973 115 
Q 621 320 429 691 
Q 237 1062 237 1555 
Q 237 2048 422 2429 
Q 608 2810 947 3024 
Q 1286 3238 1741 3238 
Q 2413 3238 2787 2832 
Q 3162 2426 3162 1722 
Q 3162 1594 3149 1478 
L 787 1478 
Q 813 998 1069 684 
Q 1325 371 1805 371 
Q 2099 371 2313 486 
Q 2528 602 2842 896 
L 3168 563 
z
M 1734 2797 
Q 1350 2797 1107 2560 
Q 864 2323 800 1888 
L 2618 1888 
Q 2598 2304 2368 2550 
Q 2138 2797 1734 2797 
z
" transform="scale(0.015625)"/>
       <path id="LabGrotesqueK-Regular-43b" d="M 467 -32 
Q 262 -32 109 6 
L 166 461 
Q 294 442 410 442 
Q 602 442 688 544 
Q 774 646 806 896 
Q 838 1146 845 1677 
L 858 3149 
L 3187 3149 
L 3187 0 
L 2637 0 
L 2637 2701 
L 1357 2701 
L 1344 1658 
Q 1338 998 1270 646 
Q 1203 294 1017 131 
Q 832 -32 467 -32 
z
" transform="scale(0.015625)"/>
       <path id="LabGrotesqueK-Regular-44c" d="M 442 0 
L 442 3149 
L 992 3149 
L 992 2093 
L 1888 2093 
Q 2413 2093 2739 1811 
Q 3066 1530 3066 1043 
Q 3066 557 2739 278 
Q 2413 0 1888 0 
L 442 0 
z
M 1798 454 
Q 2144 454 2323 595 
Q 2502 736 2502 1043 
Q 2502 1357 2323 1497 
Q 2144 1638 1798 1638 
L 992 1638 
L 992 454 
L 1798 454 
z
" transform="scale(0.015625)"/>
      </defs>
      <use xlink:href="#LabGrotesqueK-Regular-41a"/>
      <use xlink:href="#LabGrotesqueK-Regular-430" x="66.399994"/>
      <use xlink:href="#LabGrotesqueK-Regular-441" x="119.599991"/>
      <use xlink:href="#LabGrotesqueK-Regular-430" x="169.599976"/>
      <use xlink:href="#LabGrotesqueK-Regular-442" x="222.799973"/>
      <use xlink:href="#LabGrotesqueK-Regular-435" x="268.299957"/>
      <use xlink:href="#LabGrotesqueK-Regular-43b" x="321.699951"/>
      <use xlink:href="#LabGrotesqueK-Regular-44c" x="378.399948"/>
      <use xlink:href="#LabGrotesqueK-Regular-43d" x="429.699936"/>
      <use xlink:href="#LabGrotesqueK-Regular-430" x="484.699921"/>
      <use xlink:href="#LabGrotesqueK-Regular-44f" x="537.899918"/>
     </g>
    </g>
   </g>
  </g>
 </g>
 <defs>
  <clipPath id="paad59d4354">
   <rect x="75.31" y="25.92" width="359.57" height="265.16"/>
  </clipPath>
 </defs>
</svg>
