<?xml version="1.0" encoding="utf-8" standalone="no"?>
<!DOCTYPE svg PUBLIC "-//W3C//DTD SVG 1.1//EN"
  "http://www.w3.org/Graphics/SVG/1.1/DTD/svg11.dtd">
<svg xmlns:xlink="http://www.w3.org/1999/xlink" width="460.8pt" height="345.6pt" viewBox="0 0 460.8 345.6" xmlns="http://www.w3.org/2000/svg" version="1.1">
 <metadata>
  <rdf:RDF xmlns:dc="http://purl.org/dc/elements/1.1/" xmlns:cc="http://creativecommons.org/ns#" xmlns:rdf="http://www.w3.org/1999/02/22-rdf-syntax-ns#">
   <cc:Work>
    <dc:type rdf:resource="http://purl.org/dc/dcmitype/StillImage"/>
    <dc:date>2024-10-10T19:30:38.475346</dc:date>
    <dc:format>image/svg+xml</dc:format>
    <dc:creator>
     <cc:Agent>
      <dc:title>Matplotlib v3.9.2, https://matplotlib.org/</dc:title>
     </cc:Agent>
    </dc:creator>
   </cc:Work>
  </rdf:RDF>
 </metadata>
 <defs>
  <style type="text/css">*{stroke-linejoin: round; stroke-linecap: butt}</style>
 </defs>
 <g id="figure_1">
  <g id="patch_1">
   <path d="M 0 345.6 
L 460.8 345.6 
L 460.8 0 
L 0 0 
L 0 345.6 
z
" style="fill: none"/>
  </g>
  <g id="axes_1">
   <g id="patch_2">
    <path d="M 60.91 291.08 
L 434.88 291.08 
L 434.88 25.92 
L 60.91 25.92 
L 60.91 291.08 
z
" style="fill: none"/>
   </g>
   <g id="matplotlib.axis_1">
    <g id="xtick_1">
     <g id="line2d_1">
      <defs>
       <path id="m40065390e0" d="M 0 0 
L 0 3.5 
" style="stroke: #9700ff; stroke-width: 0.8"/>
      </defs>
      <g>
       <use xlink:href="#m40065390e0" x="74.474568" y="291.08" style="fill: #9700ff; stroke: #9700ff; stroke-width: 0.8"/>
      </g>
     </g>
     <g id="text_1">
      <!-- −5.0 -->
      <g style="fill: #9700ff" transform="translate(50.534568 315.12) scale(0.24 -0.24)">
       <defs>
        <path id="LabGrotesqueK-Regular-2212" d="M 256 2221 
L 3584 2221 
L 3584 1747 
L 256 1747 
L 256 2221 
z
" transform="scale(0.015625)"/>
        <path id="LabGrotesqueK-Regular-35" d="M 1984 2918 
Q 2413 2918 2739 2732 
Q 3066 2547 3245 2220 
Q 3424 1894 3424 1472 
Q 3424 1056 3232 694 
Q 3040 333 2688 115 
Q 2336 -102 1875 -102 
Q 1402 -102 1050 32 
Q 698 166 230 493 
L 512 909 
Q 941 608 1216 493 
Q 1491 378 1824 378 
Q 2131 378 2364 522 
Q 2598 666 2726 912 
Q 2854 1158 2854 1453 
Q 2854 1901 2598 2173 
Q 2342 2445 1882 2445 
Q 1350 2445 992 2074 
L 499 2131 
L 691 4525 
L 3219 4525 
L 3219 4045 
L 1178 4045 
L 1062 2618 
Q 1427 2918 1984 2918 
z
" transform="scale(0.015625)"/>
        <path id="LabGrotesqueK-Regular-2e" d="M 698 -58 
Q 538 -58 419 60 
Q 301 179 301 346 
Q 301 506 419 624 
Q 538 742 698 742 
Q 858 742 976 624 
Q 1094 506 1094 346 
Q 1094 179 976 60 
Q 858 -58 698 -58 
z
" transform="scale(0.015625)"/>
        <path id="LabGrotesqueK-Regular-30" d="M 1888 4627 
Q 2336 4627 2675 4409 
Q 3014 4192 3213 3795 
Q 3520 3174 3520 2259 
Q 3520 1350 3213 730 
Q 3014 333 2678 115 
Q 2342 -102 1888 -102 
Q 1434 -102 1098 115 
Q 762 333 563 730 
Q 256 1350 256 2259 
Q 256 3174 563 3795 
Q 762 4192 1101 4409 
Q 1440 4627 1888 4627 
z
M 1888 4141 
Q 1331 4141 1062 3546 
Q 832 3059 832 2259 
Q 832 1472 1062 973 
Q 1190 685 1401 531 
Q 1613 378 1888 378 
Q 2163 378 2374 531 
Q 2586 685 2714 973 
Q 2944 1472 2944 2259 
Q 2944 3059 2714 3546 
Q 2445 4141 1888 4141 
z
" transform="scale(0.015625)"/>
       </defs>
       <use xlink:href="#LabGrotesqueK-Regular-2212"/>
       <use xlink:href="#LabGrotesqueK-Regular-35" x="59.999985"/>
       <use xlink:href="#LabGrotesqueK-Regular-2e" x="118.699982"/>
       <use xlink:href="#LabGrotesqueK-Regular-30" x="140.499969"/>
      </g>
     </g>
    </g>
    <g id="xtick_2">
     <g id="line2d_2">
      <g>
       <use xlink:href="#m40065390e0" x="160.326267" y="291.08" style="fill: #9700ff; stroke: #9700ff; stroke-width: 0.8"/>
      </g>
     </g>
     <g id="text_2">
      <!-- −2.5 -->
      <g style="fill: #9700ff" transform="translate(136.601892 315.12) scale(0.24 -0.24)">
       <defs>
        <path id="LabGrotesqueK-Regular-32" d="M 3373 480 
L 3373 0 
L 262 0 
L 262 211 
Q 262 678 428 1001 
Q 595 1325 851 1539 
Q 1107 1754 1562 2042 
Q 1747 2163 1875 2234 
Q 2189 2419 2371 2553 
Q 2554 2688 2672 2880 
Q 2790 3072 2790 3334 
Q 2790 3712 2547 3926 
Q 2304 4141 1946 4141 
Q 1574 4141 1299 3955 
Q 1024 3770 685 3328 
L 269 3622 
Q 602 4115 1002 4371 
Q 1402 4627 1933 4627 
Q 2362 4627 2685 4460 
Q 3008 4294 3184 4003 
Q 3360 3712 3360 3354 
Q 3360 2970 3209 2701 
Q 3059 2432 2828 2253 
Q 2598 2074 2182 1818 
Q 2035 1741 1894 1645 
L 1779 1568 
Q 1466 1370 1293 1235 
Q 1120 1101 995 915 
Q 870 730 838 480 
L 3373 480 
z
" transform="scale(0.015625)"/>
       </defs>
       <use xlink:href="#LabGrotesqueK-Regular-2212"/>
       <use xlink:href="#LabGrotesqueK-Regular-32" x="59.999985"/>
       <use xlink:href="#LabGrotesqueK-Regular-2e" x="117.199982"/>
       <use xlink:href="#LabGrotesqueK-Regular-35" x="138.999969"/>
      </g>
     </g>
    </g>
    <g id="xtick_3">
     <g id="line2d_3">
      <g>
       <use xlink:href="#m40065390e0" x="246.177966" y="291.08" style="fill: #9700ff; stroke: #9700ff; stroke-width: 0.8"/>
      </g>
     </g>
     <g id="text_3">
      <!-- 0.0 -->
      <g style="fill: #9700ff" transform="translate(229.402341 315.12) scale(0.24 -0.24)">
       <use xlink:href="#LabGrotesqueK-Regular-30"/>
       <use xlink:href="#LabGrotesqueK-Regular-2e" x="58.999985"/>
       <use xlink:href="#LabGrotesqueK-Regular-30" x="80.799973"/>
      </g>
     </g>
    </g>
    <g id="xtick_4">
     <g id="line2d_4">
      <g>
       <use xlink:href="#m40065390e0" x="332.029665" y="291.08" style="fill: #9700ff; stroke: #9700ff; stroke-width: 0.8"/>
      </g>
     </g>
     <g id="text_4">
      <!-- 2.5 -->
      <g style="fill: #9700ff" transform="translate(315.50529 315.12) scale(0.24 -0.24)">
       <use xlink:href="#LabGrotesqueK-Regular-32"/>
       <use xlink:href="#LabGrotesqueK-Regular-2e" x="57.199997"/>
       <use xlink:href="#LabGrotesqueK-Regular-35" x="78.999985"/>
      </g>
     </g>
    </g>
    <g id="xtick_5">
     <g id="line2d_5">
      <g>
       <use xlink:href="#m40065390e0" x="417.881364" y="291.08" style="fill: #9700ff; stroke: #9700ff; stroke-width: 0.8"/>
      </g>
     </g>
     <g id="text_5">
      <!-- 5.0 -->
      <g style="fill: #9700ff" transform="translate(401.141364 315.12) scale(0.24 -0.24)">
       <use xlink:href="#LabGrotesqueK-Regular-35"/>
       <use xlink:href="#LabGrotesqueK-Regular-2e" x="58.699997"/>
       <use xlink:href="#LabGrotesqueK-Regular-30" x="80.499985"/>
      </g>
     </g>
    </g>
   </g>
   <g id="matplotlib.axis_2">
    <g id="ytick_1">
     <g id="line2d_6">
      <defs>
       <path id="m5a97d37c7e" d="M 0 0 
L -3.5 0 
" style="stroke: #9700ff; stroke-width: 0.8"/>
      </defs>
      <g>
       <use xlink:href="#m5a97d37c7e" x="60.91" y="279.027273" style="fill: #9700ff; stroke: #9700ff; stroke-width: 0.8"/>
      </g>
     </g>
     <g id="text_6">
      <!-- 0 -->
      <g style="fill: #9700ff" transform="translate(39.75 287.547273) scale(0.24 -0.24)">
       <use xlink:href="#LabGrotesqueK-Regular-30"/>
      </g>
     </g>
    </g>
    <g id="ytick_2">
     <g id="line2d_7">
      <g>
       <use xlink:href="#m5a97d37c7e" x="60.91" y="182.605455" style="fill: #9700ff; stroke: #9700ff; stroke-width: 0.8"/>
      </g>
     </g>
     <g id="text_7">
      <!-- 10 -->
      <g style="fill: #9700ff" transform="translate(28.71 191.125455) scale(0.24 -0.24)">
       <defs>
        <path id="LabGrotesqueK-Regular-31" d="M 218 3507 
L 1555 4525 
L 1984 4525 
L 1984 0 
L 1421 0 
L 1421 3808 
L 499 3117 
L 218 3507 
z
" transform="scale(0.015625)"/>
       </defs>
       <use xlink:href="#LabGrotesqueK-Regular-31"/>
       <use xlink:href="#LabGrotesqueK-Regular-30" x="45.999985"/>
      </g>
     </g>
    </g>
    <g id="ytick_3">
     <g id="line2d_8">
      <g>
       <use xlink:href="#m5a97d37c7e" x="60.91" y="86.183636" style="fill: #9700ff; stroke: #9700ff; stroke-width: 0.8"/>
      </g>
     </g>
     <g id="text_8">
      <!-- 20 -->
      <g style="fill: #9700ff" transform="translate(26.02125 94.703636) scale(0.24 -0.24)">
       <use xlink:href="#LabGrotesqueK-Regular-32"/>
       <use xlink:href="#LabGrotesqueK-Regular-30" x="57.199997"/>
      </g>
     </g>
    </g>
   </g>
   <g id="line2d_9">
    <path d="M 77.908636 47.518487 
L 81.342704 56.871404 
L 84.776772 66.031476 
L 88.21084 74.998705 
L 91.644908 83.773091 
L 95.078976 92.354633 
L 98.513044 100.743331 
L 101.947112 108.939185 
L 105.38118 116.942196 
L 108.815248 124.752364 
L 112.249316 132.369687 
L 115.683384 139.794167 
L 119.117452 147.025804 
L 122.55152 154.064596 
L 125.985588 160.910545 
L 129.419656 167.563651 
L 132.853724 174.023913 
L 136.287792 180.291331 
L 139.72186 186.365905 
L 143.155927 192.247636 
L 146.589995 197.936524 
L 150.024063 203.432567 
L 153.458131 208.735767 
L 156.892199 213.846124 
L 160.326267 218.763636 
L 163.760335 223.488305 
L 167.194403 228.020131 
L 170.628471 232.359113 
L 174.062539 236.505251 
L 177.496607 240.458545 
L 180.930675 244.218996 
L 184.364743 247.786604 
L 187.798811 251.161367 
L 191.232879 254.343287 
L 194.666947 257.332364 
L 198.101015 260.128596 
L 201.535083 262.731985 
L 204.969151 265.142531 
L 208.403219 267.360233 
L 211.837287 269.385091 
L 215.271354 271.217105 
L 218.705422 272.856276 
L 222.13949 274.302604 
L 225.573558 275.556087 
L 229.007626 276.616727 
L 232.441694 277.484524 
L 235.875762 278.159476 
L 239.30983 278.641585 
L 242.743898 278.930851 
L 246.177966 279.027273 
L 249.612034 278.930851 
L 253.046102 278.641585 
L 256.48017 278.159476 
L 259.914238 277.484524 
L 263.348306 276.616727 
L 266.782374 275.556087 
L 270.216442 274.302604 
L 273.65051 272.856276 
L 277.084578 271.217105 
L 280.518646 269.385091 
L 283.952713 267.360233 
L 287.386781 265.142531 
L 290.820849 262.731985 
L 294.254917 260.128596 
L 297.688985 257.332364 
L 301.123053 254.343287 
L 304.557121 251.161367 
L 307.991189 247.786604 
L 311.425257 244.218996 
L 314.859325 240.458545 
L 318.293393 236.505251 
L 321.727461 232.359113 
L 325.161529 228.020131 
L 328.595597 223.488305 
L 332.029665 218.763636 
L 335.463733 213.846124 
L 338.897801 208.735767 
L 342.331869 203.432567 
L 345.765937 197.936524 
L 349.200005 192.247636 
L 352.634073 186.365905 
L 356.06814 180.291331 
L 359.502208 174.023913 
L 362.936276 167.563651 
L 366.370344 160.910545 
L 369.804412 154.064596 
L 373.23848 147.025804 
L 376.672548 139.794167 
L 380.106616 132.369687 
L 383.540684 124.752364 
L 386.974752 116.942196 
L 390.40882 108.939185 
L 393.842888 100.743331 
L 397.276956 92.354633 
L 400.711024 83.773091 
L 404.145092 74.998705 
L 407.57916 66.031476 
L 411.013228 56.871404 
L 414.447296 47.518487 
L 417.881364 37.972727 
" clip-path="url(#pe109299eb2)" style="fill: none; stroke-dasharray: 19.2,4.8,3,4.8; stroke-dashoffset: 0; stroke: #02fe00; stroke-width: 3"/>
   </g>
   <g id="line2d_10">
    <path d="M 383.540684 127.162909 
L 386.974752 118.484945 
L 390.40882 109.806982 
L 393.842888 101.129018 
L 397.276956 92.451055 
L 400.711024 83.773091 
L 404.145092 75.095127 
L 407.57916 66.417164 
L 411.013228 57.7392 
L 414.447296 49.061236 
" clip-path="url(#pe109299eb2)" style="fill: none; stroke: #ff007f; stroke-width: 4; stroke-linecap: square"/>
   </g>
   <g id="line2d_11">
    <path d="M 332.029665 221.174182 
L 335.463733 215.388873 
L 338.897801 209.603564 
L 342.331869 203.818255 
L 345.765937 198.032945 
L 349.200005 192.247636 
L 352.634073 186.462327 
L 356.06814 180.677018 
L 359.502208 174.891709 
L 362.936276 169.1064 
" clip-path="url(#pe109299eb2)" style="fill: none; stroke: #ff007f; stroke-width: 4; stroke-linecap: square"/>
   </g>
   <g id="line2d_12">
    <path d="M 160.326267 221.174182 
L 163.760335 225.031055 
L 167.194403 228.887927 
L 170.628471 232.7448 
L 174.062539 236.601673 
L 177.496607 240.458545 
L 180.930675 244.315418 
L 184.364743 248.172291 
L 187.798811 252.029164 
L 191.232879 255.886036 
" clip-path="url(#pe109299eb2)" style="fill: none; stroke: #ff007f; stroke-width: 4; stroke-linecap: square"/>
   </g>
   <g id="line2d_13">
    <path d="M 263.348306 279.027273 
L 266.782374 277.098836 
L 270.216442 275.1704 
L 273.65051 273.241964 
L 277.084578 271.313527 
L 280.518646 269.385091 
L 283.952713 267.456655 
L 287.386781 265.528218 
L 290.820849 263.599782 
L 294.254917 261.671345 
" clip-path="url(#pe109299eb2)" style="fill: none; stroke: #ff007f; stroke-width: 4; stroke-linecap: square"/>
   </g>
   <g id="line2d_14"/>
   <g id="line2d_15">
    <path d="M 400.711024 83.773091 
L 349.200005 192.247636 
" clip-path="url(#pe109299eb2)" style="fill: none; stroke-dasharray: 4,6.6; stroke-dashoffset: 0; stroke: #0082ff; stroke-opacity: 0.8; stroke-width: 4"/>
   </g>
   <g id="line2d_16">
    <path d="M 349.200005 192.247636 
L 177.496607 240.458545 
" clip-path="url(#pe109299eb2)" style="fill: none; stroke-dasharray: 4,6.6; stroke-dashoffset: 0; stroke: #0082ff; stroke-opacity: 0.8; stroke-width: 4"/>
   </g>
   <g id="line2d_17">
    <path d="M 177.496607 240.458545 
L 280.518646 269.385091 
" clip-path="url(#pe109299eb2)" style="fill: none; stroke-dasharray: 4,6.6; stroke-dashoffset: 0; stroke: #0082ff; stroke-opacity: 0.8; stroke-width: 4"/>
   </g>
   <g id="line2d_18">
    <path d="M 280.518646 269.385091 
L 246.177966 279.027273 
" clip-path="url(#pe109299eb2)" style="fill: none; stroke-dasharray: 4,6.6; stroke-dashoffset: 0; stroke: #0082ff; stroke-opacity: 0.8; stroke-width: 4"/>
   </g>
   <g id="patch_3">
    <path d="M 60.91 291.08 
L 60.91 25.92 
" style="fill: none; stroke: #9700ff; stroke-width: 5; stroke-linejoin: miter; stroke-linecap: square"/>
   </g>
   <g id="patch_4">
    <path d="M 434.88 291.08 
L 434.88 25.92 
" style="fill: none; stroke: #9700ff; stroke-width: 5; stroke-linejoin: miter; stroke-linecap: square"/>
   </g>
   <g id="patch_5">
    <path d="M 60.91 291.08 
L 434.88 291.08 
" style="fill: none; stroke: #9700ff; stroke-width: 5; stroke-linejoin: miter; stroke-linecap: square"/>
   </g>
   <g id="patch_6">
    <path d="M 60.91 25.92 
L 434.88 25.92 
" style="fill: none; stroke: #9700ff; stroke-width: 5; stroke-linejoin: miter; stroke-linecap: square"/>
   </g>
   <g id="PathCollection_1">
    <defs>
     <path id="m8fdca8548d" d="M 0 6.123724 
C 1.624031 6.123724 3.181764 5.47849 4.330127 4.330127 
C 5.47849 3.181764 6.123724 1.624031 6.123724 0 
C 6.123724 -1.624031 5.47849 -3.181764 4.330127 -4.330127 
C 3.181764 -5.47849 1.624031 -6.123724 0 -6.123724 
C -1.624031 -6.123724 -3.181764 -5.47849 -4.330127 -4.330127 
C -5.47849 -3.181764 -6.123724 -1.624031 -6.123724 0 
C -6.123724 1.624031 -5.47849 3.181764 -4.330127 4.330127 
C -3.181764 5.47849 -1.624031 6.123724 0 6.123724 
z
" style="stroke: #ff007f"/>
    </defs>
    <g clip-path="url(#pe109299eb2)">
     <use xlink:href="#m8fdca8548d" x="400.711024" y="83.773091" style="fill: #ff007f; stroke: #ff007f"/>
    </g>
   </g>
   <g id="PathCollection_2">
    <g clip-path="url(#pe109299eb2)">
     <use xlink:href="#m8fdca8548d" x="349.200005" y="192.247636" style="fill: #ff007f; stroke: #ff007f"/>
    </g>
   </g>
   <g id="PathCollection_3">
    <g clip-path="url(#pe109299eb2)">
     <use xlink:href="#m8fdca8548d" x="177.496607" y="240.458545" style="fill: #ff007f; stroke: #ff007f"/>
    </g>
   </g>
   <g id="PathCollection_4">
    <g clip-path="url(#pe109299eb2)">
     <use xlink:href="#m8fdca8548d" x="280.518646" y="269.385091" style="fill: #ff007f; stroke: #ff007f"/>
    </g>
   </g>
   <g id="PathCollection_5">
    <g clip-path="url(#pe109299eb2)">
     <use xlink:href="#m8fdca8548d" x="246.177966" y="279.027273" style="fill: #ff007f; stroke: #ff007f"/>
    </g>
   </g>
  </g>
 </g>
 <defs>
  <clipPath id="pe109299eb2">
   <rect x="60.91" y="25.92" width="373.97" height="265.16"/>
  </clipPath>
 </defs>
</svg>
