<?xml version="1.0" encoding="UTF-8" standalone="no"?>
<!DOCTYPE svg PUBLIC "-//W3C//DTD SVG 1.1//EN"
 "http://www.w3.org/Graphics/SVG/1.1/DTD/svg11.dtd">
<!-- Generated by graphviz version 2.43.0 (0)
 -->
<!-- Title: %3 Pages: 1 -->
<svg width="1343pt" height="326pt"
 viewBox="0.00 0.00 1343.00 326.00" xmlns="http://www.w3.org/2000/svg" xmlns:xlink="http://www.w3.org/1999/xlink">
<g id="graph0" class="graph" transform="scale(1 1) rotate(0) translate(4 322)">
<title>%3</title>
<!-- 136121544928784 -->
<g id="node1" class="node">
<title>136121544928784</title>
<polygon fill="none" stroke="#9700ff" stroke-width="3" points="1254,-119.5 1254,-197.5 1335,-197.5 1335,-119.5 1254,-119.5"/>
<text text-anchor="middle" x="1294.5" y="-180.7" font-family="Lab Grotesque K" font-size="16.00" fill="#ff007f">L</text>
<polyline fill="none" stroke="#9700ff" stroke-width="3" points="1254,-171.5 1335,-171.5 "/>
<text text-anchor="middle" x="1294.5" y="-154.7" font-family="Lab Grotesque K" font-size="16.00" fill="#ff007f">data 48.1</text>
<polyline fill="none" stroke="#9700ff" stroke-width="3" points="1254,-145.5 1335,-145.5 "/>
<text text-anchor="middle" x="1294.5" y="-128.7" font-family="Lab Grotesque K" font-size="16.00" fill="#ff007f">grad 1</text>
</g>
<!-- 136121544928784+ -->
<g id="node2" class="node">
<title>136121544928784+</title>
<ellipse fill="none" stroke="#9700ff" stroke-width="3" cx="1191" cy="-158.5" rx="27" ry="18.27"/>
<text text-anchor="middle" x="1191" y="-154.7" font-family="Lab Grotesque K" font-size="16.00" fill="#ff007f">+</text>
</g>
<!-- 136121544928784+&#45;&gt;136121544928784 -->
<g id="edge1" class="edge">
<title>136121544928784+&#45;&gt;136121544928784</title>
<path fill="none" stroke="#9700ff" stroke-width="3" d="M1218.14,-158.5C1225.91,-158.5 1234.69,-158.5 1243.45,-158.5"/>
<polygon fill="#9700ff" stroke="#9700ff" stroke-width="3" points="1243.65,-162 1253.65,-158.5 1243.65,-155 1243.65,-162"/>
</g>
<!-- 136121544801312 -->
<g id="node3" class="node">
<title>136121544801312</title>
<polygon fill="none" stroke="#9700ff" stroke-width="3" points="430.5,-71.5 430.5,-149.5 528.5,-149.5 528.5,-71.5 430.5,-71.5"/>
<text text-anchor="middle" x="479.5" y="-132.7" font-family="Lab Grotesque K" font-size="16.00" fill="#ff007f">(a * 0.5 + b)</text>
<polyline fill="none" stroke="#9700ff" stroke-width="3" points="430.5,-123.5 528.5,-123.5 "/>
<text text-anchor="middle" x="479.5" y="-106.7" font-family="Lab Grotesque K" font-size="16.00" fill="#ff007f">data 6.0</text>
<polyline fill="none" stroke="#9700ff" stroke-width="3" points="430.5,-97.5 528.5,-97.5 "/>
<text text-anchor="middle" x="479.5" y="-80.7" font-family="Lab Grotesque K" font-size="16.00" fill="#ff007f">grad 10.27</text>
</g>
<!-- 136121544799152&#45; -->
<g id="node21" class="node">
<title>136121544799152&#45;</title>
<ellipse fill="none" stroke="#9700ff" stroke-width="3" cx="596" cy="-110.5" rx="27" ry="18.27"/>
<text text-anchor="middle" x="596" y="-106.7" font-family="Lab Grotesque K" font-size="16.00" fill="#ff007f">&#45;</text>
</g>
<!-- 136121544801312&#45;&gt;136121544799152&#45; -->
<g id="edge17" class="edge">
<title>136121544801312&#45;&gt;136121544799152&#45;</title>
<path fill="none" stroke="#9700ff" stroke-width="3" d="M528.73,-110.5C538.76,-110.5 549.18,-110.5 558.7,-110.5"/>
<polygon fill="#9700ff" stroke="#9700ff" stroke-width="3" points="558.99,-114 568.99,-110.5 558.99,-107 558.99,-114"/>
</g>
<!-- 136121544801312+ -->
<g id="node4" class="node">
<title>136121544801312+</title>
<ellipse fill="none" stroke="#9700ff" stroke-width="3" cx="363" cy="-110.5" rx="27" ry="18.27"/>
<text text-anchor="middle" x="363" y="-106.7" font-family="Lab Grotesque K" font-size="16.00" fill="#ff007f">+</text>
</g>
<!-- 136121544801312+&#45;&gt;136121544801312 -->
<g id="edge2" class="edge">
<title>136121544801312+&#45;&gt;136121544801312</title>
<path fill="none" stroke="#9700ff" stroke-width="3" d="M390.27,-110.5C399.27,-110.5 409.74,-110.5 420.26,-110.5"/>
<polygon fill="#9700ff" stroke="#9700ff" stroke-width="3" points="420.31,-114 430.31,-110.5 420.31,-107 420.31,-114"/>
</g>
<!-- 136121544789024 -->
<g id="node5" class="node">
<title>136121544789024</title>
<polygon fill="none" stroke="#9700ff" stroke-width="3" points="210,-23.5 210,-101.5 299,-101.5 299,-23.5 210,-23.5"/>
<text text-anchor="middle" x="254.5" y="-84.7" font-family="Lab Grotesque K" font-size="16.00" fill="#ff007f">a * 0.5</text>
<polyline fill="none" stroke="#9700ff" stroke-width="3" points="210,-75.5 299,-75.5 "/>
<text text-anchor="middle" x="254.5" y="-58.7" font-family="Lab Grotesque K" font-size="16.00" fill="#ff007f">data 2.0</text>
<polyline fill="none" stroke="#9700ff" stroke-width="3" points="210,-49.5 299,-49.5 "/>
<text text-anchor="middle" x="254.5" y="-32.7" font-family="Lab Grotesque K" font-size="16.00" fill="#ff007f">grad 10.27</text>
</g>
<!-- 136121544789024&#45;&gt;136121544801312+ -->
<g id="edge16" class="edge">
<title>136121544789024&#45;&gt;136121544801312+</title>
<path fill="none" stroke="#9700ff" stroke-width="3" d="M299.12,-82.16C309.72,-86.94 320.85,-91.95 330.74,-96.41"/>
<polygon fill="#9700ff" stroke="#9700ff" stroke-width="3" points="329.61,-99.74 340.16,-100.66 332.49,-93.36 329.61,-99.74"/>
</g>
<!-- 136121544789024* -->
<g id="node6" class="node">
<title>136121544789024*</title>
<ellipse fill="none" stroke="#9700ff" stroke-width="3" cx="146" cy="-65.5" rx="27" ry="18.27"/>
<text text-anchor="middle" x="146" y="-61.7" font-family="Lab Grotesque K" font-size="16.00" fill="#ff007f">*</text>
</g>
<!-- 136121544789024*&#45;&gt;136121544789024 -->
<g id="edge3" class="edge">
<title>136121544789024*&#45;&gt;136121544789024</title>
<path fill="none" stroke="#9700ff" stroke-width="3" d="M173.05,-64.77C181.19,-64.54 190.49,-64.27 199.81,-64.01"/>
<polygon fill="#9700ff" stroke="#9700ff" stroke-width="3" points="199.98,-67.51 209.87,-63.73 199.78,-60.51 199.98,-67.51"/>
</g>
<!-- 136121544932912 -->
<g id="node7" class="node">
<title>136121544932912</title>
<polygon fill="none" stroke="#9700ff" stroke-width="3" points="938,-168.5 938,-246.5 1128,-246.5 1128,-168.5 938,-168.5"/>
<text text-anchor="middle" x="1033" y="-229.7" font-family="Lab Grotesque K" font-size="16.00" fill="#ff007f">(0.34 &#45; (a * 0.25 + b)) ^ 2</text>
<polyline fill="none" stroke="#9700ff" stroke-width="3" points="938,-220.5 1128,-220.5 "/>
<text text-anchor="middle" x="1033" y="-203.7" font-family="Lab Grotesque K" font-size="16.00" fill="#ff007f">data 21.72</text>
<polyline fill="none" stroke="#9700ff" stroke-width="3" points="938,-194.5 1128,-194.5 "/>
<text text-anchor="middle" x="1033" y="-177.7" font-family="Lab Grotesque K" font-size="16.00" fill="#ff007f">grad 1</text>
</g>
<!-- 136121544932912&#45;&gt;136121544928784+ -->
<g id="edge18" class="edge">
<title>136121544932912&#45;&gt;136121544928784+</title>
<path fill="none" stroke="#9700ff" stroke-width="3" d="M1128.34,-177.87C1138.29,-174.74 1147.86,-171.74 1156.38,-169.06"/>
<polygon fill="#9700ff" stroke="#9700ff" stroke-width="3" points="1157.7,-172.31 1166.2,-165.98 1155.61,-165.63 1157.7,-172.31"/>
</g>
<!-- 136121544932912^2 -->
<g id="node8" class="node">
<title>136121544932912^2</title>
<ellipse fill="none" stroke="#9700ff" stroke-width="3" cx="875" cy="-207.5" rx="27" ry="18.27"/>
<text text-anchor="middle" x="875" y="-203.7" font-family="Lab Grotesque K" font-size="16.00" fill="#ff007f">^2</text>
</g>
<!-- 136121544932912^2&#45;&gt;136121544932912 -->
<g id="edge4" class="edge">
<title>136121544932912^2&#45;&gt;136121544932912</title>
<path fill="none" stroke="#9700ff" stroke-width="3" d="M902.11,-207.5C909.63,-207.5 918.32,-207.5 927.58,-207.5"/>
<polygon fill="#9700ff" stroke="#9700ff" stroke-width="3" points="927.81,-211 937.81,-207.5 927.81,-204 927.81,-211"/>
</g>
<!-- 136121544799344 -->
<g id="node9" class="node">
<title>136121544799344</title>
<polygon fill="none" stroke="#9700ff" stroke-width="3" points="213,-217.5 213,-295.5 296,-295.5 296,-217.5 213,-217.5"/>
<text text-anchor="middle" x="254.5" y="-278.7" font-family="Lab Grotesque K" font-size="16.00" fill="#ff007f">a * 0.25</text>
<polyline fill="none" stroke="#9700ff" stroke-width="3" points="213,-269.5 296,-269.5 "/>
<text text-anchor="middle" x="254.5" y="-252.7" font-family="Lab Grotesque K" font-size="16.00" fill="#ff007f">data 1.0</text>
<polyline fill="none" stroke="#9700ff" stroke-width="3" points="213,-243.5 296,-243.5 "/>
<text text-anchor="middle" x="254.5" y="-226.7" font-family="Lab Grotesque K" font-size="16.00" fill="#ff007f">grad 9.32</text>
</g>
<!-- 136121544790464+ -->
<g id="node23" class="node">
<title>136121544790464+</title>
<ellipse fill="none" stroke="#9700ff" stroke-width="3" cx="363" cy="-207.5" rx="27" ry="18.27"/>
<text text-anchor="middle" x="363" y="-203.7" font-family="Lab Grotesque K" font-size="16.00" fill="#ff007f">+</text>
</g>
<!-- 136121544799344&#45;&gt;136121544790464+ -->
<g id="edge23" class="edge">
<title>136121544799344&#45;&gt;136121544790464+</title>
<path fill="none" stroke="#9700ff" stroke-width="3" d="M296.07,-237.84C307.61,-232.52 320.01,-226.82 330.9,-221.81"/>
<polygon fill="#9700ff" stroke="#9700ff" stroke-width="3" points="332.4,-224.97 340.02,-217.61 329.47,-218.61 332.4,-224.97"/>
</g>
<!-- 136121544799344* -->
<g id="node10" class="node">
<title>136121544799344*</title>
<ellipse fill="none" stroke="#9700ff" stroke-width="3" cx="146" cy="-252.5" rx="27" ry="18.27"/>
<text text-anchor="middle" x="146" y="-248.7" font-family="Lab Grotesque K" font-size="16.00" fill="#ff007f">*</text>
</g>
<!-- 136121544799344*&#45;&gt;136121544799344 -->
<g id="edge5" class="edge">
<title>136121544799344*&#45;&gt;136121544799344</title>
<path fill="none" stroke="#9700ff" stroke-width="3" d="M173.05,-253.48C182.01,-253.82 192.38,-254.2 202.62,-254.59"/>
<polygon fill="#9700ff" stroke="#9700ff" stroke-width="3" points="202.65,-258.09 212.78,-254.97 202.91,-251.1 202.65,-258.09"/>
</g>
<!-- 136121544917120 -->
<g id="node11" class="node">
<title>136121544917120</title>
<polygon fill="none" stroke="#9700ff" stroke-width="3" points="942,-71.5 942,-149.5 1124,-149.5 1124,-71.5 942,-71.5"/>
<text text-anchor="middle" x="1033" y="-132.7" font-family="Lab Grotesque K" font-size="16.00" fill="#ff007f">(0.86 &#45; (a * 0.5 + b)) ^ 2</text>
<polyline fill="none" stroke="#9700ff" stroke-width="3" points="942,-123.5 1124,-123.5 "/>
<text text-anchor="middle" x="1033" y="-106.7" font-family="Lab Grotesque K" font-size="16.00" fill="#ff007f">data 26.38</text>
<polyline fill="none" stroke="#9700ff" stroke-width="3" points="942,-97.5 1124,-97.5 "/>
<text text-anchor="middle" x="1033" y="-80.7" font-family="Lab Grotesque K" font-size="16.00" fill="#ff007f">grad 1</text>
</g>
<!-- 136121544917120&#45;&gt;136121544928784+ -->
<g id="edge10" class="edge">
<title>136121544917120&#45;&gt;136121544928784+</title>
<path fill="none" stroke="#9700ff" stroke-width="3" d="M1124.29,-138.28C1135.58,-141.75 1146.51,-145.12 1156.11,-148.07"/>
<polygon fill="#9700ff" stroke="#9700ff" stroke-width="3" points="1155.37,-151.51 1165.96,-151.1 1157.43,-144.82 1155.37,-151.51"/>
</g>
<!-- 136121544917120^2 -->
<g id="node12" class="node">
<title>136121544917120^2</title>
<ellipse fill="none" stroke="#9700ff" stroke-width="3" cx="875" cy="-110.5" rx="27" ry="18.27"/>
<text text-anchor="middle" x="875" y="-106.7" font-family="Lab Grotesque K" font-size="16.00" fill="#ff007f">^2</text>
</g>
<!-- 136121544917120^2&#45;&gt;136121544917120 -->
<g id="edge6" class="edge">
<title>136121544917120^2&#45;&gt;136121544917120</title>
<path fill="none" stroke="#9700ff" stroke-width="3" d="M902.11,-110.5C910.74,-110.5 920.93,-110.5 931.74,-110.5"/>
<polygon fill="#9700ff" stroke="#9700ff" stroke-width="3" points="931.81,-114 941.81,-110.5 931.81,-107 931.81,-114"/>
</g>
<!-- 136121555199104 -->
<g id="node13" class="node">
<title>136121555199104</title>
<polygon fill="none" stroke="#9700ff" stroke-width="3" points="0,-226.5 0,-278.5 83,-278.5 83,-226.5 0,-226.5"/>
<text text-anchor="middle" x="41.5" y="-261.7" font-family="Lab Grotesque K" font-size="16.00" fill="#ff007f">0.25</text>
<polyline fill="none" stroke="#9700ff" stroke-width="3" points="0,-252.5 83,-252.5 "/>
<text text-anchor="middle" x="41.5" y="-235.7" font-family="Lab Grotesque K" font-size="16.00" fill="#ff007f">data 0.25</text>
</g>
<!-- 136121555199104&#45;&gt;136121544799344* -->
<g id="edge12" class="edge">
<title>136121555199104&#45;&gt;136121544799344*</title>
<path fill="none" stroke="#9700ff" stroke-width="3" d="M83.01,-252.5C91.51,-252.5 100.42,-252.5 108.75,-252.5"/>
<polygon fill="#9700ff" stroke="#9700ff" stroke-width="3" points="108.92,-256 118.92,-252.5 108.92,-249 108.92,-256"/>
</g>
<!-- 136121544791712 -->
<g id="node14" class="node">
<title>136121544791712</title>
<polygon fill="none" stroke="#9700ff" stroke-width="3" points="437.5,-0.5 437.5,-52.5 521.5,-52.5 521.5,-0.5 437.5,-0.5"/>
<text text-anchor="middle" x="479.5" y="-35.7" font-family="Lab Grotesque K" font-size="16.00" fill="#ff007f">0.86</text>
<polyline fill="none" stroke="#9700ff" stroke-width="3" points="437.5,-26.5 521.5,-26.5 "/>
<text text-anchor="middle" x="479.5" y="-9.7" font-family="Lab Grotesque K" font-size="16.00" fill="#ff007f">data 0.86</text>
</g>
<!-- 136121544791712&#45;&gt;136121544799152&#45; -->
<g id="edge21" class="edge">
<title>136121544791712&#45;&gt;136121544799152&#45;</title>
<path fill="none" stroke="#9700ff" stroke-width="3" d="M519.1,-52.59C523.81,-55.89 528.53,-59.24 533,-62.5 545.27,-71.45 558.62,-81.71 569.78,-90.45"/>
<polygon fill="#9700ff" stroke="#9700ff" stroke-width="3" points="567.81,-93.35 577.83,-96.78 572.14,-87.85 567.81,-93.35"/>
</g>
<!-- 136121544788640 -->
<g id="node15" class="node">
<title>136121544788640</title>
<polygon fill="none" stroke="#9700ff" stroke-width="3" points="438,-265.5 438,-317.5 521,-317.5 521,-265.5 438,-265.5"/>
<text text-anchor="middle" x="479.5" y="-300.7" font-family="Lab Grotesque K" font-size="16.00" fill="#ff007f">0.34</text>
<polyline fill="none" stroke="#9700ff" stroke-width="3" points="438,-291.5 521,-291.5 "/>
<text text-anchor="middle" x="479.5" y="-274.7" font-family="Lab Grotesque K" font-size="16.00" fill="#ff007f">data 0.34</text>
</g>
<!-- 136122634021120&#45; -->
<g id="node18" class="node">
<title>136122634021120&#45;</title>
<ellipse fill="none" stroke="#9700ff" stroke-width="3" cx="596" cy="-207.5" rx="27" ry="18.27"/>
<text text-anchor="middle" x="596" y="-203.7" font-family="Lab Grotesque K" font-size="16.00" fill="#ff007f">&#45;</text>
</g>
<!-- 136121544788640&#45;&gt;136122634021120&#45; -->
<g id="edge20" class="edge">
<title>136121544788640&#45;&gt;136122634021120&#45;</title>
<path fill="none" stroke="#9700ff" stroke-width="3" d="M520.29,-265.46C524.62,-262.49 528.92,-259.46 533,-256.5 545.47,-247.44 558.94,-236.89 570.12,-227.91"/>
<polygon fill="#9700ff" stroke="#9700ff" stroke-width="3" points="572.6,-230.4 578.18,-221.4 568.2,-224.96 572.6,-230.4"/>
</g>
<!-- 136122633377536 -->
<g id="node16" class="node">
<title>136122633377536</title>
<polygon fill="none" stroke="#9700ff" stroke-width="3" points="209,-120.5 209,-198.5 300,-198.5 300,-120.5 209,-120.5"/>
<text text-anchor="middle" x="254.5" y="-181.7" font-family="Lab Grotesque K" font-size="16.00" fill="#ff007f">b</text>
<polyline fill="none" stroke="#9700ff" stroke-width="3" points="209,-172.5 300,-172.5 "/>
<text text-anchor="middle" x="254.5" y="-155.7" font-family="Lab Grotesque K" font-size="16.00" fill="#ff007f">data 4.0</text>
<polyline fill="none" stroke="#9700ff" stroke-width="3" points="209,-146.5 300,-146.5 "/>
<text text-anchor="middle" x="254.5" y="-129.7" font-family="Lab Grotesque K" font-size="16.00" fill="#ff007f">grad 19.59</text>
</g>
<!-- 136122633377536&#45;&gt;136121544801312+ -->
<g id="edge25" class="edge">
<title>136122633377536&#45;&gt;136121544801312+</title>
<path fill="none" stroke="#9700ff" stroke-width="3" d="M300.05,-139C310.48,-134.2 321.37,-129.19 331.05,-124.74"/>
<polygon fill="#9700ff" stroke="#9700ff" stroke-width="3" points="332.66,-127.85 340.28,-120.49 329.73,-121.49 332.66,-127.85"/>
</g>
<!-- 136122633377536&#45;&gt;136121544790464+ -->
<g id="edge11" class="edge">
<title>136122633377536&#45;&gt;136121544790464+</title>
<path fill="none" stroke="#9700ff" stroke-width="3" d="M300.05,-179.58C310.39,-184.24 321.19,-189.11 330.82,-193.45"/>
<polygon fill="#9700ff" stroke="#9700ff" stroke-width="3" points="329.44,-196.66 339.99,-197.58 332.32,-190.28 329.44,-196.66"/>
</g>
<!-- 136122634021120 -->
<g id="node17" class="node">
<title>136122634021120</title>
<polygon fill="none" stroke="#9700ff" stroke-width="3" points="659,-168.5 659,-246.5 812,-246.5 812,-168.5 659,-168.5"/>
<text text-anchor="middle" x="735.5" y="-229.7" font-family="Lab Grotesque K" font-size="16.00" fill="#ff007f">0.34 &#45; (a * 0.25 + b)</text>
<polyline fill="none" stroke="#9700ff" stroke-width="3" points="659,-220.5 812,-220.5 "/>
<text text-anchor="middle" x="735.5" y="-203.7" font-family="Lab Grotesque K" font-size="16.00" fill="#ff007f">data &#45;4.66</text>
<polyline fill="none" stroke="#9700ff" stroke-width="3" points="659,-194.5 812,-194.5 "/>
<text text-anchor="middle" x="735.5" y="-177.7" font-family="Lab Grotesque K" font-size="16.00" fill="#ff007f">grad &#45;9.32</text>
</g>
<!-- 136122634021120&#45;&gt;136121544932912^2 -->
<g id="edge19" class="edge">
<title>136122634021120&#45;&gt;136121544932912^2</title>
<path fill="none" stroke="#9700ff" stroke-width="3" d="M812.09,-207.5C821.03,-207.5 829.81,-207.5 837.82,-207.5"/>
<polygon fill="#9700ff" stroke="#9700ff" stroke-width="3" points="837.87,-211 847.87,-207.5 837.87,-204 837.87,-211"/>
</g>
<!-- 136122634021120&#45;&#45;&gt;136122634021120 -->
<g id="edge7" class="edge">
<title>136122634021120&#45;&#45;&gt;136122634021120</title>
<path fill="none" stroke="#9700ff" stroke-width="3" d="M623.19,-207.5C630.8,-207.5 639.55,-207.5 648.74,-207.5"/>
<polygon fill="#9700ff" stroke="#9700ff" stroke-width="3" points="648.85,-211 658.85,-207.5 648.85,-204 648.85,-211"/>
</g>
<!-- 136121555499872 -->
<g id="node19" class="node">
<title>136121555499872</title>
<polygon fill="none" stroke="#9700ff" stroke-width="3" points="2,-123.5 2,-201.5 81,-201.5 81,-123.5 2,-123.5"/>
<text text-anchor="middle" x="41.5" y="-184.7" font-family="Lab Grotesque K" font-size="16.00" fill="#ff007f">a</text>
<polyline fill="none" stroke="#9700ff" stroke-width="3" points="2,-175.5 81,-175.5 "/>
<text text-anchor="middle" x="41.5" y="-158.7" font-family="Lab Grotesque K" font-size="16.00" fill="#ff007f">data 4.0</text>
<polyline fill="none" stroke="#9700ff" stroke-width="3" points="2,-149.5 81,-149.5 "/>
<text text-anchor="middle" x="41.5" y="-132.7" font-family="Lab Grotesque K" font-size="16.00" fill="#ff007f">grad 7.47</text>
</g>
<!-- 136121555499872&#45;&gt;136121544789024* -->
<g id="edge24" class="edge">
<title>136121555499872&#45;&gt;136121544789024*</title>
<path fill="none" stroke="#9700ff" stroke-width="3" d="M81.25,-125.83C95.02,-112.8 110.06,-98.56 122.08,-87.19"/>
<polygon fill="#9700ff" stroke="#9700ff" stroke-width="3" points="124.64,-89.59 129.5,-80.17 119.83,-84.5 124.64,-89.59"/>
</g>
<!-- 136121555499872&#45;&gt;136121544799344* -->
<g id="edge13" class="edge">
<title>136121555499872&#45;&gt;136121544799344*</title>
<path fill="none" stroke="#9700ff" stroke-width="3" d="M81.25,-196.53C94.61,-208.25 109.17,-221.04 121,-231.43"/>
<polygon fill="#9700ff" stroke="#9700ff" stroke-width="3" points="118.89,-234.23 128.71,-238.2 123.51,-228.97 118.89,-234.23"/>
</g>
<!-- 136121544799152 -->
<g id="node20" class="node">
<title>136121544799152</title>
<polygon fill="none" stroke="#9700ff" stroke-width="3" points="663,-71.5 663,-149.5 808,-149.5 808,-71.5 663,-71.5"/>
<text text-anchor="middle" x="735.5" y="-132.7" font-family="Lab Grotesque K" font-size="16.00" fill="#ff007f">0.86 &#45; (a * 0.5 + b)</text>
<polyline fill="none" stroke="#9700ff" stroke-width="3" points="663,-123.5 808,-123.5 "/>
<text text-anchor="middle" x="735.5" y="-106.7" font-family="Lab Grotesque K" font-size="16.00" fill="#ff007f">data &#45;5.14</text>
<polyline fill="none" stroke="#9700ff" stroke-width="3" points="663,-97.5 808,-97.5 "/>
<text text-anchor="middle" x="735.5" y="-80.7" font-family="Lab Grotesque K" font-size="16.00" fill="#ff007f">grad &#45;10.27</text>
</g>
<!-- 136121544799152&#45;&gt;136121544917120^2 -->
<g id="edge15" class="edge">
<title>136121544799152&#45;&gt;136121544917120^2</title>
<path fill="none" stroke="#9700ff" stroke-width="3" d="M808.07,-110.5C818.29,-110.5 828.43,-110.5 837.59,-110.5"/>
<polygon fill="#9700ff" stroke="#9700ff" stroke-width="3" points="837.82,-114 847.82,-110.5 837.82,-107 837.82,-114"/>
</g>
<!-- 136121544799152&#45;&#45;&gt;136121544799152 -->
<g id="edge8" class="edge">
<title>136121544799152&#45;&#45;&gt;136121544799152</title>
<path fill="none" stroke="#9700ff" stroke-width="3" d="M623.19,-110.5C631.87,-110.5 642.04,-110.5 652.64,-110.5"/>
<polygon fill="#9700ff" stroke="#9700ff" stroke-width="3" points="652.91,-114 662.91,-110.5 652.91,-107 652.91,-114"/>
</g>
<!-- 136121544790464 -->
<g id="node22" class="node">
<title>136121544790464</title>
<polygon fill="none" stroke="#9700ff" stroke-width="3" points="426,-168.5 426,-246.5 533,-246.5 533,-168.5 426,-168.5"/>
<text text-anchor="middle" x="479.5" y="-229.7" font-family="Lab Grotesque K" font-size="16.00" fill="#ff007f">(a * 0.25 + b)</text>
<polyline fill="none" stroke="#9700ff" stroke-width="3" points="426,-220.5 533,-220.5 "/>
<text text-anchor="middle" x="479.5" y="-203.7" font-family="Lab Grotesque K" font-size="16.00" fill="#ff007f">data 5.0</text>
<polyline fill="none" stroke="#9700ff" stroke-width="3" points="426,-194.5 533,-194.5 "/>
<text text-anchor="middle" x="479.5" y="-177.7" font-family="Lab Grotesque K" font-size="16.00" fill="#ff007f">grad 9.32</text>
</g>
<!-- 136121544790464&#45;&gt;136122634021120&#45; -->
<g id="edge22" class="edge">
<title>136121544790464&#45;&gt;136122634021120&#45;</title>
<path fill="none" stroke="#9700ff" stroke-width="3" d="M533.06,-207.5C541.72,-207.5 550.53,-207.5 558.69,-207.5"/>
<polygon fill="#9700ff" stroke="#9700ff" stroke-width="3" points="558.96,-211 568.96,-207.5 558.96,-204 558.96,-211"/>
</g>
<!-- 136121544790464+&#45;&gt;136121544790464 -->
<g id="edge9" class="edge">
<title>136121544790464+&#45;&gt;136121544790464</title>
<path fill="none" stroke="#9700ff" stroke-width="3" d="M390.27,-207.5C397.94,-207.5 406.68,-207.5 415.61,-207.5"/>
<polygon fill="#9700ff" stroke="#9700ff" stroke-width="3" points="415.71,-211 425.71,-207.5 415.71,-204 415.71,-211"/>
</g>
<!-- 136121544801744 -->
<g id="node24" class="node">
<title>136121544801744</title>
<polygon fill="none" stroke="#9700ff" stroke-width="3" points="4.5,-39.5 4.5,-91.5 78.5,-91.5 78.5,-39.5 4.5,-39.5"/>
<text text-anchor="middle" x="41.5" y="-74.7" font-family="Lab Grotesque K" font-size="16.00" fill="#ff007f">0.5</text>
<polyline fill="none" stroke="#9700ff" stroke-width="3" points="4.5,-65.5 78.5,-65.5 "/>
<text text-anchor="middle" x="41.5" y="-48.7" font-family="Lab Grotesque K" font-size="16.00" fill="#ff007f">data 0.5</text>
</g>
<!-- 136121544801744&#45;&gt;136121544789024* -->
<g id="edge14" class="edge">
<title>136121544801744&#45;&gt;136121544789024*</title>
<path fill="none" stroke="#9700ff" stroke-width="3" d="M78.64,-65.5C88.37,-65.5 98.91,-65.5 108.65,-65.5"/>
<polygon fill="#9700ff" stroke="#9700ff" stroke-width="3" points="108.85,-69 118.85,-65.5 108.85,-62 108.85,-69"/>
</g>
</g>
</svg>
