<?xml version="1.0" encoding="UTF-8" standalone="no"?>
<!DOCTYPE svg PUBLIC "-//W3C//DTD SVG 1.1//EN"
 "http://www.w3.org/Graphics/SVG/1.1/DTD/svg11.dtd">
<!-- Generated by graphviz version 2.43.0 (0)
 -->
<!-- Title: %3 Pages: 1 -->
<svg width="1197pt" height="938pt"
 viewBox="0.00 0.00 1197.22 938.46" xmlns="http://www.w3.org/2000/svg" xmlns:xlink="http://www.w3.org/1999/xlink">
<g id="graph0" class="graph" transform="scale(1 1) rotate(0) translate(4 934.46)">
<title>%3</title>
<!-- 136121544928784 -->
<g id="node1" class="node">
<title>136121544928784</title>
<polygon fill="none" stroke="#9700ff" stroke-width="3" points="0,-121.52 0,-199.52 81,-199.52 81,-121.52 0,-121.52"/>
<text text-anchor="middle" x="40.5" y="-182.72" font-family="Lab Grotesque K" font-size="16.00" fill="#ff007f">L</text>
<polyline fill="none" stroke="#9700ff" stroke-width="3" points="0,-173.52 81,-173.52 "/>
<text text-anchor="middle" x="40.5" y="-156.72" font-family="Lab Grotesque K" font-size="16.00" fill="#ff007f">data 48.1</text>
<polyline fill="none" stroke="#9700ff" stroke-width="3" points="0,-147.52 81,-147.52 "/>
<text text-anchor="middle" x="40.5" y="-130.72" font-family="Lab Grotesque K" font-size="16.00" fill="#ff007f">grad 1</text>
</g>
<!-- 136121544928784+ -->
<g id="node2" class="node">
<title>136121544928784+</title>
<ellipse fill="none" stroke="#9700ff" stroke-width="3" cx="158.82" cy="-225.43" rx="27" ry="18.27"/>
<text text-anchor="middle" x="158.82" y="-221.63" font-family="Lab Grotesque K" font-size="16.00" fill="#ff007f">+</text>
</g>
<!-- 136121544928784+&#45;&gt;136121544928784 -->
<g id="edge1" class="edge">
<title>136121544928784+&#45;&gt;136121544928784</title>
<path fill="none" stroke="#9700ff" stroke-width="3" d="M137.67,-213.83C124.43,-206.57 106.79,-196.89 90.18,-187.77"/>
<polygon fill="#9700ff" stroke="#9700ff" stroke-width="3" points="91.54,-184.53 81.09,-182.79 88.17,-190.67 91.54,-184.53"/>
</g>
<!-- 136121544801312 -->
<g id="node3" class="node">
<title>136121544801312</title>
<polygon fill="none" stroke="#9700ff" stroke-width="3" points="456.19,-651.47 456.19,-729.47 554.19,-729.47 554.19,-651.47 456.19,-651.47"/>
<text text-anchor="middle" x="505.19" y="-712.67" font-family="Lab Grotesque K" font-size="16.00" fill="#ff007f">(a * 0.5 + b)</text>
<polyline fill="none" stroke="#9700ff" stroke-width="3" points="456.19,-703.47 554.19,-703.47 "/>
<text text-anchor="middle" x="505.19" y="-686.67" font-family="Lab Grotesque K" font-size="16.00" fill="#ff007f">data 6.0</text>
<polyline fill="none" stroke="#9700ff" stroke-width="3" points="456.19,-677.47 554.19,-677.47 "/>
<text text-anchor="middle" x="505.19" y="-660.67" font-family="Lab Grotesque K" font-size="16.00" fill="#ff007f">grad 10.27</text>
</g>
<!-- 136121544799152&#45; -->
<g id="node21" class="node">
<title>136121544799152&#45;</title>
<ellipse fill="none" stroke="#9700ff" stroke-width="3" cx="363.81" cy="-694.8" rx="27" ry="18.27"/>
<text text-anchor="middle" x="363.81" y="-691" font-family="Lab Grotesque K" font-size="16.00" fill="#ff007f">&#45;</text>
</g>
<!-- 136121544801312&#45;&gt;136121544799152&#45; -->
<g id="edge17" class="edge">
<title>136121544801312&#45;&gt;136121544799152&#45;</title>
<path fill="none" stroke="#9700ff" stroke-width="3" d="M456.14,-691.97C438.04,-692.53 417.85,-693.14 400.98,-693.66"/>
<polygon fill="#9700ff" stroke="#9700ff" stroke-width="3" points="400.84,-690.16 390.95,-693.97 401.05,-697.16 400.84,-690.16"/>
</g>
<!-- 136121544801312+ -->
<g id="node4" class="node">
<title>136121544801312+</title>
<ellipse fill="none" stroke="#9700ff" stroke-width="3" cx="642.33" cy="-653.12" rx="27" ry="18.27"/>
<text text-anchor="middle" x="642.33" y="-649.32" font-family="Lab Grotesque K" font-size="16.00" fill="#ff007f">+</text>
</g>
<!-- 136121544801312+&#45;&gt;136121544801312 -->
<g id="edge2" class="edge">
<title>136121544801312+&#45;&gt;136121544801312</title>
<path fill="none" stroke="#9700ff" stroke-width="3" d="M617.18,-659.97C602.3,-664.02 582.79,-669.34 564.23,-674.39"/>
<polygon fill="#9700ff" stroke="#9700ff" stroke-width="3" points="563.07,-671.08 554.34,-677.08 564.91,-677.83 563.07,-671.08"/>
</g>
<!-- 136121544789024 -->
<g id="node5" class="node">
<title>136121544789024</title>
<polygon fill="none" stroke="#9700ff" stroke-width="3" points="700.89,-712.86 700.89,-790.86 789.89,-790.86 789.89,-712.86 700.89,-712.86"/>
<text text-anchor="middle" x="745.39" y="-774.06" font-family="Lab Grotesque K" font-size="16.00" fill="#ff007f">a * 0.5</text>
<polyline fill="none" stroke="#9700ff" stroke-width="3" points="700.89,-764.86 789.89,-764.86 "/>
<text text-anchor="middle" x="745.39" y="-748.06" font-family="Lab Grotesque K" font-size="16.00" fill="#ff007f">data 2.0</text>
<polyline fill="none" stroke="#9700ff" stroke-width="3" points="700.89,-738.86 789.89,-738.86 "/>
<text text-anchor="middle" x="745.39" y="-722.06" font-family="Lab Grotesque K" font-size="16.00" fill="#ff007f">grad 10.27</text>
</g>
<!-- 136121544789024&#45;&gt;136121544801312+ -->
<g id="edge16" class="edge">
<title>136121544789024&#45;&gt;136121544801312+</title>
<path fill="none" stroke="#9700ff" stroke-width="3" d="M704.66,-712.83C691.4,-700.13 677.15,-686.48 665.62,-675.43"/>
<polygon fill="#9700ff" stroke="#9700ff" stroke-width="3" points="667.76,-672.64 658.12,-668.25 662.92,-677.69 667.76,-672.64"/>
</g>
<!-- 136121544789024* -->
<g id="node6" class="node">
<title>136121544789024*</title>
<ellipse fill="none" stroke="#9700ff" stroke-width="3" cx="884.17" cy="-778.29" rx="27" ry="18.27"/>
<text text-anchor="middle" x="884.17" y="-774.49" font-family="Lab Grotesque K" font-size="16.00" fill="#ff007f">*</text>
</g>
<!-- 136121544789024*&#45;&gt;136121544789024 -->
<g id="edge3" class="edge">
<title>136121544789024*&#45;&gt;136121544789024</title>
<path fill="none" stroke="#9700ff" stroke-width="3" d="M858.07,-773.32C841.68,-770.19 819.92,-766.05 799.9,-762.24"/>
<polygon fill="#9700ff" stroke="#9700ff" stroke-width="3" points="800.42,-758.77 789.94,-760.34 799.11,-765.65 800.42,-758.77"/>
</g>
<!-- 136121544932912 -->
<g id="node7" class="node">
<title>136121544932912</title>
<polygon fill="none" stroke="#9700ff" stroke-width="3" points="169.24,-90.24 169.24,-168.24 359.24,-168.24 359.24,-90.24 169.24,-90.24"/>
<text text-anchor="middle" x="264.24" y="-151.44" font-family="Lab Grotesque K" font-size="16.00" fill="#ff007f">(0.34 &#45; (a * 0.25 + b)) ^ 2</text>
<polyline fill="none" stroke="#9700ff" stroke-width="3" points="169.24,-142.24 359.24,-142.24 "/>
<text text-anchor="middle" x="264.24" y="-125.44" font-family="Lab Grotesque K" font-size="16.00" fill="#ff007f">data 21.72</text>
<polyline fill="none" stroke="#9700ff" stroke-width="3" points="169.24,-116.24 359.24,-116.24 "/>
<text text-anchor="middle" x="264.24" y="-99.44" font-family="Lab Grotesque K" font-size="16.00" fill="#ff007f">grad 1</text>
</g>
<!-- 136121544932912&#45;&gt;136121544928784+ -->
<g id="edge18" class="edge">
<title>136121544932912&#45;&gt;136121544928784+</title>
<path fill="none" stroke="#9700ff" stroke-width="3" d="M221.36,-168.36C208.11,-180.45 194.01,-193.32 182.55,-203.77"/>
<polygon fill="#9700ff" stroke="#9700ff" stroke-width="3" points="180.12,-201.26 175.09,-210.59 184.84,-206.43 180.12,-201.26"/>
</g>
<!-- 136121544932912^2 -->
<g id="node8" class="node">
<title>136121544932912^2</title>
<ellipse fill="none" stroke="#9700ff" stroke-width="3" cx="394.25" cy="-81.77" rx="27" ry="18.27"/>
<text text-anchor="middle" x="394.25" y="-77.97" font-family="Lab Grotesque K" font-size="16.00" fill="#ff007f">^2</text>
</g>
<!-- 136121544932912^2&#45;&gt;136121544932912 -->
<g id="edge4" class="edge">
<title>136121544932912^2&#45;&gt;136121544932912</title>
<path fill="none" stroke="#9700ff" stroke-width="3" d="M370.41,-90.48C369.98,-90.63 369.56,-90.79 369.13,-90.94"/>
<polygon fill="#9700ff" stroke="#9700ff" stroke-width="3" points="367.8,-87.7 359.61,-94.42 370.2,-94.28 367.8,-87.7"/>
</g>
<!-- 136121544799344 -->
<g id="node9" class="node">
<title>136121544799344</title>
<polygon fill="none" stroke="#9700ff" stroke-width="3" points="877.95,-395.24 877.95,-473.24 960.95,-473.24 960.95,-395.24 877.95,-395.24"/>
<text text-anchor="middle" x="919.45" y="-456.44" font-family="Lab Grotesque K" font-size="16.00" fill="#ff007f">a * 0.25</text>
<polyline fill="none" stroke="#9700ff" stroke-width="3" points="877.95,-447.24 960.95,-447.24 "/>
<text text-anchor="middle" x="919.45" y="-430.44" font-family="Lab Grotesque K" font-size="16.00" fill="#ff007f">data 1.0</text>
<polyline fill="none" stroke="#9700ff" stroke-width="3" points="877.95,-421.24 960.95,-421.24 "/>
<text text-anchor="middle" x="919.45" y="-404.44" font-family="Lab Grotesque K" font-size="16.00" fill="#ff007f">grad 9.32</text>
</g>
<!-- 136121544790464+ -->
<g id="node23" class="node">
<title>136121544790464+</title>
<ellipse fill="none" stroke="#9700ff" stroke-width="3" cx="780.79" cy="-400.35" rx="27" ry="18.27"/>
<text text-anchor="middle" x="780.79" y="-396.55" font-family="Lab Grotesque K" font-size="16.00" fill="#ff007f">+</text>
</g>
<!-- 136121544799344&#45;&gt;136121544790464+ -->
<g id="edge23" class="edge">
<title>136121544799344&#45;&gt;136121544790464+</title>
<path fill="none" stroke="#9700ff" stroke-width="3" d="M877.85,-424.07C858.19,-419.27 834.98,-413.59 816.18,-409"/>
<polygon fill="#9700ff" stroke="#9700ff" stroke-width="3" points="816.79,-405.55 806.25,-406.57 815.13,-412.34 816.79,-405.55"/>
</g>
<!-- 136121544799344* -->
<g id="node10" class="node">
<title>136121544799344*</title>
<ellipse fill="none" stroke="#9700ff" stroke-width="3" cx="1016.28" cy="-537.19" rx="27" ry="18.27"/>
<text text-anchor="middle" x="1016.28" y="-533.39" font-family="Lab Grotesque K" font-size="16.00" fill="#ff007f">*</text>
</g>
<!-- 136121544799344*&#45;&gt;136121544799344 -->
<g id="edge5" class="edge">
<title>136121544799344*&#45;&gt;136121544799344</title>
<path fill="none" stroke="#9700ff" stroke-width="3" d="M1001.57,-521.55C991.39,-510.73 977.26,-495.7 963.59,-481.17"/>
<polygon fill="#9700ff" stroke="#9700ff" stroke-width="3" points="965.9,-478.52 956.5,-473.64 960.8,-483.32 965.9,-478.52"/>
</g>
<!-- 136121544917120 -->
<g id="node11" class="node">
<title>136121544917120</title>
<polygon fill="none" stroke="#9700ff" stroke-width="3" points="43.71,-327.08 43.71,-405.08 225.71,-405.08 225.71,-327.08 43.71,-327.08"/>
<text text-anchor="middle" x="134.71" y="-388.28" font-family="Lab Grotesque K" font-size="16.00" fill="#ff007f">(0.86 &#45; (a * 0.5 + b)) ^ 2</text>
<polyline fill="none" stroke="#9700ff" stroke-width="3" points="43.71,-379.08 225.71,-379.08 "/>
<text text-anchor="middle" x="134.71" y="-362.28" font-family="Lab Grotesque K" font-size="16.00" fill="#ff007f">data 26.38</text>
<polyline fill="none" stroke="#9700ff" stroke-width="3" points="43.71,-353.08 225.71,-353.08 "/>
<text text-anchor="middle" x="134.71" y="-336.28" font-family="Lab Grotesque K" font-size="16.00" fill="#ff007f">grad 1</text>
</g>
<!-- 136121544917120&#45;&gt;136121544928784+ -->
<g id="edge10" class="edge">
<title>136121544917120&#45;&gt;136121544928784+</title>
<path fill="none" stroke="#9700ff" stroke-width="3" d="M141.42,-326.9C145.41,-303.68 150.36,-274.77 153.96,-253.76"/>
<polygon fill="#9700ff" stroke="#9700ff" stroke-width="3" points="157.42,-254.3 155.66,-243.85 150.52,-253.12 157.42,-254.3"/>
</g>
<!-- 136121544917120^2 -->
<g id="node12" class="node">
<title>136121544917120^2</title>
<ellipse fill="none" stroke="#9700ff" stroke-width="3" cx="164.89" cy="-501.19" rx="27" ry="18.27"/>
<text text-anchor="middle" x="164.89" y="-497.39" font-family="Lab Grotesque K" font-size="16.00" fill="#ff007f">^2</text>
</g>
<!-- 136121544917120^2&#45;&gt;136121544917120 -->
<g id="edge6" class="edge">
<title>136121544917120^2&#45;&gt;136121544917120</title>
<path fill="none" stroke="#9700ff" stroke-width="3" d="M160.82,-482.96C156.95,-465.63 150.95,-438.78 145.67,-415.18"/>
<polygon fill="#9700ff" stroke="#9700ff" stroke-width="3" points="149.06,-414.29 143.47,-405.3 142.23,-415.82 149.06,-414.29"/>
</g>
<!-- 136121555199104 -->
<g id="node13" class="node">
<title>136121555199104</title>
<polygon fill="none" stroke="#9700ff" stroke-width="3" points="1106.22,-483.64 1106.22,-535.64 1189.22,-535.64 1189.22,-483.64 1106.22,-483.64"/>
<text text-anchor="middle" x="1147.72" y="-518.84" font-family="Lab Grotesque K" font-size="16.00" fill="#ff007f">0.25</text>
<polyline fill="none" stroke="#9700ff" stroke-width="3" points="1106.22,-509.64 1189.22,-509.64 "/>
<text text-anchor="middle" x="1147.72" y="-492.84" font-family="Lab Grotesque K" font-size="16.00" fill="#ff007f">data 0.25</text>
</g>
<!-- 136121555199104&#45;&gt;136121544799344* -->
<g id="edge12" class="edge">
<title>136121555199104&#45;&gt;136121544799344*</title>
<path fill="none" stroke="#9700ff" stroke-width="3" d="M1106.13,-518.36C1088.82,-521.99 1068.91,-526.16 1052.24,-529.65"/>
<polygon fill="#9700ff" stroke="#9700ff" stroke-width="3" points="1051.4,-526.25 1042.33,-531.73 1052.83,-533.1 1051.4,-526.25"/>
</g>
<!-- 136121544791712 -->
<g id="node14" class="node">
<title>136121544791712</title>
<polygon fill="none" stroke="#9700ff" stroke-width="3" points="263.57,-793.07 263.57,-845.07 347.57,-845.07 347.57,-793.07 263.57,-793.07"/>
<text text-anchor="middle" x="305.57" y="-828.27" font-family="Lab Grotesque K" font-size="16.00" fill="#ff007f">0.86</text>
<polyline fill="none" stroke="#9700ff" stroke-width="3" points="263.57,-819.07 347.57,-819.07 "/>
<text text-anchor="middle" x="305.57" y="-802.27" font-family="Lab Grotesque K" font-size="16.00" fill="#ff007f">data 0.86</text>
</g>
<!-- 136121544791712&#45;&gt;136121544799152&#45; -->
<g id="edge21" class="edge">
<title>136121544791712&#45;&gt;136121544799152&#45;</title>
<path fill="none" stroke="#9700ff" stroke-width="3" d="M317.78,-793.02C327.61,-772.04 341.39,-742.65 351.3,-721.49"/>
<polygon fill="#9700ff" stroke="#9700ff" stroke-width="3" points="354.48,-722.95 355.56,-712.41 348.15,-719.98 354.48,-722.95"/>
</g>
<!-- 136121544788640 -->
<g id="node15" class="node">
<title>136121544788640</title>
<polygon fill="none" stroke="#9700ff" stroke-width="3" points="694.7,-0.5 694.7,-52.5 777.7,-52.5 777.7,-0.5 694.7,-0.5"/>
<text text-anchor="middle" x="736.2" y="-35.7" font-family="Lab Grotesque K" font-size="16.00" fill="#ff007f">0.34</text>
<polyline fill="none" stroke="#9700ff" stroke-width="3" points="694.7,-26.5 777.7,-26.5 "/>
<text text-anchor="middle" x="736.2" y="-9.7" font-family="Lab Grotesque K" font-size="16.00" fill="#ff007f">data 0.34</text>
</g>
<!-- 136122634021120&#45; -->
<g id="node18" class="node">
<title>136122634021120&#45;</title>
<ellipse fill="none" stroke="#9700ff" stroke-width="3" cx="665.08" cy="-143.8" rx="27" ry="18.27"/>
<text text-anchor="middle" x="665.08" y="-140" font-family="Lab Grotesque K" font-size="16.00" fill="#ff007f">&#45;</text>
</g>
<!-- 136121544788640&#45;&gt;136122634021120&#45; -->
<g id="edge20" class="edge">
<title>136121544788640&#45;&gt;136122634021120&#45;</title>
<path fill="none" stroke="#9700ff" stroke-width="3" d="M720.41,-52.53C708.61,-71.99 692.56,-98.48 680.78,-117.91"/>
<polygon fill="#9700ff" stroke="#9700ff" stroke-width="3" points="677.73,-116.18 675.54,-126.55 683.72,-119.81 677.73,-116.18"/>
</g>
<!-- 136122633377536 -->
<g id="node16" class="node">
<title>136122633377536</title>
<polygon fill="none" stroke="#9700ff" stroke-width="3" points="652.45,-480.25 652.45,-558.25 743.45,-558.25 743.45,-480.25 652.45,-480.25"/>
<text text-anchor="middle" x="697.95" y="-541.45" font-family="Lab Grotesque K" font-size="16.00" fill="#ff007f">b</text>
<polyline fill="none" stroke="#9700ff" stroke-width="3" points="652.45,-532.25 743.45,-532.25 "/>
<text text-anchor="middle" x="697.95" y="-515.45" font-family="Lab Grotesque K" font-size="16.00" fill="#ff007f">data 4.0</text>
<polyline fill="none" stroke="#9700ff" stroke-width="3" points="652.45,-506.25 743.45,-506.25 "/>
<text text-anchor="middle" x="697.95" y="-489.45" font-family="Lab Grotesque K" font-size="16.00" fill="#ff007f">grad 19.59</text>
</g>
<!-- 136122633377536&#45;&gt;136121544801312+ -->
<g id="edge25" class="edge">
<title>136122633377536&#45;&gt;136121544801312+</title>
<path fill="none" stroke="#9700ff" stroke-width="3" d="M681.72,-558.33C672.71,-580.02 661.72,-606.46 653.65,-625.89"/>
<polygon fill="#9700ff" stroke="#9700ff" stroke-width="3" points="650.32,-624.78 649.71,-635.36 656.78,-627.47 650.32,-624.78"/>
</g>
<!-- 136122633377536&#45;&gt;136121544790464+ -->
<g id="edge11" class="edge">
<title>136122633377536&#45;&gt;136121544790464+</title>
<path fill="none" stroke="#9700ff" stroke-width="3" d="M725.31,-479.99C737.87,-461.95 752.4,-441.1 763.43,-425.26"/>
<polygon fill="#9700ff" stroke="#9700ff" stroke-width="3" points="766.33,-427.23 769.17,-417.03 760.58,-423.23 766.33,-427.23"/>
</g>
<!-- 136122634021120 -->
<g id="node17" class="node">
<title>136122634021120</title>
<polygon fill="none" stroke="#9700ff" stroke-width="3" points="455.21,-55.48 455.21,-133.48 608.21,-133.48 608.21,-55.48 455.21,-55.48"/>
<text text-anchor="middle" x="531.71" y="-116.68" font-family="Lab Grotesque K" font-size="16.00" fill="#ff007f">0.34 &#45; (a * 0.25 + b)</text>
<polyline fill="none" stroke="#9700ff" stroke-width="3" points="455.21,-107.48 608.21,-107.48 "/>
<text text-anchor="middle" x="531.71" y="-90.68" font-family="Lab Grotesque K" font-size="16.00" fill="#ff007f">data &#45;4.66</text>
<polyline fill="none" stroke="#9700ff" stroke-width="3" points="455.21,-81.48 608.21,-81.48 "/>
<text text-anchor="middle" x="531.71" y="-64.68" font-family="Lab Grotesque K" font-size="16.00" fill="#ff007f">grad &#45;9.32</text>
</g>
<!-- 136122634021120&#45;&gt;136121544932912^2 -->
<g id="edge19" class="edge">
<title>136122634021120&#45;&gt;136121544932912^2</title>
<path fill="none" stroke="#9700ff" stroke-width="3" d="M454.94,-87.38C446.75,-86.62 438.71,-85.88 431.3,-85.19"/>
<polygon fill="#9700ff" stroke="#9700ff" stroke-width="3" points="431.58,-81.71 421.3,-84.27 430.93,-88.68 431.58,-81.71"/>
</g>
<!-- 136122634021120&#45;&#45;&gt;136122634021120 -->
<g id="edge7" class="edge">
<title>136122634021120&#45;&#45;&gt;136122634021120</title>
<path fill="none" stroke="#9700ff" stroke-width="3" d="M641.24,-134.98C634.25,-132.4 626.17,-129.41 617.64,-126.25"/>
<polygon fill="#9700ff" stroke="#9700ff" stroke-width="3" points="618.82,-122.96 608.22,-122.77 616.39,-129.52 618.82,-122.96"/>
</g>
<!-- 136121555499872 -->
<g id="node19" class="node">
<title>136121555499872</title>
<polygon fill="none" stroke="#9700ff" stroke-width="3" points="945.66,-637.89 945.66,-715.89 1024.66,-715.89 1024.66,-637.89 945.66,-637.89"/>
<text text-anchor="middle" x="985.16" y="-699.09" font-family="Lab Grotesque K" font-size="16.00" fill="#ff007f">a</text>
<polyline fill="none" stroke="#9700ff" stroke-width="3" points="945.66,-689.89 1024.66,-689.89 "/>
<text text-anchor="middle" x="985.16" y="-673.09" font-family="Lab Grotesque K" font-size="16.00" fill="#ff007f">data 4.0</text>
<polyline fill="none" stroke="#9700ff" stroke-width="3" points="945.66,-663.89 1024.66,-663.89 "/>
<text text-anchor="middle" x="985.16" y="-647.09" font-family="Lab Grotesque K" font-size="16.00" fill="#ff007f">grad 7.47</text>
</g>
<!-- 136121555499872&#45;&gt;136121544789024* -->
<g id="edge24" class="edge">
<title>136121555499872&#45;&gt;136121544789024*</title>
<path fill="none" stroke="#9700ff" stroke-width="3" d="M946.12,-716.09C932.73,-729.53 918.21,-744.11 906.6,-755.77"/>
<polygon fill="#9700ff" stroke="#9700ff" stroke-width="3" points="904,-753.42 899.42,-762.97 908.96,-758.36 904,-753.42"/>
</g>
<!-- 136121555499872&#45;&gt;136121544799344* -->
<g id="edge13" class="edge">
<title>136121555499872&#45;&gt;136121544799344*</title>
<path fill="none" stroke="#9700ff" stroke-width="3" d="M993.91,-637.6C999.05,-614.54 1005.42,-585.95 1010.05,-565.18"/>
<polygon fill="#9700ff" stroke="#9700ff" stroke-width="3" points="1013.47,-565.91 1012.23,-555.38 1006.64,-564.38 1013.47,-565.91"/>
</g>
<!-- 136121544799152 -->
<g id="node20" class="node">
<title>136121544799152</title>
<polygon fill="none" stroke="#9700ff" stroke-width="3" points="177.1,-571.25 177.1,-649.25 322.1,-649.25 322.1,-571.25 177.1,-571.25"/>
<text text-anchor="middle" x="249.6" y="-632.45" font-family="Lab Grotesque K" font-size="16.00" fill="#ff007f">0.86 &#45; (a * 0.5 + b)</text>
<polyline fill="none" stroke="#9700ff" stroke-width="3" points="177.1,-623.25 322.1,-623.25 "/>
<text text-anchor="middle" x="249.6" y="-606.45" font-family="Lab Grotesque K" font-size="16.00" fill="#ff007f">data &#45;5.14</text>
<polyline fill="none" stroke="#9700ff" stroke-width="3" points="177.1,-597.25 322.1,-597.25 "/>
<text text-anchor="middle" x="249.6" y="-580.45" font-family="Lab Grotesque K" font-size="16.00" fill="#ff007f">grad &#45;10.27</text>
</g>
<!-- 136121544799152&#45;&gt;136121544917120^2 -->
<g id="edge15" class="edge">
<title>136121544799152&#45;&gt;136121544917120^2</title>
<path fill="none" stroke="#9700ff" stroke-width="3" d="M219.26,-571.18C207.5,-556.04 194.39,-539.16 183.99,-525.78"/>
<polygon fill="#9700ff" stroke="#9700ff" stroke-width="3" points="186.49,-523.29 177.59,-517.54 180.96,-527.58 186.49,-523.29"/>
</g>
<!-- 136121544799152&#45;&#45;&gt;136121544799152 -->
<g id="edge8" class="edge">
<title>136121544799152&#45;&#45;&gt;136121544799152</title>
<path fill="none" stroke="#9700ff" stroke-width="3" d="M345.46,-681.21C335.84,-674.09 323.44,-664.91 310.78,-655.53"/>
<polygon fill="#9700ff" stroke="#9700ff" stroke-width="3" points="312.56,-652.5 302.44,-649.36 308.39,-658.13 312.56,-652.5"/>
</g>
<!-- 136121544790464 -->
<g id="node22" class="node">
<title>136121544790464</title>
<polygon fill="none" stroke="#9700ff" stroke-width="3" points="685.24,-225.5 685.24,-303.5 792.24,-303.5 792.24,-225.5 685.24,-225.5"/>
<text text-anchor="middle" x="738.74" y="-286.7" font-family="Lab Grotesque K" font-size="16.00" fill="#ff007f">(a * 0.25 + b)</text>
<polyline fill="none" stroke="#9700ff" stroke-width="3" points="685.24,-277.5 792.24,-277.5 "/>
<text text-anchor="middle" x="738.74" y="-260.7" font-family="Lab Grotesque K" font-size="16.00" fill="#ff007f">data 5.0</text>
<polyline fill="none" stroke="#9700ff" stroke-width="3" points="685.24,-251.5 792.24,-251.5 "/>
<text text-anchor="middle" x="738.74" y="-234.7" font-family="Lab Grotesque K" font-size="16.00" fill="#ff007f">grad 9.32</text>
</g>
<!-- 136121544790464&#45;&gt;136122634021120&#45; -->
<g id="edge22" class="edge">
<title>136121544790464&#45;&gt;136122634021120&#45;</title>
<path fill="none" stroke="#9700ff" stroke-width="3" d="M714.82,-225.31C703.73,-207.13 690.84,-186.01 680.96,-169.82"/>
<polygon fill="#9700ff" stroke="#9700ff" stroke-width="3" points="683.73,-167.64 675.53,-160.93 677.76,-171.28 683.73,-167.64"/>
</g>
<!-- 136121544790464+&#45;&gt;136121544790464 -->
<g id="edge9" class="edge">
<title>136121544790464+&#45;&gt;136121544790464</title>
<path fill="none" stroke="#9700ff" stroke-width="3" d="M775.21,-382.31C769.77,-364.74 761.25,-337.24 753.82,-313.23"/>
<polygon fill="#9700ff" stroke="#9700ff" stroke-width="3" points="757.12,-312.05 750.82,-303.54 750.43,-314.12 757.12,-312.05"/>
</g>
<!-- 136121544801744 -->
<g id="node24" class="node">
<title>136121544801744</title>
<polygon fill="none" stroke="#9700ff" stroke-width="3" points="894.55,-877.96 894.55,-929.96 968.55,-929.96 968.55,-877.96 894.55,-877.96"/>
<text text-anchor="middle" x="931.55" y="-913.16" font-family="Lab Grotesque K" font-size="16.00" fill="#ff007f">0.5</text>
<polyline fill="none" stroke="#9700ff" stroke-width="3" points="894.55,-903.96 968.55,-903.96 "/>
<text text-anchor="middle" x="931.55" y="-887.16" font-family="Lab Grotesque K" font-size="16.00" fill="#ff007f">data 0.5</text>
</g>
<!-- 136121544801744&#45;&gt;136121544789024* -->
<g id="edge14" class="edge">
<title>136121544801744&#45;&gt;136121544789024*</title>
<path fill="none" stroke="#9700ff" stroke-width="3" d="M921.74,-877.92C913.78,-856.82 902.6,-827.17 894.51,-805.7"/>
<polygon fill="#9700ff" stroke="#9700ff" stroke-width="3" points="897.72,-804.31 890.92,-796.19 891.17,-806.78 897.72,-804.31"/>
</g>
</g>
</svg>
