<?xml version="1.0" encoding="UTF-8" standalone="no"?>
<!DOCTYPE svg PUBLIC "-//W3C//DTD SVG 1.1//EN"
 "http://www.w3.org/Graphics/SVG/1.1/DTD/svg11.dtd">
<!-- Generated by graphviz version 2.43.0 (0)
 -->
<!-- Title: %3 Pages: 1 -->
<svg width="1181pt" height="210pt"
 viewBox="0.00 0.00 1181.00 210.00" xmlns="http://www.w3.org/2000/svg" xmlns:xlink="http://www.w3.org/1999/xlink">
<g id="graph0" class="graph" transform="scale(1 1) rotate(0) translate(4 206)">
<title>%3</title>
<!-- 130470642713136 -->
<g id="node1" class="node">
<title>130470642713136</title>
<polygon fill="none" stroke="#9700ff" stroke-width="3" points="583.5,-55.5 583.5,-91.5 703.5,-91.5 703.5,-55.5 583.5,-55.5"/>
<text text-anchor="middle" x="643.5" y="-69.7" font-family="Lab Grotesque K" font-size="16.00" fill="#ff007f">y1 &#45; (a * x1 + b)</text>
</g>
<!-- 130467478384576^2 -->
<g id="node24" class="node">
<title>130467478384576^2</title>
<ellipse fill="none" stroke="#9700ff" stroke-width="3" cx="769" cy="-73.5" rx="27" ry="18.27"/>
<text text-anchor="middle" x="769" y="-69.7" font-family="Lab Grotesque K" font-size="16.00" fill="#ff007f">^2</text>
</g>
<!-- 130470642713136&#45;&gt;130467478384576^2 -->
<g id="edge19" class="edge">
<title>130470642713136&#45;&gt;130467478384576^2</title>
<path fill="none" stroke="#9700ff" stroke-width="3" d="M703.72,-73.5C713.22,-73.5 722.81,-73.5 731.57,-73.5"/>
<polygon fill="#9700ff" stroke="#9700ff" stroke-width="3" points="731.79,-77 741.79,-73.5 731.79,-70 731.79,-77"/>
</g>
<!-- 130470642713136&#45; -->
<g id="node2" class="node">
<title>130470642713136&#45;</title>
<ellipse fill="none" stroke="#9700ff" stroke-width="3" cx="518" cy="-73.5" rx="27" ry="18.27"/>
<text text-anchor="middle" x="518" y="-69.7" font-family="Lab Grotesque K" font-size="16.00" fill="#ff007f">&#45;</text>
</g>
<!-- 130470642713136&#45;&#45;&gt;130470642713136 -->
<g id="edge1" class="edge">
<title>130470642713136&#45;&#45;&gt;130470642713136</title>
<path fill="none" stroke="#9700ff" stroke-width="3" d="M545.19,-73.5C553.58,-73.5 563.3,-73.5 573.28,-73.5"/>
<polygon fill="#9700ff" stroke="#9700ff" stroke-width="3" points="573.32,-77 583.32,-73.5 573.32,-70 573.32,-77"/>
</g>
<!-- 130467478201424 -->
<g id="node3" class="node">
<title>130467478201424</title>
<polygon fill="none" stroke="#9700ff" stroke-width="3" points="0,-138.5 0,-174.5 54,-174.5 54,-138.5 0,-138.5"/>
<text text-anchor="middle" x="27" y="-152.7" font-family="Lab Grotesque K" font-size="16.00" fill="#ff007f">x0</text>
</g>
<!-- 130467478198016* -->
<g id="node12" class="node">
<title>130467478198016*</title>
<ellipse fill="none" stroke="#9700ff" stroke-width="3" cx="117" cy="-156.5" rx="27" ry="18.27"/>
<text text-anchor="middle" x="117" y="-152.7" font-family="Lab Grotesque K" font-size="16.00" fill="#ff007f">*</text>
</g>
<!-- 130467478201424&#45;&gt;130467478198016* -->
<g id="edge17" class="edge">
<title>130467478201424&#45;&gt;130467478198016*</title>
<path fill="none" stroke="#9700ff" stroke-width="3" d="M54.4,-156.5C62.39,-156.5 71.31,-156.5 79.82,-156.5"/>
<polygon fill="#9700ff" stroke="#9700ff" stroke-width="3" points="79.92,-160 89.92,-156.5 79.92,-153 79.92,-160"/>
</g>
<!-- 130468567578720 -->
<g id="node4" class="node">
<title>130468567578720</title>
<polygon fill="none" stroke="#9700ff" stroke-width="3" points="181,-28.5 181,-64.5 235,-64.5 235,-28.5 181,-28.5"/>
<text text-anchor="middle" x="208" y="-42.7" font-family="Lab Grotesque K" font-size="16.00" fill="#ff007f">a * x1</text>
</g>
<!-- 130470792641424+ -->
<g id="node22" class="node">
<title>130470792641424+</title>
<ellipse fill="none" stroke="#9700ff" stroke-width="3" cx="299" cy="-73.5" rx="27" ry="18.27"/>
<text text-anchor="middle" x="299" y="-69.7" font-family="Lab Grotesque K" font-size="16.00" fill="#ff007f">+</text>
</g>
<!-- 130468567578720&#45;&gt;130470792641424+ -->
<g id="edge22" class="edge">
<title>130468567578720&#45;&gt;130470792641424+</title>
<path fill="none" stroke="#9700ff" stroke-width="3" d="M235.22,-54.45C244.35,-57.23 254.73,-60.37 264.38,-63.3"/>
<polygon fill="#9700ff" stroke="#9700ff" stroke-width="3" points="263.51,-66.69 274.09,-66.25 265.54,-59.99 263.51,-66.69"/>
</g>
<!-- 130468567578720* -->
<g id="node5" class="node">
<title>130468567578720*</title>
<ellipse fill="none" stroke="#9700ff" stroke-width="3" cx="117" cy="-46.5" rx="27" ry="18.27"/>
<text text-anchor="middle" x="117" y="-42.7" font-family="Lab Grotesque K" font-size="16.00" fill="#ff007f">*</text>
</g>
<!-- 130468567578720*&#45;&gt;130468567578720 -->
<g id="edge2" class="edge">
<title>130468567578720*&#45;&gt;130468567578720</title>
<path fill="none" stroke="#9700ff" stroke-width="3" d="M144.22,-46.5C152.55,-46.5 161.91,-46.5 170.82,-46.5"/>
<polygon fill="#9700ff" stroke="#9700ff" stroke-width="3" points="170.97,-50 180.97,-46.5 170.97,-43 170.97,-50"/>
</g>
<!-- 130467478201952 -->
<g id="node6" class="node">
<title>130467478201952</title>
<polygon fill="none" stroke="#9700ff" stroke-width="3" points="0,-28.5 0,-64.5 54,-64.5 54,-28.5 0,-28.5"/>
<text text-anchor="middle" x="27" y="-42.7" font-family="Lab Grotesque K" font-size="16.00" fill="#ff007f">x1</text>
</g>
<!-- 130467478201952&#45;&gt;130468567578720* -->
<g id="edge13" class="edge">
<title>130467478201952&#45;&gt;130468567578720*</title>
<path fill="none" stroke="#9700ff" stroke-width="3" d="M54.4,-46.5C62.39,-46.5 71.31,-46.5 79.82,-46.5"/>
<polygon fill="#9700ff" stroke="#9700ff" stroke-width="3" points="79.92,-50 89.92,-46.5 79.92,-43 79.92,-50"/>
</g>
<!-- 130468566855808 -->
<g id="node7" class="node">
<title>130468566855808</title>
<polygon fill="none" stroke="#9700ff" stroke-width="3" points="581,-110.5 581,-146.5 706,-146.5 706,-110.5 581,-110.5"/>
<text text-anchor="middle" x="643.5" y="-124.7" font-family="Lab Grotesque K" font-size="16.00" fill="#ff007f">y0 &#45; (a * x0 + b)</text>
</g>
<!-- 130468555892608^2 -->
<g id="node20" class="node">
<title>130468555892608^2</title>
<ellipse fill="none" stroke="#9700ff" stroke-width="3" cx="769" cy="-128.5" rx="27" ry="18.27"/>
<text text-anchor="middle" x="769" y="-124.7" font-family="Lab Grotesque K" font-size="16.00" fill="#ff007f">^2</text>
</g>
<!-- 130468566855808&#45;&gt;130468555892608^2 -->
<g id="edge10" class="edge">
<title>130468566855808&#45;&gt;130468555892608^2</title>
<path fill="none" stroke="#9700ff" stroke-width="3" d="M706.25,-128.5C714.97,-128.5 723.69,-128.5 731.72,-128.5"/>
<polygon fill="#9700ff" stroke="#9700ff" stroke-width="3" points="731.81,-132 741.81,-128.5 731.81,-125 731.81,-132"/>
</g>
<!-- 130468566855808&#45; -->
<g id="node8" class="node">
<title>130468566855808&#45;</title>
<ellipse fill="none" stroke="#9700ff" stroke-width="3" cx="518" cy="-128.5" rx="27" ry="18.27"/>
<text text-anchor="middle" x="518" y="-124.7" font-family="Lab Grotesque K" font-size="16.00" fill="#ff007f">&#45;</text>
</g>
<!-- 130468566855808&#45;&#45;&gt;130468566855808 -->
<g id="edge3" class="edge">
<title>130468566855808&#45;&#45;&gt;130468566855808</title>
<path fill="none" stroke="#9700ff" stroke-width="3" d="M545.19,-128.5C552.8,-128.5 561.51,-128.5 570.52,-128.5"/>
<polygon fill="#9700ff" stroke="#9700ff" stroke-width="3" points="570.77,-132 580.77,-128.5 570.77,-125 570.77,-132"/>
</g>
<!-- 130467478204064 -->
<g id="node9" class="node">
<title>130467478204064</title>
<polygon fill="none" stroke="#9700ff" stroke-width="3" points="381.5,-0.5 381.5,-36.5 435.5,-36.5 435.5,-0.5 381.5,-0.5"/>
<text text-anchor="middle" x="408.5" y="-14.7" font-family="Lab Grotesque K" font-size="16.00" fill="#ff007f">y1</text>
</g>
<!-- 130467478204064&#45;&gt;130470642713136&#45; -->
<g id="edge20" class="edge">
<title>130467478204064&#45;&gt;130470642713136&#45;</title>
<path fill="none" stroke="#9700ff" stroke-width="3" d="M435.52,-31.81C451,-39.73 470.71,-49.81 486.86,-58.08"/>
<polygon fill="#9700ff" stroke="#9700ff" stroke-width="3" points="485.41,-61.27 495.9,-62.71 488.59,-55.03 485.41,-61.27"/>
</g>
<!-- 130467478204592 -->
<g id="node10" class="node">
<title>130467478204592</title>
<polygon fill="none" stroke="#9700ff" stroke-width="3" points="0,-83.5 0,-119.5 54,-119.5 54,-83.5 0,-83.5"/>
<text text-anchor="middle" x="27" y="-97.7" font-family="Lab Grotesque K" font-size="16.00" fill="#ff007f">a</text>
</g>
<!-- 130467478204592&#45;&gt;130468567578720* -->
<g id="edge23" class="edge">
<title>130467478204592&#45;&gt;130468567578720*</title>
<path fill="none" stroke="#9700ff" stroke-width="3" d="M54.4,-85C65,-78.37 77.23,-70.73 87.99,-64.01"/>
<polygon fill="#9700ff" stroke="#9700ff" stroke-width="3" points="89.98,-66.89 96.61,-58.62 86.27,-60.95 89.98,-66.89"/>
</g>
<!-- 130467478204592&#45;&gt;130467478198016* -->
<g id="edge12" class="edge">
<title>130467478204592&#45;&gt;130467478198016*</title>
<path fill="none" stroke="#9700ff" stroke-width="3" d="M54.4,-118C65,-124.63 77.23,-132.27 87.99,-138.99"/>
<polygon fill="#9700ff" stroke="#9700ff" stroke-width="3" points="86.27,-142.05 96.61,-144.38 89.98,-136.11 86.27,-142.05"/>
</g>
<!-- 130467478198016 -->
<g id="node11" class="node">
<title>130467478198016</title>
<polygon fill="none" stroke="#9700ff" stroke-width="3" points="180,-138.5 180,-174.5 236,-174.5 236,-138.5 180,-138.5"/>
<text text-anchor="middle" x="208" y="-152.7" font-family="Lab Grotesque K" font-size="16.00" fill="#ff007f">a * x0</text>
</g>
<!-- 130467478205264+ -->
<g id="node18" class="node">
<title>130467478205264+</title>
<ellipse fill="none" stroke="#9700ff" stroke-width="3" cx="299" cy="-128.5" rx="27" ry="18.27"/>
<text text-anchor="middle" x="299" y="-124.7" font-family="Lab Grotesque K" font-size="16.00" fill="#ff007f">+</text>
</g>
<!-- 130467478198016&#45;&gt;130467478205264+ -->
<g id="edge24" class="edge">
<title>130467478198016&#45;&gt;130467478205264+</title>
<path fill="none" stroke="#9700ff" stroke-width="3" d="M236.19,-147.95C245.12,-145.14 255.16,-141.98 264.51,-139.04"/>
<polygon fill="#9700ff" stroke="#9700ff" stroke-width="3" points="265.8,-142.3 274.29,-135.96 263.7,-135.62 265.8,-142.3"/>
</g>
<!-- 130467478198016*&#45;&gt;130467478198016 -->
<g id="edge4" class="edge">
<title>130467478198016*&#45;&gt;130467478198016</title>
<path fill="none" stroke="#9700ff" stroke-width="3" d="M144.22,-156.5C152.17,-156.5 161.06,-156.5 169.59,-156.5"/>
<polygon fill="#9700ff" stroke="#9700ff" stroke-width="3" points="169.73,-160 179.73,-156.5 169.73,-153 169.73,-160"/>
</g>
<!-- 130467478374160 -->
<g id="node13" class="node">
<title>130467478374160</title>
<polygon fill="none" stroke="#9700ff" stroke-width="3" points="1119,-82.5 1119,-118.5 1173,-118.5 1173,-82.5 1119,-82.5"/>
<text text-anchor="middle" x="1146" y="-96.7" font-family="Lab Grotesque K" font-size="16.00" fill="#ff007f">L</text>
</g>
<!-- 130467478374160+ -->
<g id="node14" class="node">
<title>130467478374160+</title>
<ellipse fill="none" stroke="#9700ff" stroke-width="3" cx="1056" cy="-100.5" rx="27" ry="18.27"/>
<text text-anchor="middle" x="1056" y="-96.7" font-family="Lab Grotesque K" font-size="16.00" fill="#ff007f">+</text>
</g>
<!-- 130467478374160+&#45;&gt;130467478374160 -->
<g id="edge5" class="edge">
<title>130467478374160+&#45;&gt;130467478374160</title>
<path fill="none" stroke="#9700ff" stroke-width="3" d="M1083.4,-100.5C1091.39,-100.5 1100.31,-100.5 1108.82,-100.5"/>
<polygon fill="#9700ff" stroke="#9700ff" stroke-width="3" points="1108.92,-104 1118.92,-100.5 1108.92,-97 1108.92,-104"/>
</g>
<!-- 130467478206752 -->
<g id="node15" class="node">
<title>130467478206752</title>
<polygon fill="none" stroke="#9700ff" stroke-width="3" points="381.5,-165.5 381.5,-201.5 435.5,-201.5 435.5,-165.5 381.5,-165.5"/>
<text text-anchor="middle" x="408.5" y="-179.7" font-family="Lab Grotesque K" font-size="16.00" fill="#ff007f">y0</text>
</g>
<!-- 130467478206752&#45;&gt;130468566855808&#45; -->
<g id="edge11" class="edge">
<title>130467478206752&#45;&gt;130468566855808&#45;</title>
<path fill="none" stroke="#9700ff" stroke-width="3" d="M435.52,-170.19C451,-162.27 470.71,-152.19 486.86,-143.92"/>
<polygon fill="#9700ff" stroke="#9700ff" stroke-width="3" points="488.59,-146.97 495.9,-139.29 485.41,-140.73 488.59,-146.97"/>
</g>
<!-- 130469127128320 -->
<g id="node16" class="node">
<title>130469127128320</title>
<polygon fill="none" stroke="#9700ff" stroke-width="3" points="181,-83.5 181,-119.5 235,-119.5 235,-83.5 181,-83.5"/>
<text text-anchor="middle" x="208" y="-97.7" font-family="Lab Grotesque K" font-size="16.00" fill="#ff007f">b</text>
</g>
<!-- 130469127128320&#45;&gt;130467478205264+ -->
<g id="edge15" class="edge">
<title>130469127128320&#45;&gt;130467478205264+</title>
<path fill="none" stroke="#9700ff" stroke-width="3" d="M235.22,-109.45C244.35,-112.23 254.73,-115.37 264.38,-118.3"/>
<polygon fill="#9700ff" stroke="#9700ff" stroke-width="3" points="263.51,-121.69 274.09,-121.25 265.54,-114.99 263.51,-121.69"/>
</g>
<!-- 130469127128320&#45;&gt;130470792641424+ -->
<g id="edge18" class="edge">
<title>130469127128320&#45;&gt;130470792641424+</title>
<path fill="none" stroke="#9700ff" stroke-width="3" d="M235.22,-93.25C244.35,-90.38 254.73,-87.11 264.38,-84.08"/>
<polygon fill="#9700ff" stroke="#9700ff" stroke-width="3" points="265.6,-87.36 274.09,-81.02 263.5,-80.68 265.6,-87.36"/>
</g>
<!-- 130467478205264 -->
<g id="node17" class="node">
<title>130467478205264</title>
<polygon fill="none" stroke="#9700ff" stroke-width="3" points="362,-110.5 362,-146.5 455,-146.5 455,-110.5 362,-110.5"/>
<text text-anchor="middle" x="408.5" y="-124.7" font-family="Lab Grotesque K" font-size="16.00" fill="#ff007f">(a * x0 + b)</text>
</g>
<!-- 130467478205264&#45;&gt;130468566855808&#45; -->
<g id="edge25" class="edge">
<title>130467478205264&#45;&gt;130468566855808&#45;</title>
<path fill="none" stroke="#9700ff" stroke-width="3" d="M455.09,-128.5C463.7,-128.5 472.6,-128.5 480.87,-128.5"/>
<polygon fill="#9700ff" stroke="#9700ff" stroke-width="3" points="480.94,-132 490.94,-128.5 480.94,-125 480.94,-132"/>
</g>
<!-- 130467478205264+&#45;&gt;130467478205264 -->
<g id="edge6" class="edge">
<title>130467478205264+&#45;&gt;130467478205264</title>
<path fill="none" stroke="#9700ff" stroke-width="3" d="M326.02,-128.5C333.88,-128.5 342.82,-128.5 351.84,-128.5"/>
<polygon fill="#9700ff" stroke="#9700ff" stroke-width="3" points="351.99,-132 361.99,-128.5 351.99,-125 351.99,-132"/>
</g>
<!-- 130468555892608 -->
<g id="node19" class="node">
<title>130468555892608</title>
<polygon fill="none" stroke="#9700ff" stroke-width="3" points="832,-110.5 832,-146.5 993,-146.5 993,-110.5 832,-110.5"/>
<text text-anchor="middle" x="912.5" y="-124.7" font-family="Lab Grotesque K" font-size="16.00" fill="#ff007f">(y0 &#45; (a * x0 + b)) ^ 2</text>
</g>
<!-- 130468555892608&#45;&gt;130467478374160+ -->
<g id="edge16" class="edge">
<title>130468555892608&#45;&gt;130467478374160+</title>
<path fill="none" stroke="#9700ff" stroke-width="3" d="M993.35,-112.7C1002.69,-110.85 1011.82,-109.04 1020.07,-107.41"/>
<polygon fill="#9700ff" stroke="#9700ff" stroke-width="3" points="1020.86,-110.82 1029.99,-105.45 1019.5,-103.96 1020.86,-110.82"/>
</g>
<!-- 130468555892608^2&#45;&gt;130468555892608 -->
<g id="edge7" class="edge">
<title>130468555892608^2&#45;&gt;130468555892608</title>
<path fill="none" stroke="#9700ff" stroke-width="3" d="M796.28,-128.5C803.85,-128.5 812.57,-128.5 821.74,-128.5"/>
<polygon fill="#9700ff" stroke="#9700ff" stroke-width="3" points="821.85,-132 831.85,-128.5 821.85,-125 821.85,-132"/>
</g>
<!-- 130470792641424 -->
<g id="node21" class="node">
<title>130470792641424</title>
<polygon fill="none" stroke="#9700ff" stroke-width="3" points="363,-55.5 363,-91.5 454,-91.5 454,-55.5 363,-55.5"/>
<text text-anchor="middle" x="408.5" y="-69.7" font-family="Lab Grotesque K" font-size="16.00" fill="#ff007f">(a * x1 + b)</text>
</g>
<!-- 130470792641424&#45;&gt;130470642713136&#45; -->
<g id="edge14" class="edge">
<title>130470792641424&#45;&gt;130470642713136&#45;</title>
<path fill="none" stroke="#9700ff" stroke-width="3" d="M454.16,-73.5C463.01,-73.5 472.21,-73.5 480.75,-73.5"/>
<polygon fill="#9700ff" stroke="#9700ff" stroke-width="3" points="480.77,-77 490.77,-73.5 480.77,-70 480.77,-77"/>
</g>
<!-- 130470792641424+&#45;&gt;130470792641424 -->
<g id="edge8" class="edge">
<title>130470792641424+&#45;&gt;130470792641424</title>
<path fill="none" stroke="#9700ff" stroke-width="3" d="M326.02,-73.5C334.15,-73.5 343.43,-73.5 352.76,-73.5"/>
<polygon fill="#9700ff" stroke="#9700ff" stroke-width="3" points="352.84,-77 362.84,-73.5 352.84,-70 352.84,-77"/>
</g>
<!-- 130467478384576 -->
<g id="node23" class="node">
<title>130467478384576</title>
<polygon fill="none" stroke="#9700ff" stroke-width="3" points="834,-55.5 834,-91.5 991,-91.5 991,-55.5 834,-55.5"/>
<text text-anchor="middle" x="912.5" y="-69.7" font-family="Lab Grotesque K" font-size="16.00" fill="#ff007f">(y1 &#45; (a * x1 + b)) ^ 2</text>
</g>
<!-- 130467478384576&#45;&gt;130467478374160+ -->
<g id="edge21" class="edge">
<title>130467478384576&#45;&gt;130467478374160+</title>
<path fill="none" stroke="#9700ff" stroke-width="3" d="M991.29,-88.34C1001.15,-90.22 1010.83,-92.07 1019.54,-93.73"/>
<polygon fill="#9700ff" stroke="#9700ff" stroke-width="3" points="1019.17,-97.23 1029.65,-95.66 1020.48,-90.35 1019.17,-97.23"/>
</g>
<!-- 130467478384576^2&#45;&gt;130467478384576 -->
<g id="edge9" class="edge">
<title>130467478384576^2&#45;&gt;130467478384576</title>
<path fill="none" stroke="#9700ff" stroke-width="3" d="M796.28,-73.5C804.44,-73.5 813.91,-73.5 823.86,-73.5"/>
<polygon fill="#9700ff" stroke="#9700ff" stroke-width="3" points="823.94,-77 833.94,-73.5 823.94,-70 823.94,-77"/>
</g>
</g>
</svg>
