<?xml version="1.0" encoding="UTF-8" standalone="no"?>
<!DOCTYPE svg PUBLIC "-//W3C//DTD SVG 1.1//EN"
 "http://www.w3.org/Graphics/SVG/1.1/DTD/svg11.dtd">
<!-- Generated by graphviz version 2.43.0 (0)
 -->
<!-- Title: %3 Pages: 1 -->
<svg width="1065pt" height="168pt"
 viewBox="0.00 0.00 1065.00 168.00" xmlns="http://www.w3.org/2000/svg" xmlns:xlink="http://www.w3.org/1999/xlink">
<g id="graph0" class="graph" transform="scale(1 1) rotate(0) translate(4 164)">
<title>%3</title>
<!-- 124397803158608 -->
<g id="node1" class="node">
<title>124397803158608</title>
<polygon fill="none" stroke="#9700ff" stroke-width="3" points="227,-107.5 227,-159.5 329,-159.5 329,-107.5 227,-107.5"/>
<text text-anchor="middle" x="278" y="-142.7" font-family="Lab Grotesque K" font-size="16.00" fill="#ff007f">b</text>
<polyline fill="none" stroke="#9700ff" stroke-width="3" points="227,-133.5 329,-133.5 "/>
<text text-anchor="middle" x="278" y="-116.7" font-family="Lab Grotesque K" font-size="16.00" fill="#ff007f">data 0.6644</text>
</g>
<!-- 124397803158368+ -->
<g id="node9" class="node">
<title>124397803158368+</title>
<ellipse fill="none" stroke="#9700ff" stroke-width="3" cx="392" cy="-97.5" rx="27" ry="18.27"/>
<text text-anchor="middle" x="392" y="-93.7" font-family="Lab Grotesque K" font-size="16.00" fill="#ff007f">+</text>
</g>
<!-- 124397803158608&#45;&gt;124397803158368+ -->
<g id="edge7" class="edge">
<title>124397803158608&#45;&gt;124397803158368+</title>
<path fill="none" stroke="#9700ff" stroke-width="3" d="M329.1,-117.4C338.75,-114.29 348.64,-111.12 357.59,-108.24"/>
<polygon fill="#9700ff" stroke="#9700ff" stroke-width="3" points="358.8,-111.53 367.25,-105.13 356.66,-104.86 358.8,-111.53"/>
</g>
<!-- 124397803159136 -->
<g id="node2" class="node">
<title>124397803159136</title>
<polygon fill="none" stroke="#9700ff" stroke-width="3" points="683,-35.5 683,-87.5 812,-87.5 812,-35.5 683,-35.5"/>
<text text-anchor="middle" x="747.5" y="-70.7" font-family="Lab Grotesque K" font-size="16.00" fill="#ff007f">y_1 &#45; a * x_1 + b</text>
<polyline fill="none" stroke="#9700ff" stroke-width="3" points="683,-61.5 812,-61.5 "/>
<text text-anchor="middle" x="747.5" y="-44.7" font-family="Lab Grotesque K" font-size="16.00" fill="#ff007f">data &#45;0.08823</text>
</g>
<!-- 124397803159280^2 -->
<g id="node6" class="node">
<title>124397803159280^2</title>
<ellipse fill="none" stroke="#9700ff" stroke-width="3" cx="875" cy="-61.5" rx="27" ry="18.27"/>
<text text-anchor="middle" x="875" y="-57.7" font-family="Lab Grotesque K" font-size="16.00" fill="#ff007f">^2</text>
</g>
<!-- 124397803159136&#45;&gt;124397803159280^2 -->
<g id="edge6" class="edge">
<title>124397803159136&#45;&gt;124397803159280^2</title>
<path fill="none" stroke="#9700ff" stroke-width="3" d="M812.35,-61.5C821.11,-61.5 829.84,-61.5 837.86,-61.5"/>
<polygon fill="#9700ff" stroke="#9700ff" stroke-width="3" points="837.93,-65 847.93,-61.5 837.93,-58 837.93,-65"/>
</g>
<!-- 124397803159136&#45; -->
<g id="node3" class="node">
<title>124397803159136&#45;</title>
<ellipse fill="none" stroke="#9700ff" stroke-width="3" cx="620" cy="-61.5" rx="27" ry="18.27"/>
<text text-anchor="middle" x="620" y="-57.7" font-family="Lab Grotesque K" font-size="16.00" fill="#ff007f">&#45;</text>
</g>
<!-- 124397803159136&#45;&#45;&gt;124397803159136 -->
<g id="edge1" class="edge">
<title>124397803159136&#45;&#45;&gt;124397803159136</title>
<path fill="none" stroke="#9700ff" stroke-width="3" d="M647,-61.5C654.75,-61.5 663.66,-61.5 672.89,-61.5"/>
<polygon fill="#9700ff" stroke="#9700ff" stroke-width="3" points="672.99,-65 682.99,-61.5 672.99,-58 672.99,-65"/>
</g>
<!-- 124397803158656 -->
<g id="node4" class="node">
<title>124397803158656</title>
<polygon fill="none" stroke="#9700ff" stroke-width="3" points="456,-0.5 456,-52.5 556,-52.5 556,-0.5 456,-0.5"/>
<text text-anchor="middle" x="506" y="-35.7" font-family="Lab Grotesque K" font-size="16.00" fill="#ff007f">y_1</text>
<polyline fill="none" stroke="#9700ff" stroke-width="3" points="456,-26.5 556,-26.5 "/>
<text text-anchor="middle" x="506" y="-9.7" font-family="Lab Grotesque K" font-size="16.00" fill="#ff007f">data 0.5762</text>
</g>
<!-- 124397803158656&#45;&gt;124397803159136&#45; -->
<g id="edge5" class="edge">
<title>124397803158656&#45;&gt;124397803159136&#45;</title>
<path fill="none" stroke="#9700ff" stroke-width="3" d="M556.12,-41.85C566.05,-44.95 576.27,-48.15 585.51,-51.03"/>
<polygon fill="#9700ff" stroke="#9700ff" stroke-width="3" points="584.5,-54.39 595.09,-54.03 586.59,-47.71 584.5,-54.39"/>
</g>
<!-- 124397803159280 -->
<g id="node5" class="node">
<title>124397803159280</title>
<polygon fill="none" stroke="#9700ff" stroke-width="3" points="938,-35.5 938,-87.5 1057,-87.5 1057,-35.5 938,-35.5"/>
<text text-anchor="middle" x="997.5" y="-70.7" font-family="Lab Grotesque K" font-size="16.00" fill="#ff007f">L</text>
<polyline fill="none" stroke="#9700ff" stroke-width="3" points="938,-61.5 1057,-61.5 "/>
<text text-anchor="middle" x="997.5" y="-44.7" font-family="Lab Grotesque K" font-size="16.00" fill="#ff007f">data 0.007784</text>
</g>
<!-- 124397803159280^2&#45;&gt;124397803159280 -->
<g id="edge2" class="edge">
<title>124397803159280^2&#45;&gt;124397803159280</title>
<path fill="none" stroke="#9700ff" stroke-width="3" d="M902.15,-61.5C909.79,-61.5 918.53,-61.5 927.53,-61.5"/>
<polygon fill="#9700ff" stroke="#9700ff" stroke-width="3" points="927.76,-65 937.76,-61.5 927.76,-58 927.76,-65"/>
</g>
<!-- 124397803158848 -->
<g id="node7" class="node">
<title>124397803158848</title>
<polygon fill="none" stroke="#9700ff" stroke-width="3" points="0,-72.5 0,-124.5 101,-124.5 101,-72.5 0,-72.5"/>
<text text-anchor="middle" x="50.5" y="-107.7" font-family="Lab Grotesque K" font-size="16.00" fill="#ff007f">a</text>
<polyline fill="none" stroke="#9700ff" stroke-width="3" points="0,-98.5 101,-98.5 "/>
<text text-anchor="middle" x="50.5" y="-81.7" font-family="Lab Grotesque K" font-size="16.00" fill="#ff007f">data 0.7842</text>
</g>
<!-- 124397803158944* -->
<g id="node12" class="node">
<title>124397803158944*</title>
<ellipse fill="none" stroke="#9700ff" stroke-width="3" cx="164" cy="-62.5" rx="27" ry="18.27"/>
<text text-anchor="middle" x="164" y="-58.7" font-family="Lab Grotesque K" font-size="16.00" fill="#ff007f">*</text>
</g>
<!-- 124397803158848&#45;&gt;124397803158944* -->
<g id="edge9" class="edge">
<title>124397803158848&#45;&gt;124397803158944*</title>
<path fill="none" stroke="#9700ff" stroke-width="3" d="M101.05,-82.5C110.69,-79.39 120.57,-76.2 129.54,-73.3"/>
<polygon fill="#9700ff" stroke="#9700ff" stroke-width="3" points="130.77,-76.59 139.21,-70.18 128.61,-69.92 130.77,-76.59"/>
</g>
<!-- 124397803158368 -->
<g id="node8" class="node">
<title>124397803158368</title>
<polygon fill="none" stroke="#9700ff" stroke-width="3" points="455,-71.5 455,-123.5 557,-123.5 557,-71.5 455,-71.5"/>
<text text-anchor="middle" x="506" y="-106.7" font-family="Lab Grotesque K" font-size="16.00" fill="#ff007f">a * x_1 + b</text>
<polyline fill="none" stroke="#9700ff" stroke-width="3" points="455,-97.5 557,-97.5 "/>
<text text-anchor="middle" x="506" y="-80.7" font-family="Lab Grotesque K" font-size="16.00" fill="#ff007f">data 0.6644</text>
</g>
<!-- 124397803158368&#45;&gt;124397803159136&#45; -->
<g id="edge10" class="edge">
<title>124397803158368&#45;&gt;124397803159136&#45;</title>
<path fill="none" stroke="#9700ff" stroke-width="3" d="M557.1,-81.4C566.75,-78.29 576.64,-75.12 585.59,-72.24"/>
<polygon fill="#9700ff" stroke="#9700ff" stroke-width="3" points="586.8,-75.53 595.25,-69.13 584.66,-68.86 586.8,-75.53"/>
</g>
<!-- 124397803158368+&#45;&gt;124397803158368 -->
<g id="edge3" class="edge">
<title>124397803158368+&#45;&gt;124397803158368</title>
<path fill="none" stroke="#9700ff" stroke-width="3" d="M419.26,-97.5C426.96,-97.5 435.73,-97.5 444.64,-97.5"/>
<polygon fill="#9700ff" stroke="#9700ff" stroke-width="3" points="444.71,-101 454.71,-97.5 444.71,-94 444.71,-101"/>
</g>
<!-- 124397803157888 -->
<g id="node10" class="node">
<title>124397803157888</title>
<polygon fill="none" stroke="#9700ff" stroke-width="3" points="13.5,-1.5 13.5,-53.5 87.5,-53.5 87.5,-1.5 13.5,-1.5"/>
<text text-anchor="middle" x="50.5" y="-36.7" font-family="Lab Grotesque K" font-size="16.00" fill="#ff007f">x_1</text>
<polyline fill="none" stroke="#9700ff" stroke-width="3" points="13.5,-27.5 87.5,-27.5 "/>
<text text-anchor="middle" x="50.5" y="-10.7" font-family="Lab Grotesque K" font-size="16.00" fill="#ff007f">data 0.0</text>
</g>
<!-- 124397803157888&#45;&gt;124397803158944* -->
<g id="edge8" class="edge">
<title>124397803157888&#45;&gt;124397803158944*</title>
<path fill="none" stroke="#9700ff" stroke-width="3" d="M87.7,-38.86C101.18,-43.09 116.4,-47.87 129.62,-52.02"/>
<polygon fill="#9700ff" stroke="#9700ff" stroke-width="3" points="128.68,-55.4 139.27,-55.05 130.78,-48.72 128.68,-55.4"/>
</g>
<!-- 124397803158944 -->
<g id="node11" class="node">
<title>124397803158944</title>
<polygon fill="none" stroke="#9700ff" stroke-width="3" points="241,-36.5 241,-88.5 315,-88.5 315,-36.5 241,-36.5"/>
<text text-anchor="middle" x="278" y="-71.7" font-family="Lab Grotesque K" font-size="16.00" fill="#ff007f">a * x_1</text>
<polyline fill="none" stroke="#9700ff" stroke-width="3" points="241,-62.5 315,-62.5 "/>
<text text-anchor="middle" x="278" y="-45.7" font-family="Lab Grotesque K" font-size="16.00" fill="#ff007f">data 0.0</text>
</g>
<!-- 124397803158944&#45;&gt;124397803158368+ -->
<g id="edge11" class="edge">
<title>124397803158944&#45;&gt;124397803158368+</title>
<path fill="none" stroke="#9700ff" stroke-width="3" d="M315.05,-73.77C328.61,-78 343.96,-82.8 357.29,-86.97"/>
<polygon fill="#9700ff" stroke="#9700ff" stroke-width="3" points="356.44,-90.37 367.03,-90.01 358.53,-83.69 356.44,-90.37"/>
</g>
<!-- 124397803158944*&#45;&gt;124397803158944 -->
<g id="edge4" class="edge">
<title>124397803158944*&#45;&gt;124397803158944</title>
<path fill="none" stroke="#9700ff" stroke-width="3" d="M191.26,-62.5C203.01,-62.5 217.21,-62.5 230.65,-62.5"/>
<polygon fill="#9700ff" stroke="#9700ff" stroke-width="3" points="230.73,-66 240.73,-62.5 230.73,-59 230.73,-66"/>
</g>
</g>
</svg>
