<?xml version="1.0" encoding="UTF-8" standalone="no"?>
<!DOCTYPE svg PUBLIC "-//W3C//DTD SVG 1.1//EN"
 "http://www.w3.org/Graphics/SVG/1.1/DTD/svg11.dtd">
<!-- Generated by graphviz version 2.43.0 (0)
 -->
<!-- Title: %3 Pages: 1 -->
<svg width="1281pt" height="326pt"
 viewBox="0.00 0.00 1281.00 326.00" xmlns="http://www.w3.org/2000/svg" xmlns:xlink="http://www.w3.org/1999/xlink">
<g id="graph0" class="graph" transform="scale(1 1) rotate(0) translate(4 322)">
<title>%3</title>
<!-- 130470642713136 -->
<g id="node1" class="node">
<title>130470642713136</title>
<polygon fill="none" stroke="#9700ff" stroke-width="3" points="647.5,-71.5 647.5,-149.5 767.5,-149.5 767.5,-71.5 647.5,-71.5"/>
<text text-anchor="middle" x="707.5" y="-132.7" font-family="Lab Grotesque K" font-size="16.00" fill="#ff007f">y1 &#45; (a * x1 + b)</text>
<polyline fill="none" stroke="#9700ff" stroke-width="3" points="647.5,-123.5 767.5,-123.5 "/>
<text text-anchor="middle" x="707.5" y="-106.7" font-family="Lab Grotesque K" font-size="16.00" fill="#ff007f">data &#45;5.0</text>
<polyline fill="none" stroke="#9700ff" stroke-width="3" points="647.5,-97.5 767.5,-97.5 "/>
<text text-anchor="middle" x="707.5" y="-80.7" font-family="Lab Grotesque K" font-size="16.00" fill="#ff007f">grad &#45;10.0</text>
</g>
<!-- 130467478384576^2 -->
<g id="node24" class="node">
<title>130467478384576^2</title>
<ellipse fill="none" stroke="#9700ff" stroke-width="3" cx="833" cy="-110.5" rx="27" ry="18.27"/>
<text text-anchor="middle" x="833" y="-106.7" font-family="Lab Grotesque K" font-size="16.00" fill="#ff007f">^2</text>
</g>
<!-- 130470642713136&#45;&gt;130467478384576^2 -->
<g id="edge19" class="edge">
<title>130470642713136&#45;&gt;130467478384576^2</title>
<path fill="none" stroke="#9700ff" stroke-width="3" d="M767.72,-110.5C777.22,-110.5 786.81,-110.5 795.57,-110.5"/>
<polygon fill="#9700ff" stroke="#9700ff" stroke-width="3" points="795.79,-114 805.79,-110.5 795.79,-107 795.79,-114"/>
</g>
<!-- 130470642713136&#45; -->
<g id="node2" class="node">
<title>130470642713136&#45;</title>
<ellipse fill="none" stroke="#9700ff" stroke-width="3" cx="582" cy="-110.5" rx="27" ry="18.27"/>
<text text-anchor="middle" x="582" y="-106.7" font-family="Lab Grotesque K" font-size="16.00" fill="#ff007f">&#45;</text>
</g>
<!-- 130470642713136&#45;&#45;&gt;130470642713136 -->
<g id="edge1" class="edge">
<title>130470642713136&#45;&#45;&gt;130470642713136</title>
<path fill="none" stroke="#9700ff" stroke-width="3" d="M609.19,-110.5C617.58,-110.5 627.3,-110.5 637.28,-110.5"/>
<polygon fill="#9700ff" stroke="#9700ff" stroke-width="3" points="637.32,-114 647.32,-110.5 637.32,-107 637.32,-114"/>
</g>
<!-- 130467478201424 -->
<g id="node3" class="node">
<title>130467478201424</title>
<polygon fill="none" stroke="#9700ff" stroke-width="3" points="0,-226.5 0,-278.5 83,-278.5 83,-226.5 0,-226.5"/>
<text text-anchor="middle" x="41.5" y="-261.7" font-family="Lab Grotesque K" font-size="16.00" fill="#ff007f">x0</text>
<polyline fill="none" stroke="#9700ff" stroke-width="3" points="0,-252.5 83,-252.5 "/>
<text text-anchor="middle" x="41.5" y="-235.7" font-family="Lab Grotesque K" font-size="16.00" fill="#ff007f">data 0.25</text>
</g>
<!-- 130467478198016* -->
<g id="node12" class="node">
<title>130467478198016*</title>
<ellipse fill="none" stroke="#9700ff" stroke-width="3" cx="146" cy="-252.5" rx="27" ry="18.27"/>
<text text-anchor="middle" x="146" y="-248.7" font-family="Lab Grotesque K" font-size="16.00" fill="#ff007f">*</text>
</g>
<!-- 130467478201424&#45;&gt;130467478198016* -->
<g id="edge17" class="edge">
<title>130467478201424&#45;&gt;130467478198016*</title>
<path fill="none" stroke="#9700ff" stroke-width="3" d="M83.01,-252.5C91.51,-252.5 100.42,-252.5 108.75,-252.5"/>
<polygon fill="#9700ff" stroke="#9700ff" stroke-width="3" points="108.92,-256 118.92,-252.5 108.92,-249 108.92,-256"/>
</g>
<!-- 130468567578720 -->
<g id="node4" class="node">
<title>130468567578720</title>
<polygon fill="none" stroke="#9700ff" stroke-width="3" points="214,-23.5 214,-101.5 295,-101.5 295,-23.5 214,-23.5"/>
<text text-anchor="middle" x="254.5" y="-84.7" font-family="Lab Grotesque K" font-size="16.00" fill="#ff007f">a * x1</text>
<polyline fill="none" stroke="#9700ff" stroke-width="3" points="214,-75.5 295,-75.5 "/>
<text text-anchor="middle" x="254.5" y="-58.7" font-family="Lab Grotesque K" font-size="16.00" fill="#ff007f">data 2.0</text>
<polyline fill="none" stroke="#9700ff" stroke-width="3" points="214,-49.5 295,-49.5 "/>
<text text-anchor="middle" x="254.5" y="-32.7" font-family="Lab Grotesque K" font-size="16.00" fill="#ff007f">grad 10.0</text>
</g>
<!-- 130470792641424+ -->
<g id="node22" class="node">
<title>130470792641424+</title>
<ellipse fill="none" stroke="#9700ff" stroke-width="3" cx="363" cy="-110.5" rx="27" ry="18.27"/>
<text text-anchor="middle" x="363" y="-106.7" font-family="Lab Grotesque K" font-size="16.00" fill="#ff007f">+</text>
</g>
<!-- 130468567578720&#45;&gt;130470792641424+ -->
<g id="edge22" class="edge">
<title>130468567578720&#45;&gt;130470792641424+</title>
<path fill="none" stroke="#9700ff" stroke-width="3" d="M295.16,-80.37C306.87,-85.65 319.52,-91.35 330.63,-96.36"/>
<polygon fill="#9700ff" stroke="#9700ff" stroke-width="3" points="329.38,-99.64 339.93,-100.55 332.25,-93.25 329.38,-99.64"/>
</g>
<!-- 130468567578720* -->
<g id="node5" class="node">
<title>130468567578720*</title>
<ellipse fill="none" stroke="#9700ff" stroke-width="3" cx="146" cy="-65.5" rx="27" ry="18.27"/>
<text text-anchor="middle" x="146" y="-61.7" font-family="Lab Grotesque K" font-size="16.00" fill="#ff007f">*</text>
</g>
<!-- 130468567578720*&#45;&gt;130468567578720 -->
<g id="edge2" class="edge">
<title>130468567578720*&#45;&gt;130468567578720</title>
<path fill="none" stroke="#9700ff" stroke-width="3" d="M173.05,-64.77C182.29,-64.51 193.03,-64.2 203.58,-63.91"/>
<polygon fill="#9700ff" stroke="#9700ff" stroke-width="3" points="203.7,-67.4 213.6,-63.62 203.5,-60.41 203.7,-67.4"/>
</g>
<!-- 130467478201952 -->
<g id="node6" class="node">
<title>130467478201952</title>
<polygon fill="none" stroke="#9700ff" stroke-width="3" points="4.5,-39.5 4.5,-91.5 78.5,-91.5 78.5,-39.5 4.5,-39.5"/>
<text text-anchor="middle" x="41.5" y="-74.7" font-family="Lab Grotesque K" font-size="16.00" fill="#ff007f">x1</text>
<polyline fill="none" stroke="#9700ff" stroke-width="3" points="4.5,-65.5 78.5,-65.5 "/>
<text text-anchor="middle" x="41.5" y="-48.7" font-family="Lab Grotesque K" font-size="16.00" fill="#ff007f">data 0.5</text>
</g>
<!-- 130467478201952&#45;&gt;130468567578720* -->
<g id="edge13" class="edge">
<title>130467478201952&#45;&gt;130468567578720*</title>
<path fill="none" stroke="#9700ff" stroke-width="3" d="M78.64,-65.5C88.37,-65.5 98.91,-65.5 108.65,-65.5"/>
<polygon fill="#9700ff" stroke="#9700ff" stroke-width="3" points="108.85,-69 118.85,-65.5 108.85,-62 108.85,-69"/>
</g>
<!-- 130468566855808 -->
<g id="node7" class="node">
<title>130468566855808</title>
<polygon fill="none" stroke="#9700ff" stroke-width="3" points="645,-168.5 645,-246.5 770,-246.5 770,-168.5 645,-168.5"/>
<text text-anchor="middle" x="707.5" y="-229.7" font-family="Lab Grotesque K" font-size="16.00" fill="#ff007f">y0 &#45; (a * x0 + b)</text>
<polyline fill="none" stroke="#9700ff" stroke-width="3" points="645,-220.5 770,-220.5 "/>
<text text-anchor="middle" x="707.5" y="-203.7" font-family="Lab Grotesque K" font-size="16.00" fill="#ff007f">data &#45;4.48</text>
<polyline fill="none" stroke="#9700ff" stroke-width="3" points="645,-194.5 770,-194.5 "/>
<text text-anchor="middle" x="707.5" y="-177.7" font-family="Lab Grotesque K" font-size="16.00" fill="#ff007f">grad &#45;8.96</text>
</g>
<!-- 130468555892608^2 -->
<g id="node20" class="node">
<title>130468555892608^2</title>
<ellipse fill="none" stroke="#9700ff" stroke-width="3" cx="833" cy="-207.5" rx="27" ry="18.27"/>
<text text-anchor="middle" x="833" y="-203.7" font-family="Lab Grotesque K" font-size="16.00" fill="#ff007f">^2</text>
</g>
<!-- 130468566855808&#45;&gt;130468555892608^2 -->
<g id="edge10" class="edge">
<title>130468566855808&#45;&gt;130468555892608^2</title>
<path fill="none" stroke="#9700ff" stroke-width="3" d="M770.25,-207.5C778.97,-207.5 787.69,-207.5 795.72,-207.5"/>
<polygon fill="#9700ff" stroke="#9700ff" stroke-width="3" points="795.81,-211 805.81,-207.5 795.81,-204 795.81,-211"/>
</g>
<!-- 130468566855808&#45; -->
<g id="node8" class="node">
<title>130468566855808&#45;</title>
<ellipse fill="none" stroke="#9700ff" stroke-width="3" cx="582" cy="-207.5" rx="27" ry="18.27"/>
<text text-anchor="middle" x="582" y="-203.7" font-family="Lab Grotesque K" font-size="16.00" fill="#ff007f">&#45;</text>
</g>
<!-- 130468566855808&#45;&#45;&gt;130468566855808 -->
<g id="edge3" class="edge">
<title>130468566855808&#45;&#45;&gt;130468566855808</title>
<path fill="none" stroke="#9700ff" stroke-width="3" d="M609.19,-207.5C616.8,-207.5 625.51,-207.5 634.52,-207.5"/>
<polygon fill="#9700ff" stroke="#9700ff" stroke-width="3" points="634.77,-211 644.77,-207.5 634.77,-204 634.77,-211"/>
</g>
<!-- 130467478204064 -->
<g id="node9" class="node">
<title>130467478204064</title>
<polygon fill="none" stroke="#9700ff" stroke-width="3" points="437,-0.5 437,-52.5 508,-52.5 508,-0.5 437,-0.5"/>
<text text-anchor="middle" x="472.5" y="-35.7" font-family="Lab Grotesque K" font-size="16.00" fill="#ff007f">y1</text>
<polyline fill="none" stroke="#9700ff" stroke-width="3" points="437,-26.5 508,-26.5 "/>
<text text-anchor="middle" x="472.5" y="-9.7" font-family="Lab Grotesque K" font-size="16.00" fill="#ff007f">data 1.0</text>
</g>
<!-- 130467478204064&#45;&gt;130470642713136&#45; -->
<g id="edge20" class="edge">
<title>130467478204064&#45;&gt;130470642713136&#45;</title>
<path fill="none" stroke="#9700ff" stroke-width="3" d="M506.92,-52.62C522.59,-64.86 540.95,-79.21 555.48,-90.56"/>
<polygon fill="#9700ff" stroke="#9700ff" stroke-width="3" points="553.5,-93.45 563.53,-96.85 557.81,-87.94 553.5,-93.45"/>
</g>
<!-- 130467478204592 -->
<g id="node10" class="node">
<title>130467478204592</title>
<polygon fill="none" stroke="#9700ff" stroke-width="3" points="1.5,-123.5 1.5,-201.5 81.5,-201.5 81.5,-123.5 1.5,-123.5"/>
<text text-anchor="middle" x="41.5" y="-184.7" font-family="Lab Grotesque K" font-size="16.00" fill="#ff007f">a</text>
<polyline fill="none" stroke="#9700ff" stroke-width="3" points="1.5,-175.5 81.5,-175.5 "/>
<text text-anchor="middle" x="41.5" y="-158.7" font-family="Lab Grotesque K" font-size="16.00" fill="#ff007f">data 4.0</text>
<polyline fill="none" stroke="#9700ff" stroke-width="3" points="1.5,-149.5 81.5,-149.5 "/>
<text text-anchor="middle" x="41.5" y="-132.7" font-family="Lab Grotesque K" font-size="16.00" fill="#ff007f">grad 7.24</text>
</g>
<!-- 130467478204592&#45;&gt;130468567578720* -->
<g id="edge23" class="edge">
<title>130467478204592&#45;&gt;130468567578720*</title>
<path fill="none" stroke="#9700ff" stroke-width="3" d="M81.54,-125.55C95.19,-112.64 110.06,-98.57 121.97,-87.29"/>
<polygon fill="#9700ff" stroke="#9700ff" stroke-width="3" points="124.47,-89.74 129.33,-80.33 119.66,-84.66 124.47,-89.74"/>
</g>
<!-- 130467478204592&#45;&gt;130467478198016* -->
<g id="edge12" class="edge">
<title>130467478204592&#45;&gt;130467478198016*</title>
<path fill="none" stroke="#9700ff" stroke-width="3" d="M81.54,-196.78C94.87,-208.49 109.37,-221.22 121.14,-231.55"/>
<polygon fill="#9700ff" stroke="#9700ff" stroke-width="3" points="118.99,-234.32 128.81,-238.28 123.6,-229.06 118.99,-234.32"/>
</g>
<!-- 130467478198016 -->
<g id="node11" class="node">
<title>130467478198016</title>
<polygon fill="none" stroke="#9700ff" stroke-width="3" points="213,-217.5 213,-295.5 296,-295.5 296,-217.5 213,-217.5"/>
<text text-anchor="middle" x="254.5" y="-278.7" font-family="Lab Grotesque K" font-size="16.00" fill="#ff007f">a * x0</text>
<polyline fill="none" stroke="#9700ff" stroke-width="3" points="213,-269.5 296,-269.5 "/>
<text text-anchor="middle" x="254.5" y="-252.7" font-family="Lab Grotesque K" font-size="16.00" fill="#ff007f">data 1.0</text>
<polyline fill="none" stroke="#9700ff" stroke-width="3" points="213,-243.5 296,-243.5 "/>
<text text-anchor="middle" x="254.5" y="-226.7" font-family="Lab Grotesque K" font-size="16.00" fill="#ff007f">grad 8.96</text>
</g>
<!-- 130467478205264+ -->
<g id="node18" class="node">
<title>130467478205264+</title>
<ellipse fill="none" stroke="#9700ff" stroke-width="3" cx="363" cy="-207.5" rx="27" ry="18.27"/>
<text text-anchor="middle" x="363" y="-203.7" font-family="Lab Grotesque K" font-size="16.00" fill="#ff007f">+</text>
</g>
<!-- 130467478198016&#45;&gt;130467478205264+ -->
<g id="edge24" class="edge">
<title>130467478198016&#45;&gt;130467478205264+</title>
<path fill="none" stroke="#9700ff" stroke-width="3" d="M296.07,-237.84C307.61,-232.52 320.01,-226.82 330.9,-221.81"/>
<polygon fill="#9700ff" stroke="#9700ff" stroke-width="3" points="332.4,-224.97 340.02,-217.61 329.47,-218.61 332.4,-224.97"/>
</g>
<!-- 130467478198016*&#45;&gt;130467478198016 -->
<g id="edge4" class="edge">
<title>130467478198016*&#45;&gt;130467478198016</title>
<path fill="none" stroke="#9700ff" stroke-width="3" d="M173.05,-253.48C182.01,-253.82 192.38,-254.2 202.62,-254.59"/>
<polygon fill="#9700ff" stroke="#9700ff" stroke-width="3" points="202.65,-258.09 212.78,-254.97 202.91,-251.1 202.65,-258.09"/>
</g>
<!-- 130467478374160 -->
<g id="node13" class="node">
<title>130467478374160</title>
<polygon fill="none" stroke="#9700ff" stroke-width="3" points="1183,-119.5 1183,-197.5 1273,-197.5 1273,-119.5 1183,-119.5"/>
<text text-anchor="middle" x="1228" y="-180.7" font-family="Lab Grotesque K" font-size="16.00" fill="#ff007f">L</text>
<polyline fill="none" stroke="#9700ff" stroke-width="3" points="1183,-171.5 1273,-171.5 "/>
<text text-anchor="middle" x="1228" y="-154.7" font-family="Lab Grotesque K" font-size="16.00" fill="#ff007f">data 45.07</text>
<polyline fill="none" stroke="#9700ff" stroke-width="3" points="1183,-145.5 1273,-145.5 "/>
<text text-anchor="middle" x="1228" y="-128.7" font-family="Lab Grotesque K" font-size="16.00" fill="#ff007f">grad 1</text>
</g>
<!-- 130467478374160+ -->
<g id="node14" class="node">
<title>130467478374160+</title>
<ellipse fill="none" stroke="#9700ff" stroke-width="3" cx="1120" cy="-158.5" rx="27" ry="18.27"/>
<text text-anchor="middle" x="1120" y="-154.7" font-family="Lab Grotesque K" font-size="16.00" fill="#ff007f">+</text>
</g>
<!-- 130467478374160+&#45;&gt;130467478374160 -->
<g id="edge5" class="edge">
<title>130467478374160+&#45;&gt;130467478374160</title>
<path fill="none" stroke="#9700ff" stroke-width="3" d="M1147.2,-158.5C1155.04,-158.5 1163.94,-158.5 1172.89,-158.5"/>
<polygon fill="#9700ff" stroke="#9700ff" stroke-width="3" points="1172.95,-162 1182.95,-158.5 1172.95,-155 1172.95,-162"/>
</g>
<!-- 130467478206752 -->
<g id="node15" class="node">
<title>130467478206752</title>
<polygon fill="none" stroke="#9700ff" stroke-width="3" points="431,-265.5 431,-317.5 514,-317.5 514,-265.5 431,-265.5"/>
<text text-anchor="middle" x="472.5" y="-300.7" font-family="Lab Grotesque K" font-size="16.00" fill="#ff007f">y0</text>
<polyline fill="none" stroke="#9700ff" stroke-width="3" points="431,-291.5 514,-291.5 "/>
<text text-anchor="middle" x="472.5" y="-274.7" font-family="Lab Grotesque K" font-size="16.00" fill="#ff007f">data 0.52</text>
</g>
<!-- 130467478206752&#45;&gt;130468566855808&#45; -->
<g id="edge11" class="edge">
<title>130467478206752&#45;&gt;130468566855808&#45;</title>
<path fill="none" stroke="#9700ff" stroke-width="3" d="M507.82,-265.17C511.6,-262.25 515.38,-259.32 519,-256.5 531.07,-247.09 544.4,-236.57 555.59,-227.71"/>
<polygon fill="#9700ff" stroke="#9700ff" stroke-width="3" points="558.02,-230.25 563.68,-221.29 553.67,-224.76 558.02,-230.25"/>
</g>
<!-- 130469127128320 -->
<g id="node16" class="node">
<title>130469127128320</title>
<polygon fill="none" stroke="#9700ff" stroke-width="3" points="209,-120.5 209,-198.5 300,-198.5 300,-120.5 209,-120.5"/>
<text text-anchor="middle" x="254.5" y="-181.7" font-family="Lab Grotesque K" font-size="16.00" fill="#ff007f">b</text>
<polyline fill="none" stroke="#9700ff" stroke-width="3" points="209,-172.5 300,-172.5 "/>
<text text-anchor="middle" x="254.5" y="-155.7" font-family="Lab Grotesque K" font-size="16.00" fill="#ff007f">data 4.0</text>
<polyline fill="none" stroke="#9700ff" stroke-width="3" points="209,-146.5 300,-146.5 "/>
<text text-anchor="middle" x="254.5" y="-129.7" font-family="Lab Grotesque K" font-size="16.00" fill="#ff007f">grad 18.96</text>
</g>
<!-- 130469127128320&#45;&gt;130467478205264+ -->
<g id="edge15" class="edge">
<title>130469127128320&#45;&gt;130467478205264+</title>
<path fill="none" stroke="#9700ff" stroke-width="3" d="M300.05,-179.58C310.39,-184.24 321.19,-189.11 330.82,-193.45"/>
<polygon fill="#9700ff" stroke="#9700ff" stroke-width="3" points="329.44,-196.66 339.99,-197.58 332.32,-190.28 329.44,-196.66"/>
</g>
<!-- 130469127128320&#45;&gt;130470792641424+ -->
<g id="edge18" class="edge">
<title>130469127128320&#45;&gt;130470792641424+</title>
<path fill="none" stroke="#9700ff" stroke-width="3" d="M300.05,-139C310.48,-134.2 321.37,-129.19 331.05,-124.74"/>
<polygon fill="#9700ff" stroke="#9700ff" stroke-width="3" points="332.66,-127.85 340.28,-120.49 329.73,-121.49 332.66,-127.85"/>
</g>
<!-- 130467478205264 -->
<g id="node17" class="node">
<title>130467478205264</title>
<polygon fill="none" stroke="#9700ff" stroke-width="3" points="426,-168.5 426,-246.5 519,-246.5 519,-168.5 426,-168.5"/>
<text text-anchor="middle" x="472.5" y="-229.7" font-family="Lab Grotesque K" font-size="16.00" fill="#ff007f">(a * x0 + b)</text>
<polyline fill="none" stroke="#9700ff" stroke-width="3" points="426,-220.5 519,-220.5 "/>
<text text-anchor="middle" x="472.5" y="-203.7" font-family="Lab Grotesque K" font-size="16.00" fill="#ff007f">data 5.0</text>
<polyline fill="none" stroke="#9700ff" stroke-width="3" points="426,-194.5 519,-194.5 "/>
<text text-anchor="middle" x="472.5" y="-177.7" font-family="Lab Grotesque K" font-size="16.00" fill="#ff007f">grad 8.96</text>
</g>
<!-- 130467478205264&#45;&gt;130468566855808&#45; -->
<g id="edge25" class="edge">
<title>130467478205264&#45;&gt;130468566855808&#45;</title>
<path fill="none" stroke="#9700ff" stroke-width="3" d="M519.09,-207.5C527.7,-207.5 536.6,-207.5 544.87,-207.5"/>
<polygon fill="#9700ff" stroke="#9700ff" stroke-width="3" points="544.94,-211 554.94,-207.5 544.94,-204 544.94,-211"/>
</g>
<!-- 130467478205264+&#45;&gt;130467478205264 -->
<g id="edge6" class="edge">
<title>130467478205264+&#45;&gt;130467478205264</title>
<path fill="none" stroke="#9700ff" stroke-width="3" d="M390.02,-207.5C397.88,-207.5 406.82,-207.5 415.84,-207.5"/>
<polygon fill="#9700ff" stroke="#9700ff" stroke-width="3" points="415.99,-211 425.99,-207.5 415.99,-204 415.99,-211"/>
</g>
<!-- 130468555892608 -->
<g id="node19" class="node">
<title>130468555892608</title>
<polygon fill="none" stroke="#9700ff" stroke-width="3" points="896,-168.5 896,-246.5 1057,-246.5 1057,-168.5 896,-168.5"/>
<text text-anchor="middle" x="976.5" y="-229.7" font-family="Lab Grotesque K" font-size="16.00" fill="#ff007f">(y0 &#45; (a * x0 + b)) ^ 2</text>
<polyline fill="none" stroke="#9700ff" stroke-width="3" points="896,-220.5 1057,-220.5 "/>
<text text-anchor="middle" x="976.5" y="-203.7" font-family="Lab Grotesque K" font-size="16.00" fill="#ff007f">data 20.09</text>
<polyline fill="none" stroke="#9700ff" stroke-width="3" points="896,-194.5 1057,-194.5 "/>
<text text-anchor="middle" x="976.5" y="-177.7" font-family="Lab Grotesque K" font-size="16.00" fill="#ff007f">grad 1</text>
</g>
<!-- 130468555892608&#45;&gt;130467478374160+ -->
<g id="edge16" class="edge">
<title>130468555892608&#45;&gt;130467478374160+</title>
<path fill="none" stroke="#9700ff" stroke-width="3" d="M1057.35,-179.85C1067.35,-176.39 1077.11,-173.01 1085.8,-170"/>
<polygon fill="#9700ff" stroke="#9700ff" stroke-width="3" points="1087.16,-173.23 1095.46,-166.65 1084.87,-166.62 1087.16,-173.23"/>
</g>
<!-- 130468555892608^2&#45;&gt;130468555892608 -->
<g id="edge7" class="edge">
<title>130468555892608^2&#45;&gt;130468555892608</title>
<path fill="none" stroke="#9700ff" stroke-width="3" d="M860.28,-207.5C867.85,-207.5 876.57,-207.5 885.74,-207.5"/>
<polygon fill="#9700ff" stroke="#9700ff" stroke-width="3" points="885.85,-211 895.85,-207.5 885.85,-204 885.85,-211"/>
</g>
<!-- 130470792641424 -->
<g id="node21" class="node">
<title>130470792641424</title>
<polygon fill="none" stroke="#9700ff" stroke-width="3" points="427,-71.5 427,-149.5 518,-149.5 518,-71.5 427,-71.5"/>
<text text-anchor="middle" x="472.5" y="-132.7" font-family="Lab Grotesque K" font-size="16.00" fill="#ff007f">(a * x1 + b)</text>
<polyline fill="none" stroke="#9700ff" stroke-width="3" points="427,-123.5 518,-123.5 "/>
<text text-anchor="middle" x="472.5" y="-106.7" font-family="Lab Grotesque K" font-size="16.00" fill="#ff007f">data 6.0</text>
<polyline fill="none" stroke="#9700ff" stroke-width="3" points="427,-97.5 518,-97.5 "/>
<text text-anchor="middle" x="472.5" y="-80.7" font-family="Lab Grotesque K" font-size="16.00" fill="#ff007f">grad 10.0</text>
</g>
<!-- 130470792641424&#45;&gt;130470642713136&#45; -->
<g id="edge14" class="edge">
<title>130470792641424&#45;&gt;130470642713136&#45;</title>
<path fill="none" stroke="#9700ff" stroke-width="3" d="M518.16,-110.5C527.01,-110.5 536.21,-110.5 544.75,-110.5"/>
<polygon fill="#9700ff" stroke="#9700ff" stroke-width="3" points="544.77,-114 554.77,-110.5 544.77,-107 544.77,-114"/>
</g>
<!-- 130470792641424+&#45;&gt;130470792641424 -->
<g id="edge8" class="edge">
<title>130470792641424+&#45;&gt;130470792641424</title>
<path fill="none" stroke="#9700ff" stroke-width="3" d="M390.02,-110.5C398.15,-110.5 407.43,-110.5 416.76,-110.5"/>
<polygon fill="#9700ff" stroke="#9700ff" stroke-width="3" points="416.84,-114 426.84,-110.5 416.84,-107 416.84,-114"/>
</g>
<!-- 130467478384576 -->
<g id="node23" class="node">
<title>130467478384576</title>
<polygon fill="none" stroke="#9700ff" stroke-width="3" points="898,-71.5 898,-149.5 1055,-149.5 1055,-71.5 898,-71.5"/>
<text text-anchor="middle" x="976.5" y="-132.7" font-family="Lab Grotesque K" font-size="16.00" fill="#ff007f">(y1 &#45; (a * x1 + b)) ^ 2</text>
<polyline fill="none" stroke="#9700ff" stroke-width="3" points="898,-123.5 1055,-123.5 "/>
<text text-anchor="middle" x="976.5" y="-106.7" font-family="Lab Grotesque K" font-size="16.00" fill="#ff007f">data 24.98</text>
<polyline fill="none" stroke="#9700ff" stroke-width="3" points="898,-97.5 1055,-97.5 "/>
<text text-anchor="middle" x="976.5" y="-80.7" font-family="Lab Grotesque K" font-size="16.00" fill="#ff007f">grad 1</text>
</g>
<!-- 130467478384576&#45;&gt;130467478374160+ -->
<g id="edge21" class="edge">
<title>130467478384576&#45;&gt;130467478374160+</title>
<path fill="none" stroke="#9700ff" stroke-width="3" d="M1055.29,-136.89C1066.04,-140.53 1076.57,-144.11 1085.88,-147.27"/>
<polygon fill="#9700ff" stroke="#9700ff" stroke-width="3" points="1084.86,-150.61 1095.45,-150.51 1087.11,-143.99 1084.86,-150.61"/>
</g>
<!-- 130467478384576^2&#45;&gt;130467478384576 -->
<g id="edge9" class="edge">
<title>130467478384576^2&#45;&gt;130467478384576</title>
<path fill="none" stroke="#9700ff" stroke-width="3" d="M860.28,-110.5C868.44,-110.5 877.91,-110.5 887.86,-110.5"/>
<polygon fill="#9700ff" stroke="#9700ff" stroke-width="3" points="887.94,-114 897.94,-110.5 887.94,-107 887.94,-114"/>
</g>
</g>
</svg>
