<?xml version="1.0" encoding="UTF-8" standalone="no"?>
<!DOCTYPE svg PUBLIC "-//W3C//DTD SVG 1.1//EN"
 "http://www.w3.org/Graphics/SVG/1.1/DTD/svg11.dtd">
<!-- Generated by graphviz version 2.43.0 (0)
 -->
<!-- Title: %3 Pages: 1 -->
<svg width="1264pt" height="274pt"
 viewBox="0.00 0.00 1264.00 274.00" xmlns="http://www.w3.org/2000/svg" xmlns:xlink="http://www.w3.org/1999/xlink">
<g id="graph0" class="graph" transform="scale(1 1) rotate(0) translate(4 270)">
<title>%3</title>
<!-- 130470642713136 -->
<g id="node1" class="node">
<title>130470642713136</title>
<polygon fill="none" stroke="#9700ff" stroke-width="3" points="630.5,-71.5 630.5,-123.5 750.5,-123.5 750.5,-71.5 630.5,-71.5"/>
<text text-anchor="middle" x="690.5" y="-106.7" font-family="Lab Grotesque K" font-size="16.00" fill="#ff007f">y1 &#45; (a * x1 + b)</text>
<polyline fill="none" stroke="#9700ff" stroke-width="3" points="630.5,-97.5 750.5,-97.5 "/>
<text text-anchor="middle" x="690.5" y="-80.7" font-family="Lab Grotesque K" font-size="16.00" fill="#ff007f">data &#45;5.0</text>
</g>
<!-- 130467478384576^2 -->
<g id="node24" class="node">
<title>130467478384576^2</title>
<ellipse fill="none" stroke="#9700ff" stroke-width="3" cx="816" cy="-97.5" rx="27" ry="18.27"/>
<text text-anchor="middle" x="816" y="-93.7" font-family="Lab Grotesque K" font-size="16.00" fill="#ff007f">^2</text>
</g>
<!-- 130470642713136&#45;&gt;130467478384576^2 -->
<g id="edge19" class="edge">
<title>130470642713136&#45;&gt;130467478384576^2</title>
<path fill="none" stroke="#9700ff" stroke-width="3" d="M750.72,-97.5C760.22,-97.5 769.81,-97.5 778.57,-97.5"/>
<polygon fill="#9700ff" stroke="#9700ff" stroke-width="3" points="778.79,-101 788.79,-97.5 778.79,-94 778.79,-101"/>
</g>
<!-- 130470642713136&#45; -->
<g id="node2" class="node">
<title>130470642713136&#45;</title>
<ellipse fill="none" stroke="#9700ff" stroke-width="3" cx="565" cy="-97.5" rx="27" ry="18.27"/>
<text text-anchor="middle" x="565" y="-93.7" font-family="Lab Grotesque K" font-size="16.00" fill="#ff007f">&#45;</text>
</g>
<!-- 130470642713136&#45;&#45;&gt;130470642713136 -->
<g id="edge1" class="edge">
<title>130470642713136&#45;&#45;&gt;130470642713136</title>
<path fill="none" stroke="#9700ff" stroke-width="3" d="M592.19,-97.5C600.58,-97.5 610.3,-97.5 620.28,-97.5"/>
<polygon fill="#9700ff" stroke="#9700ff" stroke-width="3" points="620.32,-101 630.32,-97.5 620.32,-94 620.32,-101"/>
</g>
<!-- 130467478201424 -->
<g id="node3" class="node">
<title>130467478201424</title>
<polygon fill="none" stroke="#9700ff" stroke-width="3" points="0,-178.5 0,-230.5 83,-230.5 83,-178.5 0,-178.5"/>
<text text-anchor="middle" x="41.5" y="-213.7" font-family="Lab Grotesque K" font-size="16.00" fill="#ff007f">x0</text>
<polyline fill="none" stroke="#9700ff" stroke-width="3" points="0,-204.5 83,-204.5 "/>
<text text-anchor="middle" x="41.5" y="-187.7" font-family="Lab Grotesque K" font-size="16.00" fill="#ff007f">data 0.25</text>
</g>
<!-- 130467478198016* -->
<g id="node12" class="node">
<title>130467478198016*</title>
<ellipse fill="none" stroke="#9700ff" stroke-width="3" cx="146" cy="-204.5" rx="27" ry="18.27"/>
<text text-anchor="middle" x="146" y="-200.7" font-family="Lab Grotesque K" font-size="16.00" fill="#ff007f">*</text>
</g>
<!-- 130467478201424&#45;&gt;130467478198016* -->
<g id="edge17" class="edge">
<title>130467478201424&#45;&gt;130467478198016*</title>
<path fill="none" stroke="#9700ff" stroke-width="3" d="M83.01,-204.5C91.51,-204.5 100.42,-204.5 108.75,-204.5"/>
<polygon fill="#9700ff" stroke="#9700ff" stroke-width="3" points="108.92,-208 118.92,-204.5 108.92,-201 108.92,-208"/>
</g>
<!-- 130468567578720 -->
<g id="node4" class="node">
<title>130468567578720</title>
<polygon fill="none" stroke="#9700ff" stroke-width="3" points="209,-36.5 209,-88.5 283,-88.5 283,-36.5 209,-36.5"/>
<text text-anchor="middle" x="246" y="-71.7" font-family="Lab Grotesque K" font-size="16.00" fill="#ff007f">a * x1</text>
<polyline fill="none" stroke="#9700ff" stroke-width="3" points="209,-62.5 283,-62.5 "/>
<text text-anchor="middle" x="246" y="-45.7" font-family="Lab Grotesque K" font-size="16.00" fill="#ff007f">data 2.0</text>
</g>
<!-- 130470792641424+ -->
<g id="node22" class="node">
<title>130470792641424+</title>
<ellipse fill="none" stroke="#9700ff" stroke-width="3" cx="346" cy="-97.5" rx="27" ry="18.27"/>
<text text-anchor="middle" x="346" y="-93.7" font-family="Lab Grotesque K" font-size="16.00" fill="#ff007f">+</text>
</g>
<!-- 130468567578720&#45;&gt;130470792641424+ -->
<g id="edge22" class="edge">
<title>130468567578720&#45;&gt;130470792641424+</title>
<path fill="none" stroke="#9700ff" stroke-width="3" d="M283.21,-75.43C292.66,-78.81 302.79,-82.43 312.06,-85.74"/>
<polygon fill="#9700ff" stroke="#9700ff" stroke-width="3" points="311.12,-89.12 321.71,-89.18 313.47,-82.52 311.12,-89.12"/>
</g>
<!-- 130468567578720* -->
<g id="node5" class="node">
<title>130468567578720*</title>
<ellipse fill="none" stroke="#9700ff" stroke-width="3" cx="146" cy="-62.5" rx="27" ry="18.27"/>
<text text-anchor="middle" x="146" y="-58.7" font-family="Lab Grotesque K" font-size="16.00" fill="#ff007f">*</text>
</g>
<!-- 130468567578720*&#45;&gt;130468567578720 -->
<g id="edge2" class="edge">
<title>130468567578720*&#45;&gt;130468567578720</title>
<path fill="none" stroke="#9700ff" stroke-width="3" d="M173,-62.5C180.91,-62.5 189.85,-62.5 198.68,-62.5"/>
<polygon fill="#9700ff" stroke="#9700ff" stroke-width="3" points="198.91,-66 208.91,-62.5 198.91,-59 198.91,-66"/>
</g>
<!-- 130467478201952 -->
<g id="node6" class="node">
<title>130467478201952</title>
<polygon fill="none" stroke="#9700ff" stroke-width="3" points="4.5,-36.5 4.5,-88.5 78.5,-88.5 78.5,-36.5 4.5,-36.5"/>
<text text-anchor="middle" x="41.5" y="-71.7" font-family="Lab Grotesque K" font-size="16.00" fill="#ff007f">x1</text>
<polyline fill="none" stroke="#9700ff" stroke-width="3" points="4.5,-62.5 78.5,-62.5 "/>
<text text-anchor="middle" x="41.5" y="-45.7" font-family="Lab Grotesque K" font-size="16.00" fill="#ff007f">data 0.5</text>
</g>
<!-- 130467478201952&#45;&gt;130468567578720* -->
<g id="edge13" class="edge">
<title>130467478201952&#45;&gt;130468567578720*</title>
<path fill="none" stroke="#9700ff" stroke-width="3" d="M78.64,-62.5C88.37,-62.5 98.91,-62.5 108.65,-62.5"/>
<polygon fill="#9700ff" stroke="#9700ff" stroke-width="3" points="108.85,-66 118.85,-62.5 108.85,-59 108.85,-66"/>
</g>
<!-- 130468566855808 -->
<g id="node7" class="node">
<title>130468566855808</title>
<polygon fill="none" stroke="#9700ff" stroke-width="3" points="628,-142.5 628,-194.5 753,-194.5 753,-142.5 628,-142.5"/>
<text text-anchor="middle" x="690.5" y="-177.7" font-family="Lab Grotesque K" font-size="16.00" fill="#ff007f">y0 &#45; (a * x0 + b)</text>
<polyline fill="none" stroke="#9700ff" stroke-width="3" points="628,-168.5 753,-168.5 "/>
<text text-anchor="middle" x="690.5" y="-151.7" font-family="Lab Grotesque K" font-size="16.00" fill="#ff007f">data &#45;4.48</text>
</g>
<!-- 130468555892608^2 -->
<g id="node20" class="node">
<title>130468555892608^2</title>
<ellipse fill="none" stroke="#9700ff" stroke-width="3" cx="816" cy="-168.5" rx="27" ry="18.27"/>
<text text-anchor="middle" x="816" y="-164.7" font-family="Lab Grotesque K" font-size="16.00" fill="#ff007f">^2</text>
</g>
<!-- 130468566855808&#45;&gt;130468555892608^2 -->
<g id="edge10" class="edge">
<title>130468566855808&#45;&gt;130468555892608^2</title>
<path fill="none" stroke="#9700ff" stroke-width="3" d="M753.25,-168.5C761.97,-168.5 770.69,-168.5 778.72,-168.5"/>
<polygon fill="#9700ff" stroke="#9700ff" stroke-width="3" points="778.81,-172 788.81,-168.5 778.81,-165 778.81,-172"/>
</g>
<!-- 130468566855808&#45; -->
<g id="node8" class="node">
<title>130468566855808&#45;</title>
<ellipse fill="none" stroke="#9700ff" stroke-width="3" cx="565" cy="-168.5" rx="27" ry="18.27"/>
<text text-anchor="middle" x="565" y="-164.7" font-family="Lab Grotesque K" font-size="16.00" fill="#ff007f">&#45;</text>
</g>
<!-- 130468566855808&#45;&#45;&gt;130468566855808 -->
<g id="edge3" class="edge">
<title>130468566855808&#45;&#45;&gt;130468566855808</title>
<path fill="none" stroke="#9700ff" stroke-width="3" d="M592.19,-168.5C599.8,-168.5 608.51,-168.5 617.52,-168.5"/>
<polygon fill="#9700ff" stroke="#9700ff" stroke-width="3" points="617.77,-172 627.77,-168.5 617.77,-165 617.77,-172"/>
</g>
<!-- 130467478204064 -->
<g id="node9" class="node">
<title>130467478204064</title>
<polygon fill="none" stroke="#9700ff" stroke-width="3" points="420,-0.5 420,-52.5 491,-52.5 491,-0.5 420,-0.5"/>
<text text-anchor="middle" x="455.5" y="-35.7" font-family="Lab Grotesque K" font-size="16.00" fill="#ff007f">y1</text>
<polyline fill="none" stroke="#9700ff" stroke-width="3" points="420,-26.5 491,-26.5 "/>
<text text-anchor="middle" x="455.5" y="-9.7" font-family="Lab Grotesque K" font-size="16.00" fill="#ff007f">data 1.0</text>
</g>
<!-- 130467478204064&#45;&gt;130470642713136&#45; -->
<g id="edge20" class="edge">
<title>130467478204064&#45;&gt;130470642713136&#45;</title>
<path fill="none" stroke="#9700ff" stroke-width="3" d="M491.11,-49.36C505.81,-59.07 522.71,-70.23 536.53,-79.36"/>
<polygon fill="#9700ff" stroke="#9700ff" stroke-width="3" points="534.84,-82.44 545.12,-85.03 538.7,-76.6 534.84,-82.44"/>
</g>
<!-- 130467478204592 -->
<g id="node10" class="node">
<title>130467478204592</title>
<polygon fill="none" stroke="#9700ff" stroke-width="3" points="4.5,-107.5 4.5,-159.5 78.5,-159.5 78.5,-107.5 4.5,-107.5"/>
<text text-anchor="middle" x="41.5" y="-142.7" font-family="Lab Grotesque K" font-size="16.00" fill="#ff007f">a</text>
<polyline fill="none" stroke="#9700ff" stroke-width="3" points="4.5,-133.5 78.5,-133.5 "/>
<text text-anchor="middle" x="41.5" y="-116.7" font-family="Lab Grotesque K" font-size="16.00" fill="#ff007f">data 4.0</text>
</g>
<!-- 130467478204592&#45;&gt;130468567578720* -->
<g id="edge23" class="edge">
<title>130467478204592&#45;&gt;130468567578720*</title>
<path fill="none" stroke="#9700ff" stroke-width="3" d="M78.64,-108.47C91.62,-99.47 106.03,-89.49 118.1,-81.14"/>
<polygon fill="#9700ff" stroke="#9700ff" stroke-width="3" points="120.18,-83.95 126.41,-75.38 116.2,-78.19 120.18,-83.95"/>
</g>
<!-- 130467478204592&#45;&gt;130467478198016* -->
<g id="edge12" class="edge">
<title>130467478204592&#45;&gt;130467478198016*</title>
<path fill="none" stroke="#9700ff" stroke-width="3" d="M78.64,-158.53C91.62,-167.53 106.03,-177.51 118.1,-185.86"/>
<polygon fill="#9700ff" stroke="#9700ff" stroke-width="3" points="116.2,-188.81 126.41,-191.62 120.18,-183.05 116.2,-188.81"/>
</g>
<!-- 130467478198016 -->
<g id="node11" class="node">
<title>130467478198016</title>
<polygon fill="none" stroke="#9700ff" stroke-width="3" points="210.5,-178.5 210.5,-230.5 281.5,-230.5 281.5,-178.5 210.5,-178.5"/>
<text text-anchor="middle" x="246" y="-213.7" font-family="Lab Grotesque K" font-size="16.00" fill="#ff007f">a * x0</text>
<polyline fill="none" stroke="#9700ff" stroke-width="3" points="210.5,-204.5 281.5,-204.5 "/>
<text text-anchor="middle" x="246" y="-187.7" font-family="Lab Grotesque K" font-size="16.00" fill="#ff007f">data 1.0</text>
</g>
<!-- 130467478205264+ -->
<g id="node18" class="node">
<title>130467478205264+</title>
<ellipse fill="none" stroke="#9700ff" stroke-width="3" cx="346" cy="-168.5" rx="27" ry="18.27"/>
<text text-anchor="middle" x="346" y="-164.7" font-family="Lab Grotesque K" font-size="16.00" fill="#ff007f">+</text>
</g>
<!-- 130467478198016&#45;&gt;130467478205264+ -->
<g id="edge24" class="edge">
<title>130467478198016&#45;&gt;130467478205264+</title>
<path fill="none" stroke="#9700ff" stroke-width="3" d="M281.55,-191.81C291.55,-188.13 302.44,-184.14 312.32,-180.5"/>
<polygon fill="#9700ff" stroke="#9700ff" stroke-width="3" points="313.62,-183.76 321.8,-177.02 311.21,-177.18 313.62,-183.76"/>
</g>
<!-- 130467478198016*&#45;&gt;130467478198016 -->
<g id="edge4" class="edge">
<title>130467478198016*&#45;&gt;130467478198016</title>
<path fill="none" stroke="#9700ff" stroke-width="3" d="M173,-204.5C181.42,-204.5 191,-204.5 200.36,-204.5"/>
<polygon fill="#9700ff" stroke="#9700ff" stroke-width="3" points="200.38,-208 210.38,-204.5 200.38,-201 200.38,-208"/>
</g>
<!-- 130467478374160 -->
<g id="node13" class="node">
<title>130467478374160</title>
<polygon fill="none" stroke="#9700ff" stroke-width="3" points="1166,-106.5 1166,-158.5 1256,-158.5 1256,-106.5 1166,-106.5"/>
<text text-anchor="middle" x="1211" y="-141.7" font-family="Lab Grotesque K" font-size="16.00" fill="#ff007f">L</text>
<polyline fill="none" stroke="#9700ff" stroke-width="3" points="1166,-132.5 1256,-132.5 "/>
<text text-anchor="middle" x="1211" y="-115.7" font-family="Lab Grotesque K" font-size="16.00" fill="#ff007f">data 45.07</text>
</g>
<!-- 130467478374160+ -->
<g id="node14" class="node">
<title>130467478374160+</title>
<ellipse fill="none" stroke="#9700ff" stroke-width="3" cx="1103" cy="-132.5" rx="27" ry="18.27"/>
<text text-anchor="middle" x="1103" y="-128.7" font-family="Lab Grotesque K" font-size="16.00" fill="#ff007f">+</text>
</g>
<!-- 130467478374160+&#45;&gt;130467478374160 -->
<g id="edge5" class="edge">
<title>130467478374160+&#45;&gt;130467478374160</title>
<path fill="none" stroke="#9700ff" stroke-width="3" d="M1130.2,-132.5C1138.04,-132.5 1146.94,-132.5 1155.89,-132.5"/>
<polygon fill="#9700ff" stroke="#9700ff" stroke-width="3" points="1155.95,-136 1165.95,-132.5 1155.95,-129 1155.95,-136"/>
</g>
<!-- 130467478206752 -->
<g id="node15" class="node">
<title>130467478206752</title>
<polygon fill="none" stroke="#9700ff" stroke-width="3" points="414,-213.5 414,-265.5 497,-265.5 497,-213.5 414,-213.5"/>
<text text-anchor="middle" x="455.5" y="-248.7" font-family="Lab Grotesque K" font-size="16.00" fill="#ff007f">y0</text>
<polyline fill="none" stroke="#9700ff" stroke-width="3" points="414,-239.5 497,-239.5 "/>
<text text-anchor="middle" x="455.5" y="-222.7" font-family="Lab Grotesque K" font-size="16.00" fill="#ff007f">data 0.52</text>
</g>
<!-- 130467478206752&#45;&gt;130468566855808&#45; -->
<g id="edge11" class="edge">
<title>130467478206752&#45;&gt;130468566855808&#45;</title>
<path fill="none" stroke="#9700ff" stroke-width="3" d="M495.92,-213.47C509.42,-204.55 524.22,-194.77 536.57,-186.62"/>
<polygon fill="#9700ff" stroke="#9700ff" stroke-width="3" points="538.65,-189.44 545.07,-181 534.79,-183.6 538.65,-189.44"/>
</g>
<!-- 130469127128320 -->
<g id="node16" class="node">
<title>130469127128320</title>
<polygon fill="none" stroke="#9700ff" stroke-width="3" points="209,-107.5 209,-159.5 283,-159.5 283,-107.5 209,-107.5"/>
<text text-anchor="middle" x="246" y="-142.7" font-family="Lab Grotesque K" font-size="16.00" fill="#ff007f">b</text>
<polyline fill="none" stroke="#9700ff" stroke-width="3" points="209,-133.5 283,-133.5 "/>
<text text-anchor="middle" x="246" y="-116.7" font-family="Lab Grotesque K" font-size="16.00" fill="#ff007f">data 4.0</text>
</g>
<!-- 130469127128320&#45;&gt;130467478205264+ -->
<g id="edge15" class="edge">
<title>130469127128320&#45;&gt;130467478205264+</title>
<path fill="none" stroke="#9700ff" stroke-width="3" d="M283.21,-146.43C292.66,-149.81 302.79,-153.43 312.06,-156.74"/>
<polygon fill="#9700ff" stroke="#9700ff" stroke-width="3" points="311.12,-160.12 321.71,-160.18 313.47,-153.52 311.12,-160.12"/>
</g>
<!-- 130469127128320&#45;&gt;130470792641424+ -->
<g id="edge18" class="edge">
<title>130469127128320&#45;&gt;130470792641424+</title>
<path fill="none" stroke="#9700ff" stroke-width="3" d="M283.21,-120.2C292.84,-116.66 303.18,-112.86 312.6,-109.4"/>
<polygon fill="#9700ff" stroke="#9700ff" stroke-width="3" points="313.82,-112.68 322,-105.95 311.41,-106.11 313.82,-112.68"/>
</g>
<!-- 130467478205264 -->
<g id="node17" class="node">
<title>130467478205264</title>
<polygon fill="none" stroke="#9700ff" stroke-width="3" points="409,-142.5 409,-194.5 502,-194.5 502,-142.5 409,-142.5"/>
<text text-anchor="middle" x="455.5" y="-177.7" font-family="Lab Grotesque K" font-size="16.00" fill="#ff007f">(a * x0 + b)</text>
<polyline fill="none" stroke="#9700ff" stroke-width="3" points="409,-168.5 502,-168.5 "/>
<text text-anchor="middle" x="455.5" y="-151.7" font-family="Lab Grotesque K" font-size="16.00" fill="#ff007f">data 5.0</text>
</g>
<!-- 130467478205264&#45;&gt;130468566855808&#45; -->
<g id="edge25" class="edge">
<title>130467478205264&#45;&gt;130468566855808&#45;</title>
<path fill="none" stroke="#9700ff" stroke-width="3" d="M502.09,-168.5C510.7,-168.5 519.6,-168.5 527.87,-168.5"/>
<polygon fill="#9700ff" stroke="#9700ff" stroke-width="3" points="527.94,-172 537.94,-168.5 527.94,-165 527.94,-172"/>
</g>
<!-- 130467478205264+&#45;&gt;130467478205264 -->
<g id="edge6" class="edge">
<title>130467478205264+&#45;&gt;130467478205264</title>
<path fill="none" stroke="#9700ff" stroke-width="3" d="M373.02,-168.5C380.88,-168.5 389.82,-168.5 398.84,-168.5"/>
<polygon fill="#9700ff" stroke="#9700ff" stroke-width="3" points="398.99,-172 408.99,-168.5 398.99,-165 398.99,-172"/>
</g>
<!-- 130468555892608 -->
<g id="node19" class="node">
<title>130468555892608</title>
<polygon fill="none" stroke="#9700ff" stroke-width="3" points="879,-142.5 879,-194.5 1040,-194.5 1040,-142.5 879,-142.5"/>
<text text-anchor="middle" x="959.5" y="-177.7" font-family="Lab Grotesque K" font-size="16.00" fill="#ff007f">(y0 &#45; (a * x0 + b)) ^ 2</text>
<polyline fill="none" stroke="#9700ff" stroke-width="3" points="879,-168.5 1040,-168.5 "/>
<text text-anchor="middle" x="959.5" y="-151.7" font-family="Lab Grotesque K" font-size="16.00" fill="#ff007f">data 20.09</text>
</g>
<!-- 130468555892608&#45;&gt;130467478374160+ -->
<g id="edge16" class="edge">
<title>130468555892608&#45;&gt;130467478374160+</title>
<path fill="none" stroke="#9700ff" stroke-width="3" d="M1040.35,-148.19C1049.97,-145.74 1059.37,-143.35 1067.81,-141.2"/>
<polygon fill="#9700ff" stroke="#9700ff" stroke-width="3" points="1068.76,-144.57 1077.58,-138.71 1067.03,-137.79 1068.76,-144.57"/>
</g>
<!-- 130468555892608^2&#45;&gt;130468555892608 -->
<g id="edge7" class="edge">
<title>130468555892608^2&#45;&gt;130468555892608</title>
<path fill="none" stroke="#9700ff" stroke-width="3" d="M843.28,-168.5C850.85,-168.5 859.57,-168.5 868.74,-168.5"/>
<polygon fill="#9700ff" stroke="#9700ff" stroke-width="3" points="868.85,-172 878.85,-168.5 868.85,-165 868.85,-172"/>
</g>
<!-- 130470792641424 -->
<g id="node21" class="node">
<title>130470792641424</title>
<polygon fill="none" stroke="#9700ff" stroke-width="3" points="410,-71.5 410,-123.5 501,-123.5 501,-71.5 410,-71.5"/>
<text text-anchor="middle" x="455.5" y="-106.7" font-family="Lab Grotesque K" font-size="16.00" fill="#ff007f">(a * x1 + b)</text>
<polyline fill="none" stroke="#9700ff" stroke-width="3" points="410,-97.5 501,-97.5 "/>
<text text-anchor="middle" x="455.5" y="-80.7" font-family="Lab Grotesque K" font-size="16.00" fill="#ff007f">data 6.0</text>
</g>
<!-- 130470792641424&#45;&gt;130470642713136&#45; -->
<g id="edge14" class="edge">
<title>130470792641424&#45;&gt;130470642713136&#45;</title>
<path fill="none" stroke="#9700ff" stroke-width="3" d="M501.16,-97.5C510.01,-97.5 519.21,-97.5 527.75,-97.5"/>
<polygon fill="#9700ff" stroke="#9700ff" stroke-width="3" points="527.77,-101 537.77,-97.5 527.77,-94 527.77,-101"/>
</g>
<!-- 130470792641424+&#45;&gt;130470792641424 -->
<g id="edge8" class="edge">
<title>130470792641424+&#45;&gt;130470792641424</title>
<path fill="none" stroke="#9700ff" stroke-width="3" d="M373.02,-97.5C381.15,-97.5 390.43,-97.5 399.76,-97.5"/>
<polygon fill="#9700ff" stroke="#9700ff" stroke-width="3" points="399.84,-101 409.84,-97.5 399.84,-94 399.84,-101"/>
</g>
<!-- 130467478384576 -->
<g id="node23" class="node">
<title>130467478384576</title>
<polygon fill="none" stroke="#9700ff" stroke-width="3" points="881,-71.5 881,-123.5 1038,-123.5 1038,-71.5 881,-71.5"/>
<text text-anchor="middle" x="959.5" y="-106.7" font-family="Lab Grotesque K" font-size="16.00" fill="#ff007f">(y1 &#45; (a * x1 + b)) ^ 2</text>
<polyline fill="none" stroke="#9700ff" stroke-width="3" points="881,-97.5 1038,-97.5 "/>
<text text-anchor="middle" x="959.5" y="-80.7" font-family="Lab Grotesque K" font-size="16.00" fill="#ff007f">data 24.98</text>
</g>
<!-- 130467478384576&#45;&gt;130467478374160+ -->
<g id="edge21" class="edge">
<title>130467478384576&#45;&gt;130467478374160+</title>
<path fill="none" stroke="#9700ff" stroke-width="3" d="M1038.29,-116.74C1048.44,-119.25 1058.4,-121.72 1067.32,-123.92"/>
<polygon fill="#9700ff" stroke="#9700ff" stroke-width="3" points="1066.71,-127.38 1077.25,-126.38 1068.39,-120.58 1066.71,-127.38"/>
</g>
<!-- 130467478384576^2&#45;&gt;130467478384576 -->
<g id="edge9" class="edge">
<title>130467478384576^2&#45;&gt;130467478384576</title>
<path fill="none" stroke="#9700ff" stroke-width="3" d="M843.28,-97.5C851.44,-97.5 860.91,-97.5 870.86,-97.5"/>
<polygon fill="#9700ff" stroke="#9700ff" stroke-width="3" points="870.94,-101 880.94,-97.5 870.94,-94 870.94,-101"/>
</g>
</g>
</svg>
