<?xml version="1.0" encoding="UTF-8" standalone="no"?>
<!DOCTYPE svg PUBLIC "-//W3C//DTD SVG 1.1//EN"
 "http://www.w3.org/Graphics/SVG/1.1/DTD/svg11.dtd">
<!-- Generated by graphviz version 2.43.0 (0)
 -->
<!-- Title: %3 Pages: 1 -->
<svg width="1666pt" height="378pt"
 viewBox="0.00 0.00 1666.00 378.00" xmlns="http://www.w3.org/2000/svg" xmlns:xlink="http://www.w3.org/1999/xlink">
<g id="graph0" class="graph" transform="scale(1 1) rotate(0) translate(4 374)">
<title>%3</title>
<!-- 126530392031792 -->
<g id="node1" class="node">
<title>126530392031792</title>
<polygon fill="none" stroke="#9700ff" stroke-width="3" points="991,-97.5 991,-175.5 1179,-175.5 1179,-97.5 991,-97.5"/>
<text text-anchor="middle" x="1085" y="-158.7" font-family="Lab Grotesque K" font-size="16.00" fill="#ff007f">0.2979 &#45; a * 0.25 + b ^ 2</text>
<polyline fill="none" stroke="#9700ff" stroke-width="3" points="991,-149.5 1179,-149.5 "/>
<text text-anchor="middle" x="1085" y="-132.7" font-family="Lab Grotesque K" font-size="16.00" fill="#ff007f">data 22.11</text>
<polyline fill="none" stroke="#9700ff" stroke-width="3" points="991,-123.5 1179,-123.5 "/>
<text text-anchor="middle" x="1085" y="-106.7" font-family="Lab Grotesque K" font-size="16.00" fill="#ff007f">grad 1</text>
</g>
<!-- 126530392037456+ -->
<g id="node4" class="node">
<title>126530392037456+</title>
<ellipse fill="none" stroke="#9700ff" stroke-width="3" cx="1242" cy="-184.5" rx="27" ry="18.27"/>
<text text-anchor="middle" x="1242" y="-180.7" font-family="Lab Grotesque K" font-size="16.00" fill="#ff007f">+</text>
</g>
<!-- 126530392031792&#45;&gt;126530392037456+ -->
<g id="edge25" class="edge">
<title>126530392031792&#45;&gt;126530392037456+</title>
<path fill="none" stroke="#9700ff" stroke-width="3" d="M1179.29,-165.39C1189.23,-168.47 1198.81,-171.43 1207.33,-174.07"/>
<polygon fill="#9700ff" stroke="#9700ff" stroke-width="3" points="1206.57,-177.5 1217.15,-177.12 1208.64,-170.81 1206.57,-177.5"/>
</g>
<!-- 126530392031792^2 -->
<g id="node2" class="node">
<title>126530392031792^2</title>
<ellipse fill="none" stroke="#9700ff" stroke-width="3" cx="928" cy="-136.5" rx="27" ry="18.27"/>
<text text-anchor="middle" x="928" y="-132.7" font-family="Lab Grotesque K" font-size="16.00" fill="#ff007f">^2</text>
</g>
<!-- 126530392031792^2&#45;&gt;126530392031792 -->
<g id="edge1" class="edge">
<title>126530392031792^2&#45;&gt;126530392031792</title>
<path fill="none" stroke="#9700ff" stroke-width="3" d="M955.29,-136.5C962.78,-136.5 971.42,-136.5 980.6,-136.5"/>
<polygon fill="#9700ff" stroke="#9700ff" stroke-width="3" points="980.76,-140 990.76,-136.5 980.76,-133 980.76,-140"/>
</g>
<!-- 126530392037456 -->
<g id="node3" class="node">
<title>126530392037456</title>
<polygon fill="none" stroke="#9700ff" stroke-width="3" points="1305,-145.5 1305,-223.5 1658,-223.5 1658,-145.5 1305,-145.5"/>
<text text-anchor="middle" x="1481.5" y="-206.7" font-family="Lab Grotesque K" font-size="16.00" fill="#ff007f">0.2979 &#45; a * 0.25 + b ^ 2 + 1.021 &#45; a * 0.5 + b ^ 2</text>
<polyline fill="none" stroke="#9700ff" stroke-width="3" points="1305,-197.5 1658,-197.5 "/>
<text text-anchor="middle" x="1481.5" y="-180.7" font-family="Lab Grotesque K" font-size="16.00" fill="#ff007f">data 46.9</text>
<polyline fill="none" stroke="#9700ff" stroke-width="3" points="1305,-171.5 1658,-171.5 "/>
<text text-anchor="middle" x="1481.5" y="-154.7" font-family="Lab Grotesque K" font-size="16.00" fill="#ff007f">grad 1</text>
</g>
<!-- 126530392037456+&#45;&gt;126530392037456 -->
<g id="edge2" class="edge">
<title>126530392037456+&#45;&gt;126530392037456</title>
<path fill="none" stroke="#9700ff" stroke-width="3" d="M1269.32,-184.5C1276.67,-184.5 1285.26,-184.5 1294.69,-184.5"/>
<polygon fill="#9700ff" stroke="#9700ff" stroke-width="3" points="1294.79,-188 1304.79,-184.5 1294.79,-181 1294.79,-188"/>
</g>
<!-- 126530392045136 -->
<g id="node5" class="node">
<title>126530392045136</title>
<polygon fill="none" stroke="#9700ff" stroke-width="3" points="715,-194.5 715,-272.5 854,-272.5 854,-194.5 715,-194.5"/>
<text text-anchor="middle" x="784.5" y="-255.7" font-family="Lab Grotesque K" font-size="16.00" fill="#ff007f">1.021 &#45; a * 0.5 + b</text>
<polyline fill="none" stroke="#9700ff" stroke-width="3" points="715,-246.5 854,-246.5 "/>
<text text-anchor="middle" x="784.5" y="-229.7" font-family="Lab Grotesque K" font-size="16.00" fill="#ff007f">data &#45;4.979</text>
<polyline fill="none" stroke="#9700ff" stroke-width="3" points="715,-220.5 854,-220.5 "/>
<text text-anchor="middle" x="784.5" y="-203.7" font-family="Lab Grotesque K" font-size="16.00" fill="#ff007f">grad &#45;9.9581</text>
</g>
<!-- 126530392034768^2 -->
<g id="node22" class="node">
<title>126530392034768^2</title>
<ellipse fill="none" stroke="#9700ff" stroke-width="3" cx="928" cy="-233.5" rx="27" ry="18.27"/>
<text text-anchor="middle" x="928" y="-229.7" font-family="Lab Grotesque K" font-size="16.00" fill="#ff007f">^2</text>
</g>
<!-- 126530392045136&#45;&gt;126530392034768^2 -->
<g id="edge13" class="edge">
<title>126530392045136&#45;&gt;126530392034768^2</title>
<path fill="none" stroke="#9700ff" stroke-width="3" d="M854.18,-233.5C866.77,-233.5 879.45,-233.5 890.62,-233.5"/>
<polygon fill="#9700ff" stroke="#9700ff" stroke-width="3" points="890.82,-237 900.82,-233.5 890.82,-230 890.82,-237"/>
</g>
<!-- 126530392045136&#45; -->
<g id="node6" class="node">
<title>126530392045136&#45;</title>
<ellipse fill="none" stroke="#9700ff" stroke-width="3" cx="641" cy="-233.5" rx="27" ry="18.27"/>
<text text-anchor="middle" x="641" y="-229.7" font-family="Lab Grotesque K" font-size="16.00" fill="#ff007f">&#45;</text>
</g>
<!-- 126530392045136&#45;&#45;&gt;126530392045136 -->
<g id="edge3" class="edge">
<title>126530392045136&#45;&#45;&gt;126530392045136</title>
<path fill="none" stroke="#9700ff" stroke-width="3" d="M668.28,-233.5C678.86,-233.5 691.66,-233.5 704.83,-233.5"/>
<polygon fill="#9700ff" stroke="#9700ff" stroke-width="3" points="704.94,-237 714.94,-233.5 704.94,-230 704.94,-237"/>
</g>
<!-- 126531481202288 -->
<g id="node7" class="node">
<title>126531481202288</title>
<polygon fill="none" stroke="#9700ff" stroke-width="3" points="3.5,-97.5 3.5,-175.5 106.5,-175.5 106.5,-97.5 3.5,-97.5"/>
<text text-anchor="middle" x="55" y="-158.7" font-family="Lab Grotesque K" font-size="16.00" fill="#ff007f">0.25</text>
<polyline fill="none" stroke="#9700ff" stroke-width="3" points="3.5,-149.5 106.5,-149.5 "/>
<text text-anchor="middle" x="55" y="-132.7" font-family="Lab Grotesque K" font-size="16.00" fill="#ff007f">data 0.25</text>
<polyline fill="none" stroke="#9700ff" stroke-width="3" points="3.5,-123.5 106.5,-123.5 "/>
<text text-anchor="middle" x="55" y="-106.7" font-family="Lab Grotesque K" font-size="16.00" fill="#ff007f">grad 37.6171</text>
</g>
<!-- 126530392035296* -->
<g id="node24" class="node">
<title>126530392035296*</title>
<ellipse fill="none" stroke="#9700ff" stroke-width="3" cx="173" cy="-136.5" rx="27" ry="18.27"/>
<text text-anchor="middle" x="173" y="-132.7" font-family="Lab Grotesque K" font-size="16.00" fill="#ff007f">*</text>
</g>
<!-- 126531481202288&#45;&gt;126530392035296* -->
<g id="edge21" class="edge">
<title>126531481202288&#45;&gt;126530392035296*</title>
<path fill="none" stroke="#9700ff" stroke-width="3" d="M106.54,-136.5C116.39,-136.5 126.53,-136.5 135.8,-136.5"/>
<polygon fill="#9700ff" stroke="#9700ff" stroke-width="3" points="135.83,-140 145.83,-136.5 135.83,-133 135.83,-140"/>
</g>
<!-- 126530392032896 -->
<g id="node8" class="node">
<title>126530392032896</title>
<polygon fill="none" stroke="#9700ff" stroke-width="3" points="473.5,-97.5 473.5,-175.5 574.5,-175.5 574.5,-97.5 473.5,-97.5"/>
<text text-anchor="middle" x="524" y="-158.7" font-family="Lab Grotesque K" font-size="16.00" fill="#ff007f">a * 0.25 + b</text>
<polyline fill="none" stroke="#9700ff" stroke-width="3" points="473.5,-149.5 574.5,-149.5 "/>
<text text-anchor="middle" x="524" y="-132.7" font-family="Lab Grotesque K" font-size="16.00" fill="#ff007f">data 5.0</text>
<polyline fill="none" stroke="#9700ff" stroke-width="3" points="473.5,-123.5 574.5,-123.5 "/>
<text text-anchor="middle" x="524" y="-106.7" font-family="Lab Grotesque K" font-size="16.00" fill="#ff007f">grad 9.4043</text>
</g>
<!-- 126530392042160&#45; -->
<g id="node15" class="node">
<title>126530392042160&#45;</title>
<ellipse fill="none" stroke="#9700ff" stroke-width="3" cx="641" cy="-136.5" rx="27" ry="18.27"/>
<text text-anchor="middle" x="641" y="-132.7" font-family="Lab Grotesque K" font-size="16.00" fill="#ff007f">&#45;</text>
</g>
<!-- 126530392032896&#45;&gt;126530392042160&#45; -->
<g id="edge18" class="edge">
<title>126530392032896&#45;&gt;126530392042160&#45;</title>
<path fill="none" stroke="#9700ff" stroke-width="3" d="M574.77,-136.5C584.56,-136.5 594.66,-136.5 603.9,-136.5"/>
<polygon fill="#9700ff" stroke="#9700ff" stroke-width="3" points="603.9,-140 613.9,-136.5 603.9,-133 603.9,-140"/>
</g>
<!-- 126530392032896+ -->
<g id="node9" class="node">
<title>126530392032896+</title>
<ellipse fill="none" stroke="#9700ff" stroke-width="3" cx="407" cy="-136.5" rx="27" ry="18.27"/>
<text text-anchor="middle" x="407" y="-132.7" font-family="Lab Grotesque K" font-size="16.00" fill="#ff007f">+</text>
</g>
<!-- 126530392032896+&#45;&gt;126530392032896 -->
<g id="edge4" class="edge">
<title>126530392032896+&#45;&gt;126530392032896</title>
<path fill="none" stroke="#9700ff" stroke-width="3" d="M434.1,-136.5C442.84,-136.5 452.99,-136.5 463.23,-136.5"/>
<polygon fill="#9700ff" stroke="#9700ff" stroke-width="3" points="463.46,-140 473.46,-136.5 463.46,-133 463.46,-140"/>
</g>
<!-- 126530392047248 -->
<g id="node10" class="node">
<title>126530392047248</title>
<polygon fill="none" stroke="#9700ff" stroke-width="3" points="473.5,-291.5 473.5,-369.5 574.5,-369.5 574.5,-291.5 473.5,-291.5"/>
<text text-anchor="middle" x="524" y="-352.7" font-family="Lab Grotesque K" font-size="16.00" fill="#ff007f">a * 0.5 + b</text>
<polyline fill="none" stroke="#9700ff" stroke-width="3" points="473.5,-343.5 574.5,-343.5 "/>
<text text-anchor="middle" x="524" y="-326.7" font-family="Lab Grotesque K" font-size="16.00" fill="#ff007f">data 6.0</text>
<polyline fill="none" stroke="#9700ff" stroke-width="3" points="473.5,-317.5 574.5,-317.5 "/>
<text text-anchor="middle" x="524" y="-300.7" font-family="Lab Grotesque K" font-size="16.00" fill="#ff007f">grad 9.9581</text>
</g>
<!-- 126530392047248&#45;&gt;126530392045136&#45; -->
<g id="edge22" class="edge">
<title>126530392047248&#45;&gt;126530392045136&#45;</title>
<path fill="none" stroke="#9700ff" stroke-width="3" d="M571.44,-291.33C586.48,-278.65 602.56,-265.08 615.37,-254.28"/>
<polygon fill="#9700ff" stroke="#9700ff" stroke-width="3" points="617.88,-256.74 623.27,-247.62 613.36,-251.39 617.88,-256.74"/>
</g>
<!-- 126530392047248+ -->
<g id="node11" class="node">
<title>126530392047248+</title>
<ellipse fill="none" stroke="#9700ff" stroke-width="3" cx="407" cy="-330.5" rx="27" ry="18.27"/>
<text text-anchor="middle" x="407" y="-326.7" font-family="Lab Grotesque K" font-size="16.00" fill="#ff007f">+</text>
</g>
<!-- 126530392047248+&#45;&gt;126530392047248 -->
<g id="edge5" class="edge">
<title>126530392047248+&#45;&gt;126530392047248</title>
<path fill="none" stroke="#9700ff" stroke-width="3" d="M434.1,-330.5C442.84,-330.5 452.99,-330.5 463.23,-330.5"/>
<polygon fill="#9700ff" stroke="#9700ff" stroke-width="3" points="463.46,-334 473.46,-330.5 463.46,-327 463.46,-334"/>
</g>
<!-- 126530392038992 -->
<g id="node12" class="node">
<title>126530392038992</title>
<polygon fill="none" stroke="#9700ff" stroke-width="3" points="239.5,-291.5 239.5,-369.5 340.5,-369.5 340.5,-291.5 239.5,-291.5"/>
<text text-anchor="middle" x="290" y="-352.7" font-family="Lab Grotesque K" font-size="16.00" fill="#ff007f">a * 0.5</text>
<polyline fill="none" stroke="#9700ff" stroke-width="3" points="239.5,-343.5 340.5,-343.5 "/>
<text text-anchor="middle" x="290" y="-326.7" font-family="Lab Grotesque K" font-size="16.00" fill="#ff007f">data 2.0</text>
<polyline fill="none" stroke="#9700ff" stroke-width="3" points="239.5,-317.5 340.5,-317.5 "/>
<text text-anchor="middle" x="290" y="-300.7" font-family="Lab Grotesque K" font-size="16.00" fill="#ff007f">grad 9.9581</text>
</g>
<!-- 126530392038992&#45;&gt;126530392047248+ -->
<g id="edge17" class="edge">
<title>126530392038992&#45;&gt;126530392047248+</title>
<path fill="none" stroke="#9700ff" stroke-width="3" d="M340.77,-330.5C350.56,-330.5 360.66,-330.5 369.9,-330.5"/>
<polygon fill="#9700ff" stroke="#9700ff" stroke-width="3" points="369.9,-334 379.9,-330.5 369.9,-327 369.9,-334"/>
</g>
<!-- 126530392038992* -->
<g id="node13" class="node">
<title>126530392038992*</title>
<ellipse fill="none" stroke="#9700ff" stroke-width="3" cx="173" cy="-330.5" rx="27" ry="18.27"/>
<text text-anchor="middle" x="173" y="-326.7" font-family="Lab Grotesque K" font-size="16.00" fill="#ff007f">*</text>
</g>
<!-- 126530392038992*&#45;&gt;126530392038992 -->
<g id="edge6" class="edge">
<title>126530392038992*&#45;&gt;126530392038992</title>
<path fill="none" stroke="#9700ff" stroke-width="3" d="M200.1,-330.5C208.84,-330.5 218.99,-330.5 229.23,-330.5"/>
<polygon fill="#9700ff" stroke="#9700ff" stroke-width="3" points="229.46,-334 239.46,-330.5 229.46,-327 229.46,-334"/>
</g>
<!-- 126530392042160 -->
<g id="node14" class="node">
<title>126530392042160</title>
<polygon fill="none" stroke="#9700ff" stroke-width="3" points="704,-97.5 704,-175.5 865,-175.5 865,-97.5 704,-97.5"/>
<text text-anchor="middle" x="784.5" y="-158.7" font-family="Lab Grotesque K" font-size="16.00" fill="#ff007f">0.2979 &#45; a * 0.25 + b</text>
<polyline fill="none" stroke="#9700ff" stroke-width="3" points="704,-149.5 865,-149.5 "/>
<text text-anchor="middle" x="784.5" y="-132.7" font-family="Lab Grotesque K" font-size="16.00" fill="#ff007f">data &#45;4.702</text>
<polyline fill="none" stroke="#9700ff" stroke-width="3" points="704,-123.5 865,-123.5 "/>
<text text-anchor="middle" x="784.5" y="-106.7" font-family="Lab Grotesque K" font-size="16.00" fill="#ff007f">grad &#45;9.4043</text>
</g>
<!-- 126530392042160&#45;&gt;126530392031792^2 -->
<g id="edge10" class="edge">
<title>126530392042160&#45;&gt;126530392031792^2</title>
<path fill="none" stroke="#9700ff" stroke-width="3" d="M865.35,-136.5C874.14,-136.5 882.74,-136.5 890.6,-136.5"/>
<polygon fill="#9700ff" stroke="#9700ff" stroke-width="3" points="890.79,-140 900.79,-136.5 890.79,-133 890.79,-140"/>
</g>
<!-- 126530392042160&#45;&#45;&gt;126530392042160 -->
<g id="edge7" class="edge">
<title>126530392042160&#45;&#45;&gt;126530392042160</title>
<path fill="none" stroke="#9700ff" stroke-width="3" d="M668.28,-136.5C675.85,-136.5 684.57,-136.5 693.74,-136.5"/>
<polygon fill="#9700ff" stroke="#9700ff" stroke-width="3" points="693.85,-140 703.85,-136.5 693.85,-133 693.85,-140"/>
</g>
<!-- 126531481204928 -->
<g id="node16" class="node">
<title>126531481204928</title>
<polygon fill="none" stroke="#9700ff" stroke-width="3" points="236,-194.5 236,-272.5 344,-272.5 344,-194.5 236,-194.5"/>
<text text-anchor="middle" x="290" y="-255.7" font-family="Lab Grotesque K" font-size="16.00" fill="#ff007f">b</text>
<polyline fill="none" stroke="#9700ff" stroke-width="3" points="236,-246.5 344,-246.5 "/>
<text text-anchor="middle" x="290" y="-229.7" font-family="Lab Grotesque K" font-size="16.00" fill="#ff007f">data 4.0</text>
<polyline fill="none" stroke="#9700ff" stroke-width="3" points="236,-220.5 344,-220.5 "/>
<text text-anchor="middle" x="290" y="-203.7" font-family="Lab Grotesque K" font-size="16.00" fill="#ff007f">grad 19.3624</text>
</g>
<!-- 126531481204928&#45;&gt;126530392032896+ -->
<g id="edge11" class="edge">
<title>126531481204928&#45;&gt;126530392032896+</title>
<path fill="none" stroke="#9700ff" stroke-width="3" d="M337.44,-194.33C352.48,-181.65 368.56,-168.08 381.37,-157.28"/>
<polygon fill="#9700ff" stroke="#9700ff" stroke-width="3" points="383.88,-159.74 389.27,-150.62 379.36,-154.39 383.88,-159.74"/>
</g>
<!-- 126531481204928&#45;&gt;126530392047248+ -->
<g id="edge14" class="edge">
<title>126531481204928&#45;&gt;126530392047248+</title>
<path fill="none" stroke="#9700ff" stroke-width="3" d="M337.44,-272.67C352.48,-285.35 368.56,-298.92 381.37,-309.72"/>
<polygon fill="#9700ff" stroke="#9700ff" stroke-width="3" points="379.36,-312.61 389.27,-316.38 383.88,-307.26 379.36,-312.61"/>
</g>
<!-- 126530382212720 -->
<g id="node17" class="node">
<title>126530382212720</title>
<polygon fill="none" stroke="#9700ff" stroke-width="3" points="0,-291.5 0,-369.5 110,-369.5 110,-291.5 0,-291.5"/>
<text text-anchor="middle" x="55" y="-352.7" font-family="Lab Grotesque K" font-size="16.00" fill="#ff007f">0.5</text>
<polyline fill="none" stroke="#9700ff" stroke-width="3" points="0,-343.5 110,-343.5 "/>
<text text-anchor="middle" x="55" y="-326.7" font-family="Lab Grotesque K" font-size="16.00" fill="#ff007f">data 0.5</text>
<polyline fill="none" stroke="#9700ff" stroke-width="3" points="0,-317.5 110,-317.5 "/>
<text text-anchor="middle" x="55" y="-300.7" font-family="Lab Grotesque K" font-size="16.00" fill="#ff007f">grad 39.8323</text>
</g>
<!-- 126530382212720&#45;&gt;126530392038992* -->
<g id="edge20" class="edge">
<title>126530382212720&#45;&gt;126530392038992*</title>
<path fill="none" stroke="#9700ff" stroke-width="3" d="M110.26,-330.5C118.87,-330.5 127.59,-330.5 135.66,-330.5"/>
<polygon fill="#9700ff" stroke="#9700ff" stroke-width="3" points="135.83,-334 145.83,-330.5 135.83,-327 135.83,-334"/>
</g>
<!-- 126530392041392 -->
<g id="node18" class="node">
<title>126530392041392</title>
<polygon fill="none" stroke="#9700ff" stroke-width="3" points="470.5,-194.5 470.5,-272.5 577.5,-272.5 577.5,-194.5 470.5,-194.5"/>
<text text-anchor="middle" x="524" y="-255.7" font-family="Lab Grotesque K" font-size="16.00" fill="#ff007f">1.021</text>
<polyline fill="none" stroke="#9700ff" stroke-width="3" points="470.5,-246.5 577.5,-246.5 "/>
<text text-anchor="middle" x="524" y="-229.7" font-family="Lab Grotesque K" font-size="16.00" fill="#ff007f">data 1.021</text>
<polyline fill="none" stroke="#9700ff" stroke-width="3" points="470.5,-220.5 577.5,-220.5 "/>
<text text-anchor="middle" x="524" y="-203.7" font-family="Lab Grotesque K" font-size="16.00" fill="#ff007f">grad &#45;9.9581</text>
</g>
<!-- 126530392041392&#45;&gt;126530392045136&#45; -->
<g id="edge23" class="edge">
<title>126530392041392&#45;&gt;126530392045136&#45;</title>
<path fill="none" stroke="#9700ff" stroke-width="3" d="M577.79,-233.5C586.59,-233.5 595.54,-233.5 603.8,-233.5"/>
<polygon fill="#9700ff" stroke="#9700ff" stroke-width="3" points="603.85,-237 613.85,-233.5 603.85,-230 603.85,-237"/>
</g>
<!-- 126531481192352 -->
<g id="node19" class="node">
<title>126531481192352</title>
<polygon fill="none" stroke="#9700ff" stroke-width="3" points="6,-194.5 6,-272.5 104,-272.5 104,-194.5 6,-194.5"/>
<text text-anchor="middle" x="55" y="-255.7" font-family="Lab Grotesque K" font-size="16.00" fill="#ff007f">a</text>
<polyline fill="none" stroke="#9700ff" stroke-width="3" points="6,-246.5 104,-246.5 "/>
<text text-anchor="middle" x="55" y="-229.7" font-family="Lab Grotesque K" font-size="16.00" fill="#ff007f">data 4.0</text>
<polyline fill="none" stroke="#9700ff" stroke-width="3" points="6,-220.5 104,-220.5 "/>
<text text-anchor="middle" x="55" y="-203.7" font-family="Lab Grotesque K" font-size="16.00" fill="#ff007f">grad 7.3301</text>
</g>
<!-- 126531481192352&#45;&gt;126530392038992* -->
<g id="edge19" class="edge">
<title>126531481192352&#45;&gt;126530392038992*</title>
<path fill="none" stroke="#9700ff" stroke-width="3" d="M102.85,-272.67C118.01,-285.35 134.23,-298.92 147.15,-309.72"/>
<polygon fill="#9700ff" stroke="#9700ff" stroke-width="3" points="145.2,-312.65 155.12,-316.38 149.69,-307.28 145.2,-312.65"/>
</g>
<!-- 126531481192352&#45;&gt;126530392035296* -->
<g id="edge16" class="edge">
<title>126531481192352&#45;&gt;126530392035296*</title>
<path fill="none" stroke="#9700ff" stroke-width="3" d="M102.85,-194.33C118.01,-181.65 134.23,-168.08 147.15,-157.28"/>
<polygon fill="#9700ff" stroke="#9700ff" stroke-width="3" points="149.69,-159.72 155.12,-150.62 145.2,-154.35 149.69,-159.72"/>
</g>
<!-- 126530392036784 -->
<g id="node20" class="node">
<title>126530392036784</title>
<polygon fill="none" stroke="#9700ff" stroke-width="3" points="470,-0.5 470,-78.5 578,-78.5 578,-0.5 470,-0.5"/>
<text text-anchor="middle" x="524" y="-61.7" font-family="Lab Grotesque K" font-size="16.00" fill="#ff007f">0.2979</text>
<polyline fill="none" stroke="#9700ff" stroke-width="3" points="470,-52.5 578,-52.5 "/>
<text text-anchor="middle" x="524" y="-35.7" font-family="Lab Grotesque K" font-size="16.00" fill="#ff007f">data 0.2979</text>
<polyline fill="none" stroke="#9700ff" stroke-width="3" points="470,-26.5 578,-26.5 "/>
<text text-anchor="middle" x="524" y="-9.7" font-family="Lab Grotesque K" font-size="16.00" fill="#ff007f">grad &#45;9.4043</text>
</g>
<!-- 126530392036784&#45;&gt;126530392042160&#45; -->
<g id="edge15" class="edge">
<title>126530392036784&#45;&gt;126530392042160&#45;</title>
<path fill="none" stroke="#9700ff" stroke-width="3" d="M571.44,-78.67C586.48,-91.35 602.56,-104.92 615.37,-115.72"/>
<polygon fill="#9700ff" stroke="#9700ff" stroke-width="3" points="613.36,-118.61 623.27,-122.38 617.88,-113.26 613.36,-118.61"/>
</g>
<!-- 126530392034768 -->
<g id="node21" class="node">
<title>126530392034768</title>
<polygon fill="none" stroke="#9700ff" stroke-width="3" points="1002.5,-194.5 1002.5,-272.5 1167.5,-272.5 1167.5,-194.5 1002.5,-194.5"/>
<text text-anchor="middle" x="1085" y="-255.7" font-family="Lab Grotesque K" font-size="16.00" fill="#ff007f">1.021 &#45; a * 0.5 + b ^ 2</text>
<polyline fill="none" stroke="#9700ff" stroke-width="3" points="1002.5,-246.5 1167.5,-246.5 "/>
<text text-anchor="middle" x="1085" y="-229.7" font-family="Lab Grotesque K" font-size="16.00" fill="#ff007f">data 24.79</text>
<polyline fill="none" stroke="#9700ff" stroke-width="3" points="1002.5,-220.5 1167.5,-220.5 "/>
<text text-anchor="middle" x="1085" y="-203.7" font-family="Lab Grotesque K" font-size="16.00" fill="#ff007f">grad 1</text>
</g>
<!-- 126530392034768&#45;&gt;126530392037456+ -->
<g id="edge12" class="edge">
<title>126530392034768&#45;&gt;126530392037456+</title>
<path fill="none" stroke="#9700ff" stroke-width="3" d="M1167.59,-207.71C1181.69,-203.25 1195.61,-198.85 1207.47,-195.1"/>
<polygon fill="#9700ff" stroke="#9700ff" stroke-width="3" points="1208.85,-198.34 1217.33,-191.98 1206.74,-191.66 1208.85,-198.34"/>
</g>
<!-- 126530392034768^2&#45;&gt;126530392034768 -->
<g id="edge8" class="edge">
<title>126530392034768^2&#45;&gt;126530392034768</title>
<path fill="none" stroke="#9700ff" stroke-width="3" d="M955.29,-233.5C965.82,-233.5 978.64,-233.5 992.05,-233.5"/>
<polygon fill="#9700ff" stroke="#9700ff" stroke-width="3" points="992.4,-237 1002.4,-233.5 992.4,-230 992.4,-237"/>
</g>
<!-- 126530392035296 -->
<g id="node23" class="node">
<title>126530392035296</title>
<polygon fill="none" stroke="#9700ff" stroke-width="3" points="239.5,-97.5 239.5,-175.5 340.5,-175.5 340.5,-97.5 239.5,-97.5"/>
<text text-anchor="middle" x="290" y="-158.7" font-family="Lab Grotesque K" font-size="16.00" fill="#ff007f">a * 0.25</text>
<polyline fill="none" stroke="#9700ff" stroke-width="3" points="239.5,-149.5 340.5,-149.5 "/>
<text text-anchor="middle" x="290" y="-132.7" font-family="Lab Grotesque K" font-size="16.00" fill="#ff007f">data 1.0</text>
<polyline fill="none" stroke="#9700ff" stroke-width="3" points="239.5,-123.5 340.5,-123.5 "/>
<text text-anchor="middle" x="290" y="-106.7" font-family="Lab Grotesque K" font-size="16.00" fill="#ff007f">grad 9.4043</text>
</g>
<!-- 126530392035296&#45;&gt;126530392032896+ -->
<g id="edge24" class="edge">
<title>126530392035296&#45;&gt;126530392032896+</title>
<path fill="none" stroke="#9700ff" stroke-width="3" d="M340.77,-136.5C350.56,-136.5 360.66,-136.5 369.9,-136.5"/>
<polygon fill="#9700ff" stroke="#9700ff" stroke-width="3" points="369.9,-140 379.9,-136.5 369.9,-133 369.9,-140"/>
</g>
<!-- 126530392035296*&#45;&gt;126530392035296 -->
<g id="edge9" class="edge">
<title>126530392035296*&#45;&gt;126530392035296</title>
<path fill="none" stroke="#9700ff" stroke-width="3" d="M200.1,-136.5C208.84,-136.5 218.99,-136.5 229.23,-136.5"/>
<polygon fill="#9700ff" stroke="#9700ff" stroke-width="3" points="229.46,-140 239.46,-136.5 229.46,-133 229.46,-140"/>
</g>
</g>
</svg>
